%TF.GenerationSoftware,KiCad,Pcbnew,8.0.5*%
%TF.CreationDate,2024-11-27T14:21:57+01:00*%
%TF.ProjectId,TOF_PCB_COTE,544f465f-5043-4425-9f43-4f54452e6b69,rev?*%
%TF.SameCoordinates,Original*%
%TF.FileFunction,Drillmap*%
%TF.FilePolarity,Positive*%
%FSLAX45Y45*%
G04 Gerber Fmt 4.5, Leading zero omitted, Abs format (unit mm)*
G04 Created by KiCad (PCBNEW 8.0.5) date 2024-11-27 14:21:57*
%MOMM*%
%LPD*%
G01*
G04 APERTURE LIST*
%ADD10C,0.050000*%
%ADD11C,0.200000*%
%ADD12C,0.100000*%
G04 APERTURE END LIST*
D10*
X15100000Y-8100000D02*
G75*
G02*
X15339998Y-8295153I0J-245150D01*
G01*
X12325006Y-8350000D02*
G75*
G02*
X12576777Y-8101776I249984J-1760D01*
G01*
X15098223Y-11751777D02*
X12576777Y-11750006D01*
X12576777Y-8101777D02*
X15100000Y-8100000D01*
X12576777Y-11750006D02*
G75*
G02*
X12325000Y-11500000I3J251786D01*
G01*
X15340000Y-8295153D02*
X15340000Y-11535403D01*
X15340000Y-11535403D02*
G75*
G02*
X15098223Y-11751781I-241780J26893D01*
G01*
X12325000Y-11500000D02*
X12325000Y-8350000D01*
D11*
D12*
X12722500Y-10587500D02*
X12802500Y-10667500D01*
X12802500Y-10587500D02*
X12722500Y-10667500D01*
X12935000Y-10420000D02*
X13015000Y-10500000D01*
X13015000Y-10420000D02*
X12935000Y-10500000D01*
X13160000Y-9100000D02*
X13240000Y-9180000D01*
X13240000Y-9100000D02*
X13160000Y-9180000D01*
X13560000Y-8565000D02*
X13640000Y-8645000D01*
X13640000Y-8565000D02*
X13560000Y-8645000D01*
X13760754Y-10099246D02*
X13840754Y-10179246D01*
X13840754Y-10099246D02*
X13760754Y-10179246D01*
X14240000Y-10200000D02*
X14320000Y-10280000D01*
X14320000Y-10200000D02*
X14240000Y-10280000D01*
X14760000Y-10540000D02*
X14840000Y-10620000D01*
X14840000Y-10540000D02*
X14760000Y-10620000D01*
X14910000Y-9475000D02*
X14990000Y-9555000D01*
X14990000Y-9475000D02*
X14910000Y-9555000D01*
X13502000Y-10900000D02*
G75*
G02*
X13402000Y-10900000I-50000J0D01*
G01*
X13402000Y-10900000D02*
G75*
G02*
X13502000Y-10900000I50000J0D01*
G01*
X13502000Y-11154000D02*
G75*
G02*
X13402000Y-11154000I-50000J0D01*
G01*
X13402000Y-11154000D02*
G75*
G02*
X13502000Y-11154000I50000J0D01*
G01*
X13756000Y-10900000D02*
G75*
G02*
X13656000Y-10900000I-50000J0D01*
G01*
X13656000Y-10900000D02*
G75*
G02*
X13756000Y-10900000I50000J0D01*
G01*
X13756000Y-11154000D02*
G75*
G02*
X13656000Y-11154000I-50000J0D01*
G01*
X13656000Y-11154000D02*
G75*
G02*
X13756000Y-11154000I50000J0D01*
G01*
X14010000Y-10900000D02*
G75*
G02*
X13910000Y-10900000I-50000J0D01*
G01*
X13910000Y-10900000D02*
G75*
G02*
X14010000Y-10900000I50000J0D01*
G01*
X14010000Y-11154000D02*
G75*
G02*
X13910000Y-11154000I-50000J0D01*
G01*
X13910000Y-11154000D02*
G75*
G02*
X14010000Y-11154000I50000J0D01*
G01*
X14264000Y-10900000D02*
G75*
G02*
X14164000Y-10900000I-50000J0D01*
G01*
X14164000Y-10900000D02*
G75*
G02*
X14264000Y-10900000I50000J0D01*
G01*
X14264000Y-11154000D02*
G75*
G02*
X14164000Y-11154000I-50000J0D01*
G01*
X14164000Y-11154000D02*
G75*
G02*
X14264000Y-11154000I50000J0D01*
G01*
X14518000Y-10900000D02*
G75*
G02*
X14418000Y-10900000I-50000J0D01*
G01*
X14418000Y-10900000D02*
G75*
G02*
X14518000Y-10900000I50000J0D01*
G01*
X14518000Y-11154000D02*
G75*
G02*
X14418000Y-11154000I-50000J0D01*
G01*
X14418000Y-11154000D02*
G75*
G02*
X14518000Y-11154000I50000J0D01*
G01*
D11*
X12583277Y-12065760D02*
X12583277Y-11865760D01*
X12583277Y-11865760D02*
X12630896Y-11865760D01*
X12630896Y-11865760D02*
X12659467Y-11875284D01*
X12659467Y-11875284D02*
X12678515Y-11894332D01*
X12678515Y-11894332D02*
X12688039Y-11913379D01*
X12688039Y-11913379D02*
X12697562Y-11951475D01*
X12697562Y-11951475D02*
X12697562Y-11980046D01*
X12697562Y-11980046D02*
X12688039Y-12018141D01*
X12688039Y-12018141D02*
X12678515Y-12037189D01*
X12678515Y-12037189D02*
X12659467Y-12056237D01*
X12659467Y-12056237D02*
X12630896Y-12065760D01*
X12630896Y-12065760D02*
X12583277Y-12065760D01*
X12783277Y-12065760D02*
X12783277Y-11932427D01*
X12783277Y-11970522D02*
X12792801Y-11951475D01*
X12792801Y-11951475D02*
X12802324Y-11941951D01*
X12802324Y-11941951D02*
X12821372Y-11932427D01*
X12821372Y-11932427D02*
X12840420Y-11932427D01*
X12907086Y-12065760D02*
X12907086Y-11932427D01*
X12907086Y-11865760D02*
X12897562Y-11875284D01*
X12897562Y-11875284D02*
X12907086Y-11884808D01*
X12907086Y-11884808D02*
X12916610Y-11875284D01*
X12916610Y-11875284D02*
X12907086Y-11865760D01*
X12907086Y-11865760D02*
X12907086Y-11884808D01*
X13030896Y-12065760D02*
X13011848Y-12056237D01*
X13011848Y-12056237D02*
X13002324Y-12037189D01*
X13002324Y-12037189D02*
X13002324Y-11865760D01*
X13135658Y-12065760D02*
X13116610Y-12056237D01*
X13116610Y-12056237D02*
X13107086Y-12037189D01*
X13107086Y-12037189D02*
X13107086Y-11865760D01*
X13364229Y-12065760D02*
X13364229Y-11865760D01*
X13364229Y-11865760D02*
X13430896Y-12008618D01*
X13430896Y-12008618D02*
X13497562Y-11865760D01*
X13497562Y-11865760D02*
X13497562Y-12065760D01*
X13678515Y-12065760D02*
X13678515Y-11960999D01*
X13678515Y-11960999D02*
X13668991Y-11941951D01*
X13668991Y-11941951D02*
X13649943Y-11932427D01*
X13649943Y-11932427D02*
X13611848Y-11932427D01*
X13611848Y-11932427D02*
X13592801Y-11941951D01*
X13678515Y-12056237D02*
X13659467Y-12065760D01*
X13659467Y-12065760D02*
X13611848Y-12065760D01*
X13611848Y-12065760D02*
X13592801Y-12056237D01*
X13592801Y-12056237D02*
X13583277Y-12037189D01*
X13583277Y-12037189D02*
X13583277Y-12018141D01*
X13583277Y-12018141D02*
X13592801Y-11999094D01*
X13592801Y-11999094D02*
X13611848Y-11989570D01*
X13611848Y-11989570D02*
X13659467Y-11989570D01*
X13659467Y-11989570D02*
X13678515Y-11980046D01*
X13773753Y-11932427D02*
X13773753Y-12132427D01*
X13773753Y-11941951D02*
X13792801Y-11932427D01*
X13792801Y-11932427D02*
X13830896Y-11932427D01*
X13830896Y-11932427D02*
X13849943Y-11941951D01*
X13849943Y-11941951D02*
X13859467Y-11951475D01*
X13859467Y-11951475D02*
X13868991Y-11970522D01*
X13868991Y-11970522D02*
X13868991Y-12027665D01*
X13868991Y-12027665D02*
X13859467Y-12046713D01*
X13859467Y-12046713D02*
X13849943Y-12056237D01*
X13849943Y-12056237D02*
X13830896Y-12065760D01*
X13830896Y-12065760D02*
X13792801Y-12065760D01*
X13792801Y-12065760D02*
X13773753Y-12056237D01*
X13954705Y-12046713D02*
X13964229Y-12056237D01*
X13964229Y-12056237D02*
X13954705Y-12065760D01*
X13954705Y-12065760D02*
X13945182Y-12056237D01*
X13945182Y-12056237D02*
X13954705Y-12046713D01*
X13954705Y-12046713D02*
X13954705Y-12065760D01*
X13954705Y-11941951D02*
X13964229Y-11951475D01*
X13964229Y-11951475D02*
X13954705Y-11960999D01*
X13954705Y-11960999D02*
X13945182Y-11951475D01*
X13945182Y-11951475D02*
X13954705Y-11941951D01*
X13954705Y-11941951D02*
X13954705Y-11960999D01*
D12*
X12242500Y-12354277D02*
X12322500Y-12434277D01*
X12322500Y-12354277D02*
X12242500Y-12434277D01*
D11*
X12621372Y-12285760D02*
X12640420Y-12285760D01*
X12640420Y-12285760D02*
X12659467Y-12295284D01*
X12659467Y-12295284D02*
X12668991Y-12304808D01*
X12668991Y-12304808D02*
X12678515Y-12323856D01*
X12678515Y-12323856D02*
X12688039Y-12361951D01*
X12688039Y-12361951D02*
X12688039Y-12409570D01*
X12688039Y-12409570D02*
X12678515Y-12447665D01*
X12678515Y-12447665D02*
X12668991Y-12466713D01*
X12668991Y-12466713D02*
X12659467Y-12476237D01*
X12659467Y-12476237D02*
X12640420Y-12485760D01*
X12640420Y-12485760D02*
X12621372Y-12485760D01*
X12621372Y-12485760D02*
X12602324Y-12476237D01*
X12602324Y-12476237D02*
X12592801Y-12466713D01*
X12592801Y-12466713D02*
X12583277Y-12447665D01*
X12583277Y-12447665D02*
X12573753Y-12409570D01*
X12573753Y-12409570D02*
X12573753Y-12361951D01*
X12573753Y-12361951D02*
X12583277Y-12323856D01*
X12583277Y-12323856D02*
X12592801Y-12304808D01*
X12592801Y-12304808D02*
X12602324Y-12295284D01*
X12602324Y-12295284D02*
X12621372Y-12285760D01*
X12773753Y-12466713D02*
X12783277Y-12476237D01*
X12783277Y-12476237D02*
X12773753Y-12485760D01*
X12773753Y-12485760D02*
X12764229Y-12476237D01*
X12764229Y-12476237D02*
X12773753Y-12466713D01*
X12773753Y-12466713D02*
X12773753Y-12485760D01*
X12897562Y-12371475D02*
X12878515Y-12361951D01*
X12878515Y-12361951D02*
X12868991Y-12352427D01*
X12868991Y-12352427D02*
X12859467Y-12333379D01*
X12859467Y-12333379D02*
X12859467Y-12323856D01*
X12859467Y-12323856D02*
X12868991Y-12304808D01*
X12868991Y-12304808D02*
X12878515Y-12295284D01*
X12878515Y-12295284D02*
X12897562Y-12285760D01*
X12897562Y-12285760D02*
X12935658Y-12285760D01*
X12935658Y-12285760D02*
X12954705Y-12295284D01*
X12954705Y-12295284D02*
X12964229Y-12304808D01*
X12964229Y-12304808D02*
X12973753Y-12323856D01*
X12973753Y-12323856D02*
X12973753Y-12333379D01*
X12973753Y-12333379D02*
X12964229Y-12352427D01*
X12964229Y-12352427D02*
X12954705Y-12361951D01*
X12954705Y-12361951D02*
X12935658Y-12371475D01*
X12935658Y-12371475D02*
X12897562Y-12371475D01*
X12897562Y-12371475D02*
X12878515Y-12380999D01*
X12878515Y-12380999D02*
X12868991Y-12390522D01*
X12868991Y-12390522D02*
X12859467Y-12409570D01*
X12859467Y-12409570D02*
X12859467Y-12447665D01*
X12859467Y-12447665D02*
X12868991Y-12466713D01*
X12868991Y-12466713D02*
X12878515Y-12476237D01*
X12878515Y-12476237D02*
X12897562Y-12485760D01*
X12897562Y-12485760D02*
X12935658Y-12485760D01*
X12935658Y-12485760D02*
X12954705Y-12476237D01*
X12954705Y-12476237D02*
X12964229Y-12466713D01*
X12964229Y-12466713D02*
X12973753Y-12447665D01*
X12973753Y-12447665D02*
X12973753Y-12409570D01*
X12973753Y-12409570D02*
X12964229Y-12390522D01*
X12964229Y-12390522D02*
X12954705Y-12380999D01*
X12954705Y-12380999D02*
X12935658Y-12371475D01*
X13097562Y-12285760D02*
X13116610Y-12285760D01*
X13116610Y-12285760D02*
X13135658Y-12295284D01*
X13135658Y-12295284D02*
X13145182Y-12304808D01*
X13145182Y-12304808D02*
X13154705Y-12323856D01*
X13154705Y-12323856D02*
X13164229Y-12361951D01*
X13164229Y-12361951D02*
X13164229Y-12409570D01*
X13164229Y-12409570D02*
X13154705Y-12447665D01*
X13154705Y-12447665D02*
X13145182Y-12466713D01*
X13145182Y-12466713D02*
X13135658Y-12476237D01*
X13135658Y-12476237D02*
X13116610Y-12485760D01*
X13116610Y-12485760D02*
X13097562Y-12485760D01*
X13097562Y-12485760D02*
X13078515Y-12476237D01*
X13078515Y-12476237D02*
X13068991Y-12466713D01*
X13068991Y-12466713D02*
X13059467Y-12447665D01*
X13059467Y-12447665D02*
X13049943Y-12409570D01*
X13049943Y-12409570D02*
X13049943Y-12361951D01*
X13049943Y-12361951D02*
X13059467Y-12323856D01*
X13059467Y-12323856D02*
X13068991Y-12304808D01*
X13068991Y-12304808D02*
X13078515Y-12295284D01*
X13078515Y-12295284D02*
X13097562Y-12285760D01*
X13288039Y-12285760D02*
X13307086Y-12285760D01*
X13307086Y-12285760D02*
X13326134Y-12295284D01*
X13326134Y-12295284D02*
X13335658Y-12304808D01*
X13335658Y-12304808D02*
X13345182Y-12323856D01*
X13345182Y-12323856D02*
X13354705Y-12361951D01*
X13354705Y-12361951D02*
X13354705Y-12409570D01*
X13354705Y-12409570D02*
X13345182Y-12447665D01*
X13345182Y-12447665D02*
X13335658Y-12466713D01*
X13335658Y-12466713D02*
X13326134Y-12476237D01*
X13326134Y-12476237D02*
X13307086Y-12485760D01*
X13307086Y-12485760D02*
X13288039Y-12485760D01*
X13288039Y-12485760D02*
X13268991Y-12476237D01*
X13268991Y-12476237D02*
X13259467Y-12466713D01*
X13259467Y-12466713D02*
X13249943Y-12447665D01*
X13249943Y-12447665D02*
X13240420Y-12409570D01*
X13240420Y-12409570D02*
X13240420Y-12361951D01*
X13240420Y-12361951D02*
X13249943Y-12323856D01*
X13249943Y-12323856D02*
X13259467Y-12304808D01*
X13259467Y-12304808D02*
X13268991Y-12295284D01*
X13268991Y-12295284D02*
X13288039Y-12285760D01*
X13440420Y-12485760D02*
X13440420Y-12352427D01*
X13440420Y-12371475D02*
X13449943Y-12361951D01*
X13449943Y-12361951D02*
X13468991Y-12352427D01*
X13468991Y-12352427D02*
X13497563Y-12352427D01*
X13497563Y-12352427D02*
X13516610Y-12361951D01*
X13516610Y-12361951D02*
X13526134Y-12380999D01*
X13526134Y-12380999D02*
X13526134Y-12485760D01*
X13526134Y-12380999D02*
X13535658Y-12361951D01*
X13535658Y-12361951D02*
X13554705Y-12352427D01*
X13554705Y-12352427D02*
X13583277Y-12352427D01*
X13583277Y-12352427D02*
X13602324Y-12361951D01*
X13602324Y-12361951D02*
X13611848Y-12380999D01*
X13611848Y-12380999D02*
X13611848Y-12485760D01*
X13707086Y-12485760D02*
X13707086Y-12352427D01*
X13707086Y-12371475D02*
X13716610Y-12361951D01*
X13716610Y-12361951D02*
X13735658Y-12352427D01*
X13735658Y-12352427D02*
X13764229Y-12352427D01*
X13764229Y-12352427D02*
X13783277Y-12361951D01*
X13783277Y-12361951D02*
X13792801Y-12380999D01*
X13792801Y-12380999D02*
X13792801Y-12485760D01*
X13792801Y-12380999D02*
X13802324Y-12361951D01*
X13802324Y-12361951D02*
X13821372Y-12352427D01*
X13821372Y-12352427D02*
X13849943Y-12352427D01*
X13849943Y-12352427D02*
X13868991Y-12361951D01*
X13868991Y-12361951D02*
X13878515Y-12380999D01*
X13878515Y-12380999D02*
X13878515Y-12485760D01*
X14268991Y-12276237D02*
X14097563Y-12533379D01*
X14526134Y-12285760D02*
X14545182Y-12285760D01*
X14545182Y-12285760D02*
X14564229Y-12295284D01*
X14564229Y-12295284D02*
X14573753Y-12304808D01*
X14573753Y-12304808D02*
X14583277Y-12323856D01*
X14583277Y-12323856D02*
X14592801Y-12361951D01*
X14592801Y-12361951D02*
X14592801Y-12409570D01*
X14592801Y-12409570D02*
X14583277Y-12447665D01*
X14583277Y-12447665D02*
X14573753Y-12466713D01*
X14573753Y-12466713D02*
X14564229Y-12476237D01*
X14564229Y-12476237D02*
X14545182Y-12485760D01*
X14545182Y-12485760D02*
X14526134Y-12485760D01*
X14526134Y-12485760D02*
X14507086Y-12476237D01*
X14507086Y-12476237D02*
X14497563Y-12466713D01*
X14497563Y-12466713D02*
X14488039Y-12447665D01*
X14488039Y-12447665D02*
X14478515Y-12409570D01*
X14478515Y-12409570D02*
X14478515Y-12361951D01*
X14478515Y-12361951D02*
X14488039Y-12323856D01*
X14488039Y-12323856D02*
X14497563Y-12304808D01*
X14497563Y-12304808D02*
X14507086Y-12295284D01*
X14507086Y-12295284D02*
X14526134Y-12285760D01*
X14678515Y-12466713D02*
X14688039Y-12476237D01*
X14688039Y-12476237D02*
X14678515Y-12485760D01*
X14678515Y-12485760D02*
X14668991Y-12476237D01*
X14668991Y-12476237D02*
X14678515Y-12466713D01*
X14678515Y-12466713D02*
X14678515Y-12485760D01*
X14811848Y-12285760D02*
X14830896Y-12285760D01*
X14830896Y-12285760D02*
X14849944Y-12295284D01*
X14849944Y-12295284D02*
X14859467Y-12304808D01*
X14859467Y-12304808D02*
X14868991Y-12323856D01*
X14868991Y-12323856D02*
X14878515Y-12361951D01*
X14878515Y-12361951D02*
X14878515Y-12409570D01*
X14878515Y-12409570D02*
X14868991Y-12447665D01*
X14868991Y-12447665D02*
X14859467Y-12466713D01*
X14859467Y-12466713D02*
X14849944Y-12476237D01*
X14849944Y-12476237D02*
X14830896Y-12485760D01*
X14830896Y-12485760D02*
X14811848Y-12485760D01*
X14811848Y-12485760D02*
X14792801Y-12476237D01*
X14792801Y-12476237D02*
X14783277Y-12466713D01*
X14783277Y-12466713D02*
X14773753Y-12447665D01*
X14773753Y-12447665D02*
X14764229Y-12409570D01*
X14764229Y-12409570D02*
X14764229Y-12361951D01*
X14764229Y-12361951D02*
X14773753Y-12323856D01*
X14773753Y-12323856D02*
X14783277Y-12304808D01*
X14783277Y-12304808D02*
X14792801Y-12295284D01*
X14792801Y-12295284D02*
X14811848Y-12285760D01*
X14945182Y-12285760D02*
X15068991Y-12285760D01*
X15068991Y-12285760D02*
X15002325Y-12361951D01*
X15002325Y-12361951D02*
X15030896Y-12361951D01*
X15030896Y-12361951D02*
X15049944Y-12371475D01*
X15049944Y-12371475D02*
X15059467Y-12380999D01*
X15059467Y-12380999D02*
X15068991Y-12400046D01*
X15068991Y-12400046D02*
X15068991Y-12447665D01*
X15068991Y-12447665D02*
X15059467Y-12466713D01*
X15059467Y-12466713D02*
X15049944Y-12476237D01*
X15049944Y-12476237D02*
X15030896Y-12485760D01*
X15030896Y-12485760D02*
X14973753Y-12485760D01*
X14973753Y-12485760D02*
X14954706Y-12476237D01*
X14954706Y-12476237D02*
X14945182Y-12466713D01*
X15259467Y-12485760D02*
X15145182Y-12485760D01*
X15202325Y-12485760D02*
X15202325Y-12285760D01*
X15202325Y-12285760D02*
X15183277Y-12314332D01*
X15183277Y-12314332D02*
X15164229Y-12333379D01*
X15164229Y-12333379D02*
X15145182Y-12342903D01*
X15440420Y-12285760D02*
X15345182Y-12285760D01*
X15345182Y-12285760D02*
X15335658Y-12380999D01*
X15335658Y-12380999D02*
X15345182Y-12371475D01*
X15345182Y-12371475D02*
X15364229Y-12361951D01*
X15364229Y-12361951D02*
X15411848Y-12361951D01*
X15411848Y-12361951D02*
X15430896Y-12371475D01*
X15430896Y-12371475D02*
X15440420Y-12380999D01*
X15440420Y-12380999D02*
X15449944Y-12400046D01*
X15449944Y-12400046D02*
X15449944Y-12447665D01*
X15449944Y-12447665D02*
X15440420Y-12466713D01*
X15440420Y-12466713D02*
X15430896Y-12476237D01*
X15430896Y-12476237D02*
X15411848Y-12485760D01*
X15411848Y-12485760D02*
X15364229Y-12485760D01*
X15364229Y-12485760D02*
X15345182Y-12476237D01*
X15345182Y-12476237D02*
X15335658Y-12466713D01*
X15526134Y-12285760D02*
X15526134Y-12323856D01*
X15602325Y-12285760D02*
X15602325Y-12323856D01*
X15897563Y-12561951D02*
X15888039Y-12552427D01*
X15888039Y-12552427D02*
X15868991Y-12523856D01*
X15868991Y-12523856D02*
X15859468Y-12504808D01*
X15859468Y-12504808D02*
X15849944Y-12476237D01*
X15849944Y-12476237D02*
X15840420Y-12428618D01*
X15840420Y-12428618D02*
X15840420Y-12390522D01*
X15840420Y-12390522D02*
X15849944Y-12342903D01*
X15849944Y-12342903D02*
X15859468Y-12314332D01*
X15859468Y-12314332D02*
X15868991Y-12295284D01*
X15868991Y-12295284D02*
X15888039Y-12266713D01*
X15888039Y-12266713D02*
X15897563Y-12257189D01*
X16002325Y-12371475D02*
X15983277Y-12361951D01*
X15983277Y-12361951D02*
X15973753Y-12352427D01*
X15973753Y-12352427D02*
X15964229Y-12333379D01*
X15964229Y-12333379D02*
X15964229Y-12323856D01*
X15964229Y-12323856D02*
X15973753Y-12304808D01*
X15973753Y-12304808D02*
X15983277Y-12295284D01*
X15983277Y-12295284D02*
X16002325Y-12285760D01*
X16002325Y-12285760D02*
X16040420Y-12285760D01*
X16040420Y-12285760D02*
X16059468Y-12295284D01*
X16059468Y-12295284D02*
X16068991Y-12304808D01*
X16068991Y-12304808D02*
X16078515Y-12323856D01*
X16078515Y-12323856D02*
X16078515Y-12333379D01*
X16078515Y-12333379D02*
X16068991Y-12352427D01*
X16068991Y-12352427D02*
X16059468Y-12361951D01*
X16059468Y-12361951D02*
X16040420Y-12371475D01*
X16040420Y-12371475D02*
X16002325Y-12371475D01*
X16002325Y-12371475D02*
X15983277Y-12380999D01*
X15983277Y-12380999D02*
X15973753Y-12390522D01*
X15973753Y-12390522D02*
X15964229Y-12409570D01*
X15964229Y-12409570D02*
X15964229Y-12447665D01*
X15964229Y-12447665D02*
X15973753Y-12466713D01*
X15973753Y-12466713D02*
X15983277Y-12476237D01*
X15983277Y-12476237D02*
X16002325Y-12485760D01*
X16002325Y-12485760D02*
X16040420Y-12485760D01*
X16040420Y-12485760D02*
X16059468Y-12476237D01*
X16059468Y-12476237D02*
X16068991Y-12466713D01*
X16068991Y-12466713D02*
X16078515Y-12447665D01*
X16078515Y-12447665D02*
X16078515Y-12409570D01*
X16078515Y-12409570D02*
X16068991Y-12390522D01*
X16068991Y-12390522D02*
X16059468Y-12380999D01*
X16059468Y-12380999D02*
X16040420Y-12371475D01*
X16316610Y-12485760D02*
X16316610Y-12285760D01*
X16402325Y-12485760D02*
X16402325Y-12380999D01*
X16402325Y-12380999D02*
X16392801Y-12361951D01*
X16392801Y-12361951D02*
X16373753Y-12352427D01*
X16373753Y-12352427D02*
X16345182Y-12352427D01*
X16345182Y-12352427D02*
X16326134Y-12361951D01*
X16326134Y-12361951D02*
X16316610Y-12371475D01*
X16526134Y-12485760D02*
X16507087Y-12476237D01*
X16507087Y-12476237D02*
X16497563Y-12466713D01*
X16497563Y-12466713D02*
X16488039Y-12447665D01*
X16488039Y-12447665D02*
X16488039Y-12390522D01*
X16488039Y-12390522D02*
X16497563Y-12371475D01*
X16497563Y-12371475D02*
X16507087Y-12361951D01*
X16507087Y-12361951D02*
X16526134Y-12352427D01*
X16526134Y-12352427D02*
X16554706Y-12352427D01*
X16554706Y-12352427D02*
X16573753Y-12361951D01*
X16573753Y-12361951D02*
X16583277Y-12371475D01*
X16583277Y-12371475D02*
X16592801Y-12390522D01*
X16592801Y-12390522D02*
X16592801Y-12447665D01*
X16592801Y-12447665D02*
X16583277Y-12466713D01*
X16583277Y-12466713D02*
X16573753Y-12476237D01*
X16573753Y-12476237D02*
X16554706Y-12485760D01*
X16554706Y-12485760D02*
X16526134Y-12485760D01*
X16707087Y-12485760D02*
X16688039Y-12476237D01*
X16688039Y-12476237D02*
X16678515Y-12457189D01*
X16678515Y-12457189D02*
X16678515Y-12285760D01*
X16859468Y-12476237D02*
X16840420Y-12485760D01*
X16840420Y-12485760D02*
X16802325Y-12485760D01*
X16802325Y-12485760D02*
X16783277Y-12476237D01*
X16783277Y-12476237D02*
X16773753Y-12457189D01*
X16773753Y-12457189D02*
X16773753Y-12380999D01*
X16773753Y-12380999D02*
X16783277Y-12361951D01*
X16783277Y-12361951D02*
X16802325Y-12352427D01*
X16802325Y-12352427D02*
X16840420Y-12352427D01*
X16840420Y-12352427D02*
X16859468Y-12361951D01*
X16859468Y-12361951D02*
X16868992Y-12380999D01*
X16868992Y-12380999D02*
X16868992Y-12400046D01*
X16868992Y-12400046D02*
X16773753Y-12419094D01*
X16945182Y-12476237D02*
X16964230Y-12485760D01*
X16964230Y-12485760D02*
X17002325Y-12485760D01*
X17002325Y-12485760D02*
X17021373Y-12476237D01*
X17021373Y-12476237D02*
X17030896Y-12457189D01*
X17030896Y-12457189D02*
X17030896Y-12447665D01*
X17030896Y-12447665D02*
X17021373Y-12428618D01*
X17021373Y-12428618D02*
X17002325Y-12419094D01*
X17002325Y-12419094D02*
X16973753Y-12419094D01*
X16973753Y-12419094D02*
X16954706Y-12409570D01*
X16954706Y-12409570D02*
X16945182Y-12390522D01*
X16945182Y-12390522D02*
X16945182Y-12380999D01*
X16945182Y-12380999D02*
X16954706Y-12361951D01*
X16954706Y-12361951D02*
X16973753Y-12352427D01*
X16973753Y-12352427D02*
X17002325Y-12352427D01*
X17002325Y-12352427D02*
X17021373Y-12361951D01*
X17097563Y-12561951D02*
X17107087Y-12552427D01*
X17107087Y-12552427D02*
X17126134Y-12523856D01*
X17126134Y-12523856D02*
X17135658Y-12504808D01*
X17135658Y-12504808D02*
X17145182Y-12476237D01*
X17145182Y-12476237D02*
X17154706Y-12428618D01*
X17154706Y-12428618D02*
X17154706Y-12390522D01*
X17154706Y-12390522D02*
X17145182Y-12342903D01*
X17145182Y-12342903D02*
X17135658Y-12314332D01*
X17135658Y-12314332D02*
X17126134Y-12295284D01*
X17126134Y-12295284D02*
X17107087Y-12266713D01*
X17107087Y-12266713D02*
X17097563Y-12257189D01*
D12*
X12322500Y-12658277D02*
G75*
G02*
X12222500Y-12658277I-50000J0D01*
G01*
X12222500Y-12658277D02*
G75*
G02*
X12322500Y-12658277I50000J0D01*
G01*
D11*
X12688039Y-12749760D02*
X12573753Y-12749760D01*
X12630896Y-12749760D02*
X12630896Y-12549760D01*
X12630896Y-12549760D02*
X12611848Y-12578332D01*
X12611848Y-12578332D02*
X12592801Y-12597379D01*
X12592801Y-12597379D02*
X12573753Y-12606903D01*
X12773753Y-12730713D02*
X12783277Y-12740237D01*
X12783277Y-12740237D02*
X12773753Y-12749760D01*
X12773753Y-12749760D02*
X12764229Y-12740237D01*
X12764229Y-12740237D02*
X12773753Y-12730713D01*
X12773753Y-12730713D02*
X12773753Y-12749760D01*
X12907086Y-12549760D02*
X12926134Y-12549760D01*
X12926134Y-12549760D02*
X12945182Y-12559284D01*
X12945182Y-12559284D02*
X12954705Y-12568808D01*
X12954705Y-12568808D02*
X12964229Y-12587856D01*
X12964229Y-12587856D02*
X12973753Y-12625951D01*
X12973753Y-12625951D02*
X12973753Y-12673570D01*
X12973753Y-12673570D02*
X12964229Y-12711665D01*
X12964229Y-12711665D02*
X12954705Y-12730713D01*
X12954705Y-12730713D02*
X12945182Y-12740237D01*
X12945182Y-12740237D02*
X12926134Y-12749760D01*
X12926134Y-12749760D02*
X12907086Y-12749760D01*
X12907086Y-12749760D02*
X12888039Y-12740237D01*
X12888039Y-12740237D02*
X12878515Y-12730713D01*
X12878515Y-12730713D02*
X12868991Y-12711665D01*
X12868991Y-12711665D02*
X12859467Y-12673570D01*
X12859467Y-12673570D02*
X12859467Y-12625951D01*
X12859467Y-12625951D02*
X12868991Y-12587856D01*
X12868991Y-12587856D02*
X12878515Y-12568808D01*
X12878515Y-12568808D02*
X12888039Y-12559284D01*
X12888039Y-12559284D02*
X12907086Y-12549760D01*
X13097562Y-12549760D02*
X13116610Y-12549760D01*
X13116610Y-12549760D02*
X13135658Y-12559284D01*
X13135658Y-12559284D02*
X13145182Y-12568808D01*
X13145182Y-12568808D02*
X13154705Y-12587856D01*
X13154705Y-12587856D02*
X13164229Y-12625951D01*
X13164229Y-12625951D02*
X13164229Y-12673570D01*
X13164229Y-12673570D02*
X13154705Y-12711665D01*
X13154705Y-12711665D02*
X13145182Y-12730713D01*
X13145182Y-12730713D02*
X13135658Y-12740237D01*
X13135658Y-12740237D02*
X13116610Y-12749760D01*
X13116610Y-12749760D02*
X13097562Y-12749760D01*
X13097562Y-12749760D02*
X13078515Y-12740237D01*
X13078515Y-12740237D02*
X13068991Y-12730713D01*
X13068991Y-12730713D02*
X13059467Y-12711665D01*
X13059467Y-12711665D02*
X13049943Y-12673570D01*
X13049943Y-12673570D02*
X13049943Y-12625951D01*
X13049943Y-12625951D02*
X13059467Y-12587856D01*
X13059467Y-12587856D02*
X13068991Y-12568808D01*
X13068991Y-12568808D02*
X13078515Y-12559284D01*
X13078515Y-12559284D02*
X13097562Y-12549760D01*
X13288039Y-12549760D02*
X13307086Y-12549760D01*
X13307086Y-12549760D02*
X13326134Y-12559284D01*
X13326134Y-12559284D02*
X13335658Y-12568808D01*
X13335658Y-12568808D02*
X13345182Y-12587856D01*
X13345182Y-12587856D02*
X13354705Y-12625951D01*
X13354705Y-12625951D02*
X13354705Y-12673570D01*
X13354705Y-12673570D02*
X13345182Y-12711665D01*
X13345182Y-12711665D02*
X13335658Y-12730713D01*
X13335658Y-12730713D02*
X13326134Y-12740237D01*
X13326134Y-12740237D02*
X13307086Y-12749760D01*
X13307086Y-12749760D02*
X13288039Y-12749760D01*
X13288039Y-12749760D02*
X13268991Y-12740237D01*
X13268991Y-12740237D02*
X13259467Y-12730713D01*
X13259467Y-12730713D02*
X13249943Y-12711665D01*
X13249943Y-12711665D02*
X13240420Y-12673570D01*
X13240420Y-12673570D02*
X13240420Y-12625951D01*
X13240420Y-12625951D02*
X13249943Y-12587856D01*
X13249943Y-12587856D02*
X13259467Y-12568808D01*
X13259467Y-12568808D02*
X13268991Y-12559284D01*
X13268991Y-12559284D02*
X13288039Y-12549760D01*
X13440420Y-12749760D02*
X13440420Y-12616427D01*
X13440420Y-12635475D02*
X13449943Y-12625951D01*
X13449943Y-12625951D02*
X13468991Y-12616427D01*
X13468991Y-12616427D02*
X13497563Y-12616427D01*
X13497563Y-12616427D02*
X13516610Y-12625951D01*
X13516610Y-12625951D02*
X13526134Y-12644999D01*
X13526134Y-12644999D02*
X13526134Y-12749760D01*
X13526134Y-12644999D02*
X13535658Y-12625951D01*
X13535658Y-12625951D02*
X13554705Y-12616427D01*
X13554705Y-12616427D02*
X13583277Y-12616427D01*
X13583277Y-12616427D02*
X13602324Y-12625951D01*
X13602324Y-12625951D02*
X13611848Y-12644999D01*
X13611848Y-12644999D02*
X13611848Y-12749760D01*
X13707086Y-12749760D02*
X13707086Y-12616427D01*
X13707086Y-12635475D02*
X13716610Y-12625951D01*
X13716610Y-12625951D02*
X13735658Y-12616427D01*
X13735658Y-12616427D02*
X13764229Y-12616427D01*
X13764229Y-12616427D02*
X13783277Y-12625951D01*
X13783277Y-12625951D02*
X13792801Y-12644999D01*
X13792801Y-12644999D02*
X13792801Y-12749760D01*
X13792801Y-12644999D02*
X13802324Y-12625951D01*
X13802324Y-12625951D02*
X13821372Y-12616427D01*
X13821372Y-12616427D02*
X13849943Y-12616427D01*
X13849943Y-12616427D02*
X13868991Y-12625951D01*
X13868991Y-12625951D02*
X13878515Y-12644999D01*
X13878515Y-12644999D02*
X13878515Y-12749760D01*
X14268991Y-12540237D02*
X14097563Y-12797379D01*
X14526134Y-12549760D02*
X14545182Y-12549760D01*
X14545182Y-12549760D02*
X14564229Y-12559284D01*
X14564229Y-12559284D02*
X14573753Y-12568808D01*
X14573753Y-12568808D02*
X14583277Y-12587856D01*
X14583277Y-12587856D02*
X14592801Y-12625951D01*
X14592801Y-12625951D02*
X14592801Y-12673570D01*
X14592801Y-12673570D02*
X14583277Y-12711665D01*
X14583277Y-12711665D02*
X14573753Y-12730713D01*
X14573753Y-12730713D02*
X14564229Y-12740237D01*
X14564229Y-12740237D02*
X14545182Y-12749760D01*
X14545182Y-12749760D02*
X14526134Y-12749760D01*
X14526134Y-12749760D02*
X14507086Y-12740237D01*
X14507086Y-12740237D02*
X14497563Y-12730713D01*
X14497563Y-12730713D02*
X14488039Y-12711665D01*
X14488039Y-12711665D02*
X14478515Y-12673570D01*
X14478515Y-12673570D02*
X14478515Y-12625951D01*
X14478515Y-12625951D02*
X14488039Y-12587856D01*
X14488039Y-12587856D02*
X14497563Y-12568808D01*
X14497563Y-12568808D02*
X14507086Y-12559284D01*
X14507086Y-12559284D02*
X14526134Y-12549760D01*
X14678515Y-12730713D02*
X14688039Y-12740237D01*
X14688039Y-12740237D02*
X14678515Y-12749760D01*
X14678515Y-12749760D02*
X14668991Y-12740237D01*
X14668991Y-12740237D02*
X14678515Y-12730713D01*
X14678515Y-12730713D02*
X14678515Y-12749760D01*
X14811848Y-12549760D02*
X14830896Y-12549760D01*
X14830896Y-12549760D02*
X14849944Y-12559284D01*
X14849944Y-12559284D02*
X14859467Y-12568808D01*
X14859467Y-12568808D02*
X14868991Y-12587856D01*
X14868991Y-12587856D02*
X14878515Y-12625951D01*
X14878515Y-12625951D02*
X14878515Y-12673570D01*
X14878515Y-12673570D02*
X14868991Y-12711665D01*
X14868991Y-12711665D02*
X14859467Y-12730713D01*
X14859467Y-12730713D02*
X14849944Y-12740237D01*
X14849944Y-12740237D02*
X14830896Y-12749760D01*
X14830896Y-12749760D02*
X14811848Y-12749760D01*
X14811848Y-12749760D02*
X14792801Y-12740237D01*
X14792801Y-12740237D02*
X14783277Y-12730713D01*
X14783277Y-12730713D02*
X14773753Y-12711665D01*
X14773753Y-12711665D02*
X14764229Y-12673570D01*
X14764229Y-12673570D02*
X14764229Y-12625951D01*
X14764229Y-12625951D02*
X14773753Y-12587856D01*
X14773753Y-12587856D02*
X14783277Y-12568808D01*
X14783277Y-12568808D02*
X14792801Y-12559284D01*
X14792801Y-12559284D02*
X14811848Y-12549760D01*
X14945182Y-12549760D02*
X15068991Y-12549760D01*
X15068991Y-12549760D02*
X15002325Y-12625951D01*
X15002325Y-12625951D02*
X15030896Y-12625951D01*
X15030896Y-12625951D02*
X15049944Y-12635475D01*
X15049944Y-12635475D02*
X15059467Y-12644999D01*
X15059467Y-12644999D02*
X15068991Y-12664046D01*
X15068991Y-12664046D02*
X15068991Y-12711665D01*
X15068991Y-12711665D02*
X15059467Y-12730713D01*
X15059467Y-12730713D02*
X15049944Y-12740237D01*
X15049944Y-12740237D02*
X15030896Y-12749760D01*
X15030896Y-12749760D02*
X14973753Y-12749760D01*
X14973753Y-12749760D02*
X14954706Y-12740237D01*
X14954706Y-12740237D02*
X14945182Y-12730713D01*
X15164229Y-12749760D02*
X15202325Y-12749760D01*
X15202325Y-12749760D02*
X15221372Y-12740237D01*
X15221372Y-12740237D02*
X15230896Y-12730713D01*
X15230896Y-12730713D02*
X15249944Y-12702141D01*
X15249944Y-12702141D02*
X15259467Y-12664046D01*
X15259467Y-12664046D02*
X15259467Y-12587856D01*
X15259467Y-12587856D02*
X15249944Y-12568808D01*
X15249944Y-12568808D02*
X15240420Y-12559284D01*
X15240420Y-12559284D02*
X15221372Y-12549760D01*
X15221372Y-12549760D02*
X15183277Y-12549760D01*
X15183277Y-12549760D02*
X15164229Y-12559284D01*
X15164229Y-12559284D02*
X15154706Y-12568808D01*
X15154706Y-12568808D02*
X15145182Y-12587856D01*
X15145182Y-12587856D02*
X15145182Y-12635475D01*
X15145182Y-12635475D02*
X15154706Y-12654522D01*
X15154706Y-12654522D02*
X15164229Y-12664046D01*
X15164229Y-12664046D02*
X15183277Y-12673570D01*
X15183277Y-12673570D02*
X15221372Y-12673570D01*
X15221372Y-12673570D02*
X15240420Y-12664046D01*
X15240420Y-12664046D02*
X15249944Y-12654522D01*
X15249944Y-12654522D02*
X15259467Y-12635475D01*
X15430896Y-12616427D02*
X15430896Y-12749760D01*
X15383277Y-12540237D02*
X15335658Y-12683094D01*
X15335658Y-12683094D02*
X15459467Y-12683094D01*
X15526134Y-12549760D02*
X15526134Y-12587856D01*
X15602325Y-12549760D02*
X15602325Y-12587856D01*
X15897563Y-12825951D02*
X15888039Y-12816427D01*
X15888039Y-12816427D02*
X15868991Y-12787856D01*
X15868991Y-12787856D02*
X15859468Y-12768808D01*
X15859468Y-12768808D02*
X15849944Y-12740237D01*
X15849944Y-12740237D02*
X15840420Y-12692618D01*
X15840420Y-12692618D02*
X15840420Y-12654522D01*
X15840420Y-12654522D02*
X15849944Y-12606903D01*
X15849944Y-12606903D02*
X15859468Y-12578332D01*
X15859468Y-12578332D02*
X15868991Y-12559284D01*
X15868991Y-12559284D02*
X15888039Y-12530713D01*
X15888039Y-12530713D02*
X15897563Y-12521189D01*
X16078515Y-12749760D02*
X15964229Y-12749760D01*
X16021372Y-12749760D02*
X16021372Y-12549760D01*
X16021372Y-12549760D02*
X16002325Y-12578332D01*
X16002325Y-12578332D02*
X15983277Y-12597379D01*
X15983277Y-12597379D02*
X15964229Y-12606903D01*
X16202325Y-12549760D02*
X16221372Y-12549760D01*
X16221372Y-12549760D02*
X16240420Y-12559284D01*
X16240420Y-12559284D02*
X16249944Y-12568808D01*
X16249944Y-12568808D02*
X16259468Y-12587856D01*
X16259468Y-12587856D02*
X16268991Y-12625951D01*
X16268991Y-12625951D02*
X16268991Y-12673570D01*
X16268991Y-12673570D02*
X16259468Y-12711665D01*
X16259468Y-12711665D02*
X16249944Y-12730713D01*
X16249944Y-12730713D02*
X16240420Y-12740237D01*
X16240420Y-12740237D02*
X16221372Y-12749760D01*
X16221372Y-12749760D02*
X16202325Y-12749760D01*
X16202325Y-12749760D02*
X16183277Y-12740237D01*
X16183277Y-12740237D02*
X16173753Y-12730713D01*
X16173753Y-12730713D02*
X16164229Y-12711665D01*
X16164229Y-12711665D02*
X16154706Y-12673570D01*
X16154706Y-12673570D02*
X16154706Y-12625951D01*
X16154706Y-12625951D02*
X16164229Y-12587856D01*
X16164229Y-12587856D02*
X16173753Y-12568808D01*
X16173753Y-12568808D02*
X16183277Y-12559284D01*
X16183277Y-12559284D02*
X16202325Y-12549760D01*
X16507087Y-12749760D02*
X16507087Y-12549760D01*
X16592801Y-12749760D02*
X16592801Y-12644999D01*
X16592801Y-12644999D02*
X16583277Y-12625951D01*
X16583277Y-12625951D02*
X16564230Y-12616427D01*
X16564230Y-12616427D02*
X16535658Y-12616427D01*
X16535658Y-12616427D02*
X16516610Y-12625951D01*
X16516610Y-12625951D02*
X16507087Y-12635475D01*
X16716610Y-12749760D02*
X16697563Y-12740237D01*
X16697563Y-12740237D02*
X16688039Y-12730713D01*
X16688039Y-12730713D02*
X16678515Y-12711665D01*
X16678515Y-12711665D02*
X16678515Y-12654522D01*
X16678515Y-12654522D02*
X16688039Y-12635475D01*
X16688039Y-12635475D02*
X16697563Y-12625951D01*
X16697563Y-12625951D02*
X16716610Y-12616427D01*
X16716610Y-12616427D02*
X16745182Y-12616427D01*
X16745182Y-12616427D02*
X16764230Y-12625951D01*
X16764230Y-12625951D02*
X16773753Y-12635475D01*
X16773753Y-12635475D02*
X16783277Y-12654522D01*
X16783277Y-12654522D02*
X16783277Y-12711665D01*
X16783277Y-12711665D02*
X16773753Y-12730713D01*
X16773753Y-12730713D02*
X16764230Y-12740237D01*
X16764230Y-12740237D02*
X16745182Y-12749760D01*
X16745182Y-12749760D02*
X16716610Y-12749760D01*
X16897563Y-12749760D02*
X16878515Y-12740237D01*
X16878515Y-12740237D02*
X16868992Y-12721189D01*
X16868992Y-12721189D02*
X16868992Y-12549760D01*
X17049944Y-12740237D02*
X17030896Y-12749760D01*
X17030896Y-12749760D02*
X16992801Y-12749760D01*
X16992801Y-12749760D02*
X16973753Y-12740237D01*
X16973753Y-12740237D02*
X16964230Y-12721189D01*
X16964230Y-12721189D02*
X16964230Y-12644999D01*
X16964230Y-12644999D02*
X16973753Y-12625951D01*
X16973753Y-12625951D02*
X16992801Y-12616427D01*
X16992801Y-12616427D02*
X17030896Y-12616427D01*
X17030896Y-12616427D02*
X17049944Y-12625951D01*
X17049944Y-12625951D02*
X17059468Y-12644999D01*
X17059468Y-12644999D02*
X17059468Y-12664046D01*
X17059468Y-12664046D02*
X16964230Y-12683094D01*
X17135658Y-12740237D02*
X17154706Y-12749760D01*
X17154706Y-12749760D02*
X17192801Y-12749760D01*
X17192801Y-12749760D02*
X17211849Y-12740237D01*
X17211849Y-12740237D02*
X17221373Y-12721189D01*
X17221373Y-12721189D02*
X17221373Y-12711665D01*
X17221373Y-12711665D02*
X17211849Y-12692618D01*
X17211849Y-12692618D02*
X17192801Y-12683094D01*
X17192801Y-12683094D02*
X17164230Y-12683094D01*
X17164230Y-12683094D02*
X17145182Y-12673570D01*
X17145182Y-12673570D02*
X17135658Y-12654522D01*
X17135658Y-12654522D02*
X17135658Y-12644999D01*
X17135658Y-12644999D02*
X17145182Y-12625951D01*
X17145182Y-12625951D02*
X17164230Y-12616427D01*
X17164230Y-12616427D02*
X17192801Y-12616427D01*
X17192801Y-12616427D02*
X17211849Y-12625951D01*
X17288039Y-12825951D02*
X17297563Y-12816427D01*
X17297563Y-12816427D02*
X17316611Y-12787856D01*
X17316611Y-12787856D02*
X17326134Y-12768808D01*
X17326134Y-12768808D02*
X17335658Y-12740237D01*
X17335658Y-12740237D02*
X17345182Y-12692618D01*
X17345182Y-12692618D02*
X17345182Y-12654522D01*
X17345182Y-12654522D02*
X17335658Y-12606903D01*
X17335658Y-12606903D02*
X17326134Y-12578332D01*
X17326134Y-12578332D02*
X17316611Y-12559284D01*
X17316611Y-12559284D02*
X17297563Y-12530713D01*
X17297563Y-12530713D02*
X17288039Y-12521189D01*
M02*
