M48
; DRILL file {KiCad 8.0.5} date 2024-11-27T14:41:54+0100
; FORMAT={-:-/ absolute / metric / decimal}
; #@! TF.CreationDate,2024-11-27T14:41:54+01:00
; #@! TF.GenerationSoftware,Kicad,Pcbnew,8.0.5
; #@! TF.FileFunction,Plated,1,2,PTH
FMAT,2
METRIC
; #@! TA.AperFunction,Plated,PTH,ViaDrill
T1C0.800
; #@! TA.AperFunction,Plated,PTH,ComponentDrill
T2C1.000
%
G90
G05
T1
X163.0Y-114.75
X163.75Y-117.25
X164.1Y-107.6
X166.0Y-117.5
X167.5Y-110.7
X168.55Y-106.633
X169.5Y-102.5
X170.25Y-106.0
X171.5Y-96.5
X171.715Y-97.915
X172.0Y-108.25
X174.5Y-107.5
X175.864Y-107.182
X176.035Y-95.45
X176.75Y-89.75
X176.75Y-91.995
X177.2Y-98.75
X177.75Y-95.45
X177.9Y-90.945
X178.25Y-97.55
X179.25Y-110.0
X179.5Y-98.6
X181.5Y-106.75
X182.0Y-102.5
X185.75Y-96.5
X188.39Y-96.75
X188.75Y-102.5
X189.0Y-98.5
T2
X170.16Y-114.7
X170.16Y-117.24
X172.7Y-114.7
X172.7Y-117.24
X175.24Y-114.7
X175.24Y-117.24
X177.78Y-114.7
X177.78Y-117.24
X180.32Y-114.7
X180.32Y-117.24
M30
