%TF.GenerationSoftware,KiCad,Pcbnew,8.0.5*%
%TF.CreationDate,2024-11-27T14:49:20+01:00*%
%TF.ProjectId,PCB_TOF_droit,5043425f-544f-4465-9f64-726f69742e6b,rev?*%
%TF.SameCoordinates,Original*%
%TF.FileFunction,Copper,L1,Top*%
%TF.FilePolarity,Positive*%
%FSLAX46Y46*%
G04 Gerber Fmt 4.6, Leading zero omitted, Abs format (unit mm)*
G04 Created by KiCad (PCBNEW 8.0.5) date 2024-11-27 14:49:20*
%MOMM*%
%LPD*%
G01*
G04 APERTURE LIST*
G04 Aperture macros list*
%AMRoundRect*
0 Rectangle with rounded corners*
0 $1 Rounding radius*
0 $2 $3 $4 $5 $6 $7 $8 $9 X,Y pos of 4 corners*
0 Add a 4 corners polygon primitive as box body*
4,1,4,$2,$3,$4,$5,$6,$7,$8,$9,$2,$3,0*
0 Add four circle primitives for the rounded corners*
1,1,$1+$1,$2,$3*
1,1,$1+$1,$4,$5*
1,1,$1+$1,$6,$7*
1,1,$1+$1,$8,$9*
0 Add four rect primitives between the rounded corners*
20,1,$1+$1,$2,$3,$4,$5,0*
20,1,$1+$1,$4,$5,$6,$7,0*
20,1,$1+$1,$6,$7,$8,$9,0*
20,1,$1+$1,$8,$9,$2,$3,0*%
G04 Aperture macros list end*
%TA.AperFunction,SMDPad,CuDef*%
%ADD10RoundRect,0.160000X-0.197500X-0.160000X0.197500X-0.160000X0.197500X0.160000X-0.197500X0.160000X0*%
%TD*%
%TA.AperFunction,SMDPad,CuDef*%
%ADD11RoundRect,0.160000X0.197500X0.160000X-0.197500X0.160000X-0.197500X-0.160000X0.197500X-0.160000X0*%
%TD*%
%TA.AperFunction,SMDPad,CuDef*%
%ADD12RoundRect,0.237500X0.287500X0.237500X-0.287500X0.237500X-0.287500X-0.237500X0.287500X-0.237500X0*%
%TD*%
%TA.AperFunction,SMDPad,CuDef*%
%ADD13R,2.790000X0.740000*%
%TD*%
%TA.AperFunction,SMDPad,CuDef*%
%ADD14RoundRect,0.237500X-0.287500X-0.237500X0.287500X-0.237500X0.287500X0.237500X-0.287500X0.237500X0*%
%TD*%
%TA.AperFunction,ComponentPad*%
%ADD15R,1.508000X1.508000*%
%TD*%
%TA.AperFunction,ComponentPad*%
%ADD16C,1.508000*%
%TD*%
%TA.AperFunction,ViaPad*%
%ADD17C,1.200000*%
%TD*%
%TA.AperFunction,Conductor*%
%ADD18C,0.500000*%
%TD*%
G04 APERTURE END LIST*
D10*
%TO.P,R1,1*%
%TO.N,Net-(D1-A)*%
X156612500Y-79110000D03*
%TO.P,R1,2*%
%TO.N,/TOF_GPIO*%
X157807500Y-79110000D03*
%TD*%
D11*
%TO.P,R2,1*%
%TO.N,Net-(D2-A)*%
X164807500Y-79110000D03*
%TO.P,R2,2*%
%TO.N,/TOF_XSHUT*%
X163612500Y-79110000D03*
%TD*%
D12*
%TO.P,D2,1,K*%
%TO.N,GND*%
X170585000Y-79110000D03*
%TO.P,D2,2,A*%
%TO.N,Net-(D2-A)*%
X168835000Y-79110000D03*
%TD*%
D13*
%TO.P,J1,01,01*%
%TO.N,unconnected-(J1-Pad01)*%
X162745000Y-87650000D03*
%TO.P,J1,02,02*%
%TO.N,unconnected-(J1-Pad02)*%
X158675000Y-87650000D03*
%TO.P,J1,03,03*%
%TO.N,unconnected-(J1-Pad03)*%
X162745000Y-86380000D03*
%TO.P,J1,04,04*%
%TO.N,unconnected-(J1-Pad04)*%
X158675000Y-86380000D03*
%TO.P,J1,05,05*%
%TO.N,+5V*%
X162745000Y-85110000D03*
%TO.P,J1,06,06*%
%TO.N,GND*%
X158675000Y-85110000D03*
%TO.P,J1,07,07*%
%TO.N,/TOF_XSHUT*%
X162745000Y-83840000D03*
%TO.P,J1,08,08*%
%TO.N,/I2C_SDA*%
X158675000Y-83840000D03*
%TO.P,J1,09,09*%
%TO.N,/TOF_GPIO*%
X162745000Y-82570000D03*
%TO.P,J1,10,10*%
%TO.N,/I2C_SCL*%
X158675000Y-82570000D03*
%TD*%
D14*
%TO.P,D1,1,K*%
%TO.N,GND*%
X153085000Y-79110000D03*
%TO.P,D1,2,A*%
%TO.N,Net-(D1-A)*%
X154835000Y-79110000D03*
%TD*%
D15*
%TO.P,U1,1,INT_I*%
%TO.N,/TOF_GPIO*%
X155380000Y-103000000D03*
D16*
%TO.P,U1,2,SCL_I*%
%TO.N,/I2C_SCL*%
X155380000Y-100460000D03*
%TO.P,U1,3,XSDN_I*%
%TO.N,/TOF_XSHUT*%
X157920000Y-103000000D03*
%TO.P,U1,4,SDA_I*%
%TO.N,/I2C_SDA*%
X157920000Y-100460000D03*
%TO.P,U1,5,VDD*%
%TO.N,+5V*%
X160460000Y-103000000D03*
%TO.P,U1,6,GND*%
%TO.N,GND*%
X160460000Y-100460000D03*
%TO.P,U1,7,NC*%
%TO.N,unconnected-(U1-NC-Pad7)*%
X163000000Y-103000000D03*
%TO.P,U1,8,NC*%
%TO.N,unconnected-(U1-NC-Pad8)*%
X163000000Y-100460000D03*
%TO.P,U1,9,NC1_I*%
%TO.N,unconnected-(U1-NC1_I-Pad9)*%
X165540000Y-103000000D03*
%TO.P,U1,10,NC0_I*%
%TO.N,unconnected-(U1-NC0_I-Pad10)*%
X165540000Y-100460000D03*
%TD*%
D17*
%TO.N,GND*%
X153460000Y-94360000D03*
X148660000Y-95360000D03*
%TO.N,+5V*%
X166760000Y-94860000D03*
X166760000Y-87360000D03*
%TO.N,/TOF_GPIO*%
X160960000Y-78860000D03*
X170250000Y-83500000D03*
%TD*%
D18*
%TO.N,GND*%
X154385000Y-77810000D02*
X153085000Y-79110000D01*
X155426317Y-94360000D02*
X153460000Y-94360000D01*
X169285000Y-77810000D02*
X154385000Y-77810000D01*
X157280000Y-85110000D02*
X153460000Y-88930000D01*
X148660000Y-95360000D02*
X148660000Y-83535000D01*
X160460000Y-100460000D02*
X160460000Y-99393683D01*
X160460000Y-99393683D02*
X155426317Y-94360000D01*
X148660000Y-83535000D02*
X153085000Y-79110000D01*
X170585000Y-79110000D02*
X169285000Y-77810000D01*
X153460000Y-88930000D02*
X153460000Y-94360000D01*
X158675000Y-85110000D02*
X157280000Y-85110000D01*
%TO.N,Net-(D1-A)*%
X156612500Y-79110000D02*
X154835000Y-79110000D01*
%TO.N,Net-(D2-A)*%
X164807500Y-79110000D02*
X168835000Y-79110000D01*
%TO.N,+5V*%
X162745000Y-85110000D02*
X164510000Y-85110000D01*
X162050000Y-104800000D02*
X168200000Y-104800000D01*
X170250000Y-102750000D02*
X170250000Y-98500000D01*
X160460000Y-103210000D02*
X162050000Y-104800000D01*
X164510000Y-85110000D02*
X166760000Y-87360000D01*
X166760000Y-95010000D02*
X166760000Y-94860000D01*
X160460000Y-103000000D02*
X160460000Y-103210000D01*
X170250000Y-98500000D02*
X166760000Y-95010000D01*
X168200000Y-104800000D02*
X170250000Y-102750000D01*
%TO.N,/TOF_GPIO*%
X159285000Y-79110000D02*
X157807500Y-79110000D01*
X169250000Y-106750000D02*
X156500000Y-106750000D01*
X170250000Y-83500000D02*
X170250000Y-85354925D01*
X173000000Y-88104925D02*
X173000000Y-103000000D01*
X155380000Y-105630000D02*
X155380000Y-103000000D01*
X162745000Y-82570000D02*
X159285000Y-79110000D01*
X170250000Y-85354925D02*
X173000000Y-88104925D01*
X162745000Y-80645000D02*
X160960000Y-78860000D01*
X162745000Y-82570000D02*
X162745000Y-80645000D01*
X173000000Y-103000000D02*
X169250000Y-106750000D01*
X156500000Y-106750000D02*
X155380000Y-105630000D01*
%TO.N,/I2C_SCL*%
X151710000Y-87640000D02*
X151710000Y-96790000D01*
X158675000Y-82570000D02*
X156780000Y-82570000D01*
X151710000Y-96790000D02*
X155380000Y-100460000D01*
X156780000Y-82570000D02*
X151710000Y-87640000D01*
%TO.N,/I2C_SDA*%
X156780000Y-83840000D02*
X152410000Y-88210000D01*
X152410000Y-88210000D02*
X152410000Y-95160000D01*
X158675000Y-83840000D02*
X156780000Y-83840000D01*
X157710000Y-100460000D02*
X157920000Y-100460000D01*
X152410000Y-95160000D02*
X157710000Y-100460000D01*
%TO.N,/TOF_XSHUT*%
X159000000Y-105500000D02*
X168750000Y-105500000D01*
X164835000Y-83735000D02*
X164730000Y-83840000D01*
X162745000Y-83840000D02*
X164730000Y-83840000D01*
X171750000Y-88040000D02*
X165710000Y-82000000D01*
X165710000Y-82000000D02*
X165710000Y-81610000D01*
X163612500Y-79512500D02*
X163612500Y-79110000D01*
X171750000Y-102500000D02*
X171750000Y-88040000D01*
X157920000Y-104420000D02*
X159000000Y-105500000D01*
X165710000Y-81610000D02*
X163612500Y-79512500D01*
X164835000Y-83735000D02*
X165710000Y-82860000D01*
X165710000Y-82860000D02*
X165710000Y-82000000D01*
X168750000Y-105500000D02*
X171750000Y-102500000D01*
X157920000Y-103000000D02*
X157920000Y-104420000D01*
%TD*%
%TA.AperFunction,Conductor*%
%TO.N,GND*%
G36*
X172254043Y-72000765D02*
G01*
X172502895Y-72017075D01*
X172518953Y-72019190D01*
X172726105Y-72060395D01*
X172759535Y-72067045D01*
X172775202Y-72071243D01*
X172944947Y-72128863D01*
X173007481Y-72150091D01*
X173022458Y-72156294D01*
X173231799Y-72259529D01*
X173242460Y-72264787D01*
X173256508Y-72272897D01*
X173460464Y-72409177D01*
X173473328Y-72419048D01*
X173657749Y-72580781D01*
X173669218Y-72592250D01*
X173830951Y-72776671D01*
X173840825Y-72789539D01*
X173977102Y-72993492D01*
X173985212Y-73007539D01*
X174093702Y-73227534D01*
X174099909Y-73242520D01*
X174178756Y-73474797D01*
X174182954Y-73490464D01*
X174230807Y-73731035D01*
X174232925Y-73747116D01*
X174249235Y-73995956D01*
X174249500Y-74004066D01*
X174249500Y-105495933D01*
X174249235Y-105504043D01*
X174232925Y-105752883D01*
X174230807Y-105768964D01*
X174182954Y-106009535D01*
X174178756Y-106025202D01*
X174099909Y-106257479D01*
X174093702Y-106272465D01*
X173985212Y-106492460D01*
X173977102Y-106506507D01*
X173840825Y-106710460D01*
X173830951Y-106723328D01*
X173669218Y-106907749D01*
X173657749Y-106919218D01*
X173473328Y-107080951D01*
X173460460Y-107090825D01*
X173256507Y-107227102D01*
X173242460Y-107235212D01*
X173022465Y-107343702D01*
X173007479Y-107349909D01*
X172775202Y-107428756D01*
X172759535Y-107432954D01*
X172518964Y-107480807D01*
X172502883Y-107482925D01*
X172254043Y-107499235D01*
X172245933Y-107499500D01*
X169861230Y-107499500D01*
X169794191Y-107479815D01*
X169748436Y-107427011D01*
X169738492Y-107357853D01*
X169767517Y-107294297D01*
X169773549Y-107287819D01*
X171627260Y-105434108D01*
X173582952Y-103478416D01*
X173632186Y-103404729D01*
X173665084Y-103355495D01*
X173721658Y-103218913D01*
X173750500Y-103073918D01*
X173750500Y-88031007D01*
X173750500Y-88031004D01*
X173721659Y-87886017D01*
X173721658Y-87886016D01*
X173721658Y-87886012D01*
X173669152Y-87759250D01*
X173665087Y-87749436D01*
X173665080Y-87749423D01*
X173582952Y-87626510D01*
X173582951Y-87626509D01*
X173478416Y-87521974D01*
X172258309Y-86301867D01*
X171036819Y-85080376D01*
X171003334Y-85019053D01*
X171000500Y-84992695D01*
X171000500Y-84359738D01*
X171020185Y-84292699D01*
X171040962Y-84268101D01*
X171052191Y-84257864D01*
X171066764Y-84244579D01*
X171189673Y-84081821D01*
X171280582Y-83899250D01*
X171336397Y-83703083D01*
X171355215Y-83500000D01*
X171336397Y-83296917D01*
X171280582Y-83100750D01*
X171254058Y-83047483D01*
X171224372Y-82987864D01*
X171189673Y-82918179D01*
X171066764Y-82755421D01*
X171066762Y-82755418D01*
X170916041Y-82618019D01*
X170916039Y-82618017D01*
X170742642Y-82510655D01*
X170742635Y-82510651D01*
X170647546Y-82473814D01*
X170552456Y-82436976D01*
X170351976Y-82399500D01*
X170148024Y-82399500D01*
X169947544Y-82436976D01*
X169947541Y-82436976D01*
X169947541Y-82436977D01*
X169757364Y-82510651D01*
X169757357Y-82510655D01*
X169583960Y-82618017D01*
X169583958Y-82618019D01*
X169433237Y-82755418D01*
X169310327Y-82918178D01*
X169219422Y-83100739D01*
X169219417Y-83100752D01*
X169163602Y-83296917D01*
X169144785Y-83499999D01*
X169144785Y-83500000D01*
X169163602Y-83703082D01*
X169219417Y-83899247D01*
X169219422Y-83899260D01*
X169310327Y-84081821D01*
X169433237Y-84244580D01*
X169459038Y-84268101D01*
X169495320Y-84327812D01*
X169499500Y-84359738D01*
X169499500Y-84428770D01*
X169479815Y-84495809D01*
X169427011Y-84541564D01*
X169357853Y-84551508D01*
X169294297Y-84522483D01*
X169287819Y-84516451D01*
X166496819Y-81725451D01*
X166463334Y-81664128D01*
X166460500Y-81637770D01*
X166460500Y-81536079D01*
X166431659Y-81391092D01*
X166431658Y-81391091D01*
X166431658Y-81391087D01*
X166375084Y-81254505D01*
X166342186Y-81205270D01*
X166342185Y-81205268D01*
X166292956Y-81131589D01*
X166292952Y-81131584D01*
X165239609Y-80078241D01*
X165206124Y-80016918D01*
X165211108Y-79947226D01*
X165252980Y-79891293D01*
X165276399Y-79877484D01*
X165278064Y-79876734D01*
X165278069Y-79876733D01*
X165278072Y-79876730D01*
X165284909Y-79873654D01*
X165285733Y-79875485D01*
X165339489Y-79860500D01*
X167965448Y-79860500D01*
X168032487Y-79880185D01*
X168053129Y-79896819D01*
X168086650Y-79930340D01*
X168233484Y-80020908D01*
X168397247Y-80075174D01*
X168498323Y-80085500D01*
X169171676Y-80085499D01*
X169171684Y-80085498D01*
X169171687Y-80085498D01*
X169242728Y-80078241D01*
X169272753Y-80075174D01*
X169436516Y-80020908D01*
X169583350Y-79930340D01*
X169622673Y-79891016D01*
X169683994Y-79857532D01*
X169753685Y-79862516D01*
X169798034Y-79891017D01*
X169836961Y-79929944D01*
X169836965Y-79929947D01*
X169983688Y-80020448D01*
X169983699Y-80020453D01*
X170147347Y-80074680D01*
X170248351Y-80084999D01*
X170835000Y-80084999D01*
X170921640Y-80084999D01*
X170921654Y-80084998D01*
X171022652Y-80074680D01*
X171186300Y-80020453D01*
X171186311Y-80020448D01*
X171333034Y-79929947D01*
X171333038Y-79929944D01*
X171454944Y-79808038D01*
X171454947Y-79808034D01*
X171545448Y-79661311D01*
X171545453Y-79661300D01*
X171599680Y-79497652D01*
X171609999Y-79396654D01*
X171610000Y-79396641D01*
X171610000Y-79360000D01*
X170835000Y-79360000D01*
X170835000Y-80084999D01*
X170248351Y-80084999D01*
X170335000Y-80084998D01*
X170335000Y-78860000D01*
X170835000Y-78860000D01*
X171609999Y-78860000D01*
X171609999Y-78823360D01*
X171609998Y-78823345D01*
X171599680Y-78722347D01*
X171545453Y-78558699D01*
X171545448Y-78558688D01*
X171454947Y-78411965D01*
X171454944Y-78411961D01*
X171333038Y-78290055D01*
X171333034Y-78290052D01*
X171186311Y-78199551D01*
X171186300Y-78199546D01*
X171022652Y-78145319D01*
X170921654Y-78135000D01*
X170835000Y-78135000D01*
X170835000Y-78860000D01*
X170335000Y-78860000D01*
X170335000Y-78135000D01*
X170334999Y-78134999D01*
X170248360Y-78135000D01*
X170248343Y-78135001D01*
X170147347Y-78145319D01*
X169983699Y-78199546D01*
X169983688Y-78199551D01*
X169836965Y-78290052D01*
X169836961Y-78290055D01*
X169798033Y-78328983D01*
X169736710Y-78362468D01*
X169667018Y-78357482D01*
X169622672Y-78328982D01*
X169583351Y-78289661D01*
X169583350Y-78289660D01*
X169492129Y-78233395D01*
X169436518Y-78199093D01*
X169436513Y-78199091D01*
X169435069Y-78198612D01*
X169272753Y-78144826D01*
X169272751Y-78144825D01*
X169171678Y-78134500D01*
X168498330Y-78134500D01*
X168498312Y-78134501D01*
X168397247Y-78144825D01*
X168233484Y-78199092D01*
X168233481Y-78199093D01*
X168086648Y-78289661D01*
X168053129Y-78323181D01*
X167991806Y-78356666D01*
X167965448Y-78359500D01*
X165339489Y-78359500D01*
X165285731Y-78344514D01*
X165284908Y-78346345D01*
X165278066Y-78343265D01*
X165124933Y-78295548D01*
X165124935Y-78295548D01*
X165098312Y-78293128D01*
X165058381Y-78289500D01*
X165058378Y-78289500D01*
X164556611Y-78289500D01*
X164490073Y-78295546D01*
X164490066Y-78295548D01*
X164336933Y-78343265D01*
X164336929Y-78343267D01*
X164274149Y-78381219D01*
X164206594Y-78399055D01*
X164145851Y-78381219D01*
X164083070Y-78343267D01*
X164083066Y-78343265D01*
X163929933Y-78295548D01*
X163929935Y-78295548D01*
X163903312Y-78293128D01*
X163863381Y-78289500D01*
X163863378Y-78289500D01*
X163361611Y-78289500D01*
X163295073Y-78295546D01*
X163295066Y-78295548D01*
X163141933Y-78343265D01*
X163141929Y-78343267D01*
X163004670Y-78426242D01*
X163004665Y-78426246D01*
X162891246Y-78539665D01*
X162891242Y-78539670D01*
X162808267Y-78676929D01*
X162808265Y-78676933D01*
X162760548Y-78830065D01*
X162754500Y-78896621D01*
X162754500Y-79293771D01*
X162734815Y-79360810D01*
X162682011Y-79406565D01*
X162612853Y-79416509D01*
X162549297Y-79387484D01*
X162542819Y-79381452D01*
X162455138Y-79293771D01*
X162101351Y-78939983D01*
X162067866Y-78878660D01*
X162065561Y-78863743D01*
X162065214Y-78860004D01*
X162065215Y-78860000D01*
X162046397Y-78656917D01*
X161990582Y-78460750D01*
X161982696Y-78444913D01*
X161922081Y-78323181D01*
X161899673Y-78278179D01*
X161791550Y-78135001D01*
X161776762Y-78115418D01*
X161626041Y-77978019D01*
X161626039Y-77978017D01*
X161452642Y-77870655D01*
X161452635Y-77870651D01*
X161357546Y-77833814D01*
X161262456Y-77796976D01*
X161061976Y-77759500D01*
X160858024Y-77759500D01*
X160657544Y-77796976D01*
X160657541Y-77796976D01*
X160657541Y-77796977D01*
X160467364Y-77870651D01*
X160467357Y-77870655D01*
X160293960Y-77978017D01*
X160293958Y-77978019D01*
X160143237Y-78115418D01*
X160020327Y-78278178D01*
X159926862Y-78465882D01*
X159924903Y-78464906D01*
X159888170Y-78512687D01*
X159822397Y-78536262D01*
X159754321Y-78520536D01*
X159746256Y-78515582D01*
X159664192Y-78460750D01*
X159640495Y-78444916D01*
X159640493Y-78444915D01*
X159640490Y-78444913D01*
X159503917Y-78388343D01*
X159503907Y-78388340D01*
X159358920Y-78359500D01*
X159358918Y-78359500D01*
X158339489Y-78359500D01*
X158285731Y-78344514D01*
X158284908Y-78346345D01*
X158278066Y-78343265D01*
X158124933Y-78295548D01*
X158124935Y-78295548D01*
X158098312Y-78293128D01*
X158058381Y-78289500D01*
X158058378Y-78289500D01*
X157556611Y-78289500D01*
X157490073Y-78295546D01*
X157490066Y-78295548D01*
X157336933Y-78343265D01*
X157336929Y-78343267D01*
X157274149Y-78381219D01*
X157206594Y-78399055D01*
X157145851Y-78381219D01*
X157083070Y-78343267D01*
X157083066Y-78343265D01*
X156929933Y-78295548D01*
X156929935Y-78295548D01*
X156903312Y-78293128D01*
X156863381Y-78289500D01*
X156863378Y-78289500D01*
X156361611Y-78289500D01*
X156295073Y-78295546D01*
X156295066Y-78295548D01*
X156141933Y-78343265D01*
X156135092Y-78346345D01*
X156134268Y-78344514D01*
X156080511Y-78359500D01*
X155704552Y-78359500D01*
X155637513Y-78339815D01*
X155616871Y-78323181D01*
X155583351Y-78289661D01*
X155583350Y-78289660D01*
X155492129Y-78233395D01*
X155436518Y-78199093D01*
X155436513Y-78199091D01*
X155435069Y-78198612D01*
X155272753Y-78144826D01*
X155272751Y-78144825D01*
X155171678Y-78134500D01*
X154498330Y-78134500D01*
X154498312Y-78134501D01*
X154397247Y-78144825D01*
X154233484Y-78199092D01*
X154233481Y-78199093D01*
X154086648Y-78289661D01*
X154047326Y-78328983D01*
X153986003Y-78362468D01*
X153916311Y-78357482D01*
X153871965Y-78328982D01*
X153833038Y-78290055D01*
X153833034Y-78290052D01*
X153686311Y-78199551D01*
X153686300Y-78199546D01*
X153522652Y-78145319D01*
X153421654Y-78135000D01*
X153335000Y-78135000D01*
X153335000Y-80084999D01*
X153421640Y-80084999D01*
X153421654Y-80084998D01*
X153522652Y-80074680D01*
X153686300Y-80020453D01*
X153686311Y-80020448D01*
X153833034Y-79929947D01*
X153833037Y-79929945D01*
X153871964Y-79891018D01*
X153933287Y-79857532D01*
X154002978Y-79862516D01*
X154047327Y-79891017D01*
X154086650Y-79930340D01*
X154233484Y-80020908D01*
X154397247Y-80075174D01*
X154498323Y-80085500D01*
X155171676Y-80085499D01*
X155171684Y-80085498D01*
X155171687Y-80085498D01*
X155242728Y-80078241D01*
X155272753Y-80075174D01*
X155436516Y-80020908D01*
X155583350Y-79930340D01*
X155616871Y-79896819D01*
X155678194Y-79863334D01*
X155704552Y-79860500D01*
X156080511Y-79860500D01*
X156134268Y-79875485D01*
X156135092Y-79873655D01*
X156141933Y-79876734D01*
X156187770Y-79891017D01*
X156295067Y-79924452D01*
X156361619Y-79930500D01*
X156863380Y-79930499D01*
X156863388Y-79930499D01*
X156929926Y-79924453D01*
X156929927Y-79924452D01*
X156929933Y-79924452D01*
X157083069Y-79876733D01*
X157145850Y-79838779D01*
X157213405Y-79820944D01*
X157274149Y-79838779D01*
X157336931Y-79876733D01*
X157336934Y-79876734D01*
X157336933Y-79876734D01*
X157382770Y-79891017D01*
X157490067Y-79924452D01*
X157556619Y-79930500D01*
X158058380Y-79930499D01*
X158058388Y-79930499D01*
X158124926Y-79924453D01*
X158124927Y-79924452D01*
X158124933Y-79924452D01*
X158278069Y-79876733D01*
X158278071Y-79876731D01*
X158284908Y-79873655D01*
X158285731Y-79875485D01*
X158339489Y-79860500D01*
X158922770Y-79860500D01*
X158989809Y-79880185D01*
X159010451Y-79896819D01*
X160900907Y-81787275D01*
X160934392Y-81848598D01*
X160929408Y-81918290D01*
X160912495Y-81949264D01*
X160906205Y-81957666D01*
X160906202Y-81957671D01*
X160855908Y-82092517D01*
X160849501Y-82152116D01*
X160849501Y-82152123D01*
X160849500Y-82152135D01*
X160849500Y-82987870D01*
X160849501Y-82987876D01*
X160855908Y-83047483D01*
X160898496Y-83161667D01*
X160903480Y-83231359D01*
X160898496Y-83248333D01*
X160855908Y-83362516D01*
X160849501Y-83422116D01*
X160849501Y-83422123D01*
X160849500Y-83422135D01*
X160849500Y-84257870D01*
X160849501Y-84257876D01*
X160855908Y-84317483D01*
X160898496Y-84431667D01*
X160903480Y-84501359D01*
X160898496Y-84518333D01*
X160855908Y-84632516D01*
X160849501Y-84692116D01*
X160849500Y-84692135D01*
X160849500Y-85527870D01*
X160849501Y-85527876D01*
X160855908Y-85587483D01*
X160898496Y-85701667D01*
X160903480Y-85771359D01*
X160898496Y-85788333D01*
X160855908Y-85902516D01*
X160849501Y-85962116D01*
X160849501Y-85962123D01*
X160849500Y-85962135D01*
X160849500Y-86797870D01*
X160849501Y-86797876D01*
X160855908Y-86857483D01*
X160898496Y-86971667D01*
X160903480Y-87041359D01*
X160898496Y-87058333D01*
X160855908Y-87172516D01*
X160849501Y-87232116D01*
X160849500Y-87232128D01*
X160849500Y-88067870D01*
X160849501Y-88067876D01*
X160855908Y-88127483D01*
X160906202Y-88262328D01*
X160906206Y-88262335D01*
X160992452Y-88377544D01*
X160992455Y-88377547D01*
X161107664Y-88463793D01*
X161107671Y-88463797D01*
X161242517Y-88514091D01*
X161242516Y-88514091D01*
X161249444Y-88514835D01*
X161302127Y-88520500D01*
X164187872Y-88520499D01*
X164247483Y-88514091D01*
X164382331Y-88463796D01*
X164497546Y-88377546D01*
X164583796Y-88262331D01*
X164634091Y-88127483D01*
X164640500Y-88067873D01*
X164640499Y-87232128D01*
X164634091Y-87172517D01*
X164630013Y-87161584D01*
X164591503Y-87058333D01*
X164586519Y-86988642D01*
X164591503Y-86971667D01*
X164595579Y-86960739D01*
X164634091Y-86857483D01*
X164640500Y-86797873D01*
X164640499Y-86601227D01*
X164660183Y-86534190D01*
X164712987Y-86488435D01*
X164782145Y-86478491D01*
X164845701Y-86507516D01*
X164852180Y-86513548D01*
X165618647Y-87280014D01*
X165652132Y-87341337D01*
X165654437Y-87356253D01*
X165669794Y-87521974D01*
X165673603Y-87563083D01*
X165691650Y-87626510D01*
X165729417Y-87759247D01*
X165729422Y-87759260D01*
X165820327Y-87941821D01*
X165943237Y-88104581D01*
X166093958Y-88241980D01*
X166093960Y-88241982D01*
X166193141Y-88303392D01*
X166267363Y-88349348D01*
X166457544Y-88423024D01*
X166658024Y-88460500D01*
X166658026Y-88460500D01*
X166861974Y-88460500D01*
X166861976Y-88460500D01*
X167062456Y-88423024D01*
X167252637Y-88349348D01*
X167426041Y-88241981D01*
X167576764Y-88104579D01*
X167699673Y-87941821D01*
X167790582Y-87759250D01*
X167846397Y-87563083D01*
X167865215Y-87360000D01*
X167861496Y-87319870D01*
X167846397Y-87156917D01*
X167818347Y-87058333D01*
X167790582Y-86960750D01*
X167699673Y-86778179D01*
X167576764Y-86615421D01*
X167576762Y-86615418D01*
X167426041Y-86478019D01*
X167426039Y-86478017D01*
X167252642Y-86370655D01*
X167252635Y-86370651D01*
X167075081Y-86301867D01*
X167062456Y-86296976D01*
X166861976Y-86259500D01*
X166861974Y-86259500D01*
X166772229Y-86259500D01*
X166705190Y-86239815D01*
X166684548Y-86223181D01*
X165120973Y-84659605D01*
X165087488Y-84598282D01*
X165092472Y-84528590D01*
X165134344Y-84472657D01*
X165139719Y-84468852D01*
X165164446Y-84452331D01*
X165208416Y-84422952D01*
X165313414Y-84317953D01*
X165313415Y-84317953D01*
X166052319Y-83579049D01*
X166113642Y-83545564D01*
X166183334Y-83550548D01*
X166227681Y-83579049D01*
X170963181Y-88314549D01*
X170996666Y-88375872D01*
X170999500Y-88402230D01*
X170999500Y-97888770D01*
X170979815Y-97955809D01*
X170927011Y-98001564D01*
X170857853Y-98011508D01*
X170794297Y-97982483D01*
X170787819Y-97976452D01*
X170767176Y-97955809D01*
X170728416Y-97917049D01*
X169675285Y-96863918D01*
X167889936Y-95078568D01*
X167856451Y-95017245D01*
X167854146Y-94979451D01*
X167865215Y-94860000D01*
X167846397Y-94656917D01*
X167790582Y-94460750D01*
X167699673Y-94278179D01*
X167576764Y-94115421D01*
X167576762Y-94115418D01*
X167426041Y-93978019D01*
X167426039Y-93978017D01*
X167252642Y-93870655D01*
X167252635Y-93870651D01*
X167157546Y-93833814D01*
X167062456Y-93796976D01*
X166861976Y-93759500D01*
X166658024Y-93759500D01*
X166457544Y-93796976D01*
X166457541Y-93796976D01*
X166457541Y-93796977D01*
X166267364Y-93870651D01*
X166267357Y-93870655D01*
X166093960Y-93978017D01*
X166093958Y-93978019D01*
X165943237Y-94115418D01*
X165820327Y-94278178D01*
X165729422Y-94460739D01*
X165729417Y-94460752D01*
X165673602Y-94656917D01*
X165654785Y-94859999D01*
X165654785Y-94860000D01*
X165673602Y-95063082D01*
X165729417Y-95259247D01*
X165729422Y-95259260D01*
X165820327Y-95441821D01*
X165943237Y-95604581D01*
X166093958Y-95741980D01*
X166093960Y-95741982D01*
X166193141Y-95803392D01*
X166267363Y-95849348D01*
X166457544Y-95923024D01*
X166609344Y-95951399D01*
X166671624Y-95983067D01*
X166674239Y-95985607D01*
X169463181Y-98774548D01*
X169496666Y-98835871D01*
X169499500Y-98862229D01*
X169499500Y-102387770D01*
X169479815Y-102454809D01*
X169463181Y-102475451D01*
X167925451Y-104013181D01*
X167864128Y-104046666D01*
X167837770Y-104049500D01*
X166563993Y-104049500D01*
X166496954Y-104029815D01*
X166451199Y-103977011D01*
X166441255Y-103907853D01*
X166470280Y-103844297D01*
X166476312Y-103837819D01*
X166504674Y-103809457D01*
X166630579Y-103629646D01*
X166723347Y-103430703D01*
X166780161Y-103218674D01*
X166799292Y-103000000D01*
X166780161Y-102781326D01*
X166723347Y-102569297D01*
X166630579Y-102370354D01*
X166630577Y-102370351D01*
X166630576Y-102370349D01*
X166504677Y-102190547D01*
X166504672Y-102190541D01*
X166349458Y-102035327D01*
X166349452Y-102035322D01*
X166169650Y-101909423D01*
X166169642Y-101909419D01*
X166025879Y-101842382D01*
X165973439Y-101796210D01*
X165954287Y-101729017D01*
X165974502Y-101662136D01*
X166025879Y-101617618D01*
X166026471Y-101617342D01*
X166169646Y-101550579D01*
X166349457Y-101424674D01*
X166504674Y-101269457D01*
X166630579Y-101089646D01*
X166723347Y-100890703D01*
X166780161Y-100678674D01*
X166799292Y-100460000D01*
X166798396Y-100449764D01*
X166792117Y-100377997D01*
X166780161Y-100241326D01*
X166723347Y-100029297D01*
X166630579Y-99830354D01*
X166630577Y-99830351D01*
X166630576Y-99830349D01*
X166504677Y-99650547D01*
X166504672Y-99650541D01*
X166349458Y-99495327D01*
X166349452Y-99495322D01*
X166169650Y-99369423D01*
X166169642Y-99369419D01*
X165970708Y-99276655D01*
X165970706Y-99276654D01*
X165970703Y-99276653D01*
X165817483Y-99235597D01*
X165758675Y-99219839D01*
X165758668Y-99219838D01*
X165540002Y-99200708D01*
X165539998Y-99200708D01*
X165321331Y-99219838D01*
X165321324Y-99219839D01*
X165198902Y-99252642D01*
X165109297Y-99276653D01*
X165109295Y-99276653D01*
X165109291Y-99276655D01*
X164910357Y-99369419D01*
X164910349Y-99369423D01*
X164730547Y-99495322D01*
X164730541Y-99495327D01*
X164575327Y-99650541D01*
X164575322Y-99650547D01*
X164449423Y-99830349D01*
X164449419Y-99830357D01*
X164382382Y-99974120D01*
X164336210Y-100026560D01*
X164269017Y-100045712D01*
X164202135Y-100025496D01*
X164157618Y-99974120D01*
X164090580Y-99830357D01*
X164090579Y-99830354D01*
X164090577Y-99830351D01*
X164090576Y-99830349D01*
X163964677Y-99650547D01*
X163964672Y-99650541D01*
X163809458Y-99495327D01*
X163809452Y-99495322D01*
X163629650Y-99369423D01*
X163629642Y-99369419D01*
X163430708Y-99276655D01*
X163430706Y-99276654D01*
X163430703Y-99276653D01*
X163277483Y-99235597D01*
X163218675Y-99219839D01*
X163218668Y-99219838D01*
X163000002Y-99200708D01*
X162999998Y-99200708D01*
X162781331Y-99219838D01*
X162781324Y-99219839D01*
X162658902Y-99252642D01*
X162569297Y-99276653D01*
X162569295Y-99276653D01*
X162569291Y-99276655D01*
X162370357Y-99369419D01*
X162370349Y-99369423D01*
X162190547Y-99495322D01*
X162190541Y-99495327D01*
X162035327Y-99650541D01*
X162035322Y-99650547D01*
X161909423Y-99830349D01*
X161909421Y-99830353D01*
X161842106Y-99974711D01*
X161795933Y-100027150D01*
X161728740Y-100046302D01*
X161661859Y-100026086D01*
X161617342Y-99974711D01*
X161550144Y-99830605D01*
X161550142Y-99830601D01*
X161505996Y-99767555D01*
X160942962Y-100330589D01*
X160925925Y-100267007D01*
X160860099Y-100152993D01*
X160767007Y-100059901D01*
X160652993Y-99994075D01*
X160589409Y-99977037D01*
X161152443Y-99414003D01*
X161089392Y-99369854D01*
X160890533Y-99277125D01*
X160890524Y-99277121D01*
X160678592Y-99220335D01*
X160678582Y-99220333D01*
X160460001Y-99201210D01*
X160459999Y-99201210D01*
X160241417Y-99220333D01*
X160241407Y-99220335D01*
X160029475Y-99277121D01*
X160029466Y-99277124D01*
X159830606Y-99369855D01*
X159830604Y-99369856D01*
X159767556Y-99414003D01*
X159767555Y-99414003D01*
X160330590Y-99977037D01*
X160267007Y-99994075D01*
X160152993Y-100059901D01*
X160059901Y-100152993D01*
X159994075Y-100267007D01*
X159977037Y-100330589D01*
X159414003Y-99767555D01*
X159414003Y-99767556D01*
X159369857Y-99830603D01*
X159302657Y-99974712D01*
X159256484Y-100027151D01*
X159189290Y-100046302D01*
X159122409Y-100026086D01*
X159077893Y-99974710D01*
X159010580Y-99830357D01*
X159010579Y-99830354D01*
X159010577Y-99830351D01*
X159010576Y-99830349D01*
X158884677Y-99650547D01*
X158884672Y-99650541D01*
X158729458Y-99495327D01*
X158729452Y-99495322D01*
X158549650Y-99369423D01*
X158549642Y-99369419D01*
X158350708Y-99276655D01*
X158350706Y-99276654D01*
X158350703Y-99276653D01*
X158197483Y-99235597D01*
X158138675Y-99219839D01*
X158138668Y-99219838D01*
X157920002Y-99200708D01*
X157919998Y-99200708D01*
X157774217Y-99213462D01*
X157701326Y-99219839D01*
X157701323Y-99219839D01*
X157636308Y-99237260D01*
X157566458Y-99235597D01*
X157516534Y-99205166D01*
X153196819Y-94885451D01*
X153163334Y-94824128D01*
X153160500Y-94797770D01*
X153160500Y-88572228D01*
X153180185Y-88505189D01*
X153196814Y-88484552D01*
X155719230Y-85962135D01*
X156779500Y-85962135D01*
X156779500Y-86797870D01*
X156779501Y-86797876D01*
X156785908Y-86857483D01*
X156828496Y-86971667D01*
X156833480Y-87041359D01*
X156828496Y-87058333D01*
X156785908Y-87172516D01*
X156779501Y-87232116D01*
X156779500Y-87232128D01*
X156779500Y-88067870D01*
X156779501Y-88067876D01*
X156785908Y-88127483D01*
X156836202Y-88262328D01*
X156836206Y-88262335D01*
X156922452Y-88377544D01*
X156922455Y-88377547D01*
X157037664Y-88463793D01*
X157037671Y-88463797D01*
X157172517Y-88514091D01*
X157172516Y-88514091D01*
X157179444Y-88514835D01*
X157232127Y-88520500D01*
X160117872Y-88520499D01*
X160177483Y-88514091D01*
X160312331Y-88463796D01*
X160427546Y-88377546D01*
X160513796Y-88262331D01*
X160564091Y-88127483D01*
X160570500Y-88067873D01*
X160570499Y-87232128D01*
X160564091Y-87172517D01*
X160560013Y-87161584D01*
X160521503Y-87058333D01*
X160516519Y-86988642D01*
X160521503Y-86971667D01*
X160564091Y-86857482D01*
X160570500Y-86797873D01*
X160570499Y-85962128D01*
X160564091Y-85902517D01*
X160521235Y-85787616D01*
X160516252Y-85717927D01*
X160521236Y-85700951D01*
X160563597Y-85587376D01*
X160563598Y-85587372D01*
X160569999Y-85527844D01*
X160570000Y-85527827D01*
X160570000Y-85360000D01*
X156780000Y-85360000D01*
X156780000Y-85527844D01*
X156786401Y-85587372D01*
X156786403Y-85587379D01*
X156828763Y-85700952D01*
X156833747Y-85770644D01*
X156828763Y-85787618D01*
X156785908Y-85902517D01*
X156779501Y-85962116D01*
X156779501Y-85962123D01*
X156779500Y-85962135D01*
X155719230Y-85962135D01*
X156785047Y-84896318D01*
X156846370Y-84862834D01*
X156872728Y-84860000D01*
X160570000Y-84860000D01*
X160570000Y-84692172D01*
X160569999Y-84692155D01*
X160563598Y-84632627D01*
X160563597Y-84632623D01*
X160521236Y-84519049D01*
X160516252Y-84449357D01*
X160521232Y-84432391D01*
X160564091Y-84317483D01*
X160570500Y-84257873D01*
X160570499Y-83422128D01*
X160564091Y-83362517D01*
X160521502Y-83248332D01*
X160516519Y-83178642D01*
X160521503Y-83161667D01*
X160544223Y-83100752D01*
X160564091Y-83047483D01*
X160570500Y-82987873D01*
X160570499Y-82152128D01*
X160564091Y-82092517D01*
X160524754Y-81987050D01*
X160513797Y-81957671D01*
X160513793Y-81957664D01*
X160427547Y-81842455D01*
X160427544Y-81842452D01*
X160312335Y-81756206D01*
X160312328Y-81756202D01*
X160177482Y-81705908D01*
X160177483Y-81705908D01*
X160117883Y-81699501D01*
X160117881Y-81699500D01*
X160117873Y-81699500D01*
X160117864Y-81699500D01*
X157232129Y-81699500D01*
X157232123Y-81699501D01*
X157172516Y-81705908D01*
X157037671Y-81756202D01*
X157037668Y-81756204D01*
X157009864Y-81777018D01*
X156986156Y-81794766D01*
X156920694Y-81819184D01*
X156911846Y-81819500D01*
X156706076Y-81819500D01*
X156677242Y-81825234D01*
X156677243Y-81825235D01*
X156561093Y-81848339D01*
X156561083Y-81848342D01*
X156481081Y-81881479D01*
X156481082Y-81881480D01*
X156424502Y-81904917D01*
X156375269Y-81937813D01*
X156301588Y-81987044D01*
X156301580Y-81987050D01*
X151127047Y-87161584D01*
X151127043Y-87161589D01*
X151079915Y-87232125D01*
X151079914Y-87232127D01*
X151062415Y-87258316D01*
X151044916Y-87284504D01*
X151044912Y-87284511D01*
X150988343Y-87421082D01*
X150988340Y-87421092D01*
X150959500Y-87566079D01*
X150959500Y-87566082D01*
X150959500Y-96863918D01*
X150959500Y-96863920D01*
X150959499Y-96863920D01*
X150988340Y-97008907D01*
X150988343Y-97008917D01*
X151044914Y-97145492D01*
X151077812Y-97194727D01*
X151077813Y-97194730D01*
X151127046Y-97268414D01*
X151127052Y-97268421D01*
X154095743Y-100237111D01*
X154129228Y-100298434D01*
X154131590Y-100335598D01*
X154121603Y-100449764D01*
X154120708Y-100460000D01*
X154139839Y-100678674D01*
X154196653Y-100890703D01*
X154196654Y-100890706D01*
X154196655Y-100890708D01*
X154289419Y-101089642D01*
X154289423Y-101089650D01*
X154415322Y-101269452D01*
X154415326Y-101269457D01*
X154570543Y-101424674D01*
X154686681Y-101505995D01*
X154706576Y-101519925D01*
X154750201Y-101574502D01*
X154757395Y-101644000D01*
X154725872Y-101706355D01*
X154665643Y-101741769D01*
X154635455Y-101745500D01*
X154578130Y-101745500D01*
X154578123Y-101745501D01*
X154518516Y-101751908D01*
X154383671Y-101802202D01*
X154383664Y-101802206D01*
X154268455Y-101888452D01*
X154268452Y-101888455D01*
X154182206Y-102003664D01*
X154182202Y-102003671D01*
X154131908Y-102138517D01*
X154126315Y-102190543D01*
X154125501Y-102198123D01*
X154125500Y-102198135D01*
X154125500Y-103801870D01*
X154125501Y-103801876D01*
X154131908Y-103861483D01*
X154182202Y-103996328D01*
X154182206Y-103996335D01*
X154268452Y-104111544D01*
X154268455Y-104111547D01*
X154383664Y-104197793D01*
X154383671Y-104197797D01*
X154518511Y-104248089D01*
X154518517Y-104248091D01*
X154518745Y-104248115D01*
X154518913Y-104248184D01*
X154526062Y-104249874D01*
X154525788Y-104251031D01*
X154583296Y-104274846D01*
X154623150Y-104332234D01*
X154629500Y-104371405D01*
X154629500Y-105703918D01*
X154629500Y-105703920D01*
X154629499Y-105703920D01*
X154658340Y-105848907D01*
X154658343Y-105848917D01*
X154714913Y-105985490D01*
X154714915Y-105985493D01*
X154724274Y-105999501D01*
X154797049Y-106108418D01*
X154797052Y-106108421D01*
X155976451Y-107287819D01*
X156009936Y-107349142D01*
X156004952Y-107418834D01*
X155963080Y-107474767D01*
X155897616Y-107499184D01*
X155888770Y-107499500D01*
X147254067Y-107499500D01*
X147245957Y-107499235D01*
X146997116Y-107482925D01*
X146981035Y-107480807D01*
X146740464Y-107432954D01*
X146724797Y-107428756D01*
X146492520Y-107349909D01*
X146477534Y-107343702D01*
X146257539Y-107235212D01*
X146243492Y-107227102D01*
X146039539Y-107090825D01*
X146026671Y-107080951D01*
X145842250Y-106919218D01*
X145830781Y-106907749D01*
X145669048Y-106723328D01*
X145659174Y-106710460D01*
X145522897Y-106506507D01*
X145514787Y-106492460D01*
X145408855Y-106277652D01*
X145406294Y-106272458D01*
X145400090Y-106257479D01*
X145321243Y-106025202D01*
X145317045Y-106009535D01*
X145272943Y-105787819D01*
X145269190Y-105768953D01*
X145267075Y-105752895D01*
X145250765Y-105504043D01*
X145250500Y-105495933D01*
X145250500Y-79396654D01*
X152060001Y-79396654D01*
X152070319Y-79497652D01*
X152124546Y-79661300D01*
X152124551Y-79661311D01*
X152215052Y-79808034D01*
X152215055Y-79808038D01*
X152336961Y-79929944D01*
X152336965Y-79929947D01*
X152483688Y-80020448D01*
X152483699Y-80020453D01*
X152647347Y-80074680D01*
X152748351Y-80084999D01*
X152835000Y-80084998D01*
X152835000Y-79360000D01*
X152060001Y-79360000D01*
X152060001Y-79396654D01*
X145250500Y-79396654D01*
X145250500Y-78823345D01*
X152060000Y-78823345D01*
X152060000Y-78860000D01*
X152835000Y-78860000D01*
X152835000Y-78135000D01*
X152834999Y-78134999D01*
X152748360Y-78135000D01*
X152748343Y-78135001D01*
X152647347Y-78145319D01*
X152483699Y-78199546D01*
X152483688Y-78199551D01*
X152336965Y-78290052D01*
X152336961Y-78290055D01*
X152215055Y-78411961D01*
X152215052Y-78411965D01*
X152124551Y-78558688D01*
X152124546Y-78558699D01*
X152070319Y-78722347D01*
X152060000Y-78823345D01*
X145250500Y-78823345D01*
X145250500Y-74004066D01*
X145250765Y-73995956D01*
X145254819Y-73934108D01*
X145267075Y-73747102D01*
X145269190Y-73731048D01*
X145317045Y-73490462D01*
X145321243Y-73474797D01*
X145344337Y-73406762D01*
X145400093Y-73242512D01*
X145406291Y-73227547D01*
X145514790Y-73007533D01*
X145522893Y-72993498D01*
X145659182Y-72789527D01*
X145669039Y-72776681D01*
X145830786Y-72592244D01*
X145842244Y-72580786D01*
X146026681Y-72419039D01*
X146039527Y-72409182D01*
X146243498Y-72272893D01*
X146257533Y-72264790D01*
X146477547Y-72156291D01*
X146492512Y-72150093D01*
X146656762Y-72094337D01*
X146724797Y-72071243D01*
X146740464Y-72067045D01*
X146981048Y-72019190D01*
X146997102Y-72017075D01*
X147245957Y-72000765D01*
X147254067Y-72000500D01*
X147315892Y-72000500D01*
X172184108Y-72000500D01*
X172245933Y-72000500D01*
X172254043Y-72000765D01*
G37*
%TD.AperFunction*%
%TA.AperFunction,Conductor*%
G36*
X159994075Y-100652993D02*
G01*
X160059901Y-100767007D01*
X160152993Y-100860099D01*
X160267007Y-100925925D01*
X160330590Y-100942962D01*
X159767555Y-101505996D01*
X159830601Y-101550142D01*
X159830605Y-101550144D01*
X159974711Y-101617342D01*
X160027150Y-101663514D01*
X160046302Y-101730708D01*
X160026086Y-101797589D01*
X159974711Y-101842106D01*
X159830353Y-101909421D01*
X159830349Y-101909423D01*
X159650547Y-102035322D01*
X159650541Y-102035327D01*
X159495327Y-102190541D01*
X159495322Y-102190547D01*
X159369423Y-102370349D01*
X159369419Y-102370357D01*
X159302382Y-102514120D01*
X159256210Y-102566560D01*
X159189017Y-102585712D01*
X159122135Y-102565496D01*
X159077618Y-102514120D01*
X159018700Y-102387770D01*
X159010579Y-102370354D01*
X159010577Y-102370351D01*
X159010576Y-102370349D01*
X158884677Y-102190547D01*
X158884672Y-102190541D01*
X158729458Y-102035327D01*
X158729452Y-102035322D01*
X158549650Y-101909423D01*
X158549642Y-101909419D01*
X158405879Y-101842382D01*
X158353439Y-101796210D01*
X158334287Y-101729017D01*
X158354502Y-101662136D01*
X158405879Y-101617618D01*
X158406471Y-101617342D01*
X158549646Y-101550579D01*
X158729457Y-101424674D01*
X158884674Y-101269457D01*
X159010579Y-101089646D01*
X159077893Y-100945288D01*
X159124065Y-100892849D01*
X159191258Y-100873697D01*
X159258139Y-100893912D01*
X159302657Y-100945288D01*
X159369854Y-101089392D01*
X159414003Y-101152443D01*
X159977037Y-100589409D01*
X159994075Y-100652993D01*
G37*
%TD.AperFunction*%
%TA.AperFunction,Conductor*%
G36*
X161505995Y-101152442D02*
G01*
X161550146Y-101089390D01*
X161617342Y-100945289D01*
X161663514Y-100892849D01*
X161730707Y-100873697D01*
X161797589Y-100893913D01*
X161842106Y-100945288D01*
X161909421Y-101089646D01*
X161909423Y-101089650D01*
X162035322Y-101269452D01*
X162035327Y-101269458D01*
X162190541Y-101424672D01*
X162190547Y-101424677D01*
X162370349Y-101550576D01*
X162370351Y-101550577D01*
X162370354Y-101550579D01*
X162454963Y-101590032D01*
X162514120Y-101617618D01*
X162566560Y-101663790D01*
X162585712Y-101730983D01*
X162565496Y-101797865D01*
X162514120Y-101842382D01*
X162370357Y-101909419D01*
X162370349Y-101909423D01*
X162190547Y-102035322D01*
X162190541Y-102035327D01*
X162035327Y-102190541D01*
X162035322Y-102190547D01*
X161909423Y-102370349D01*
X161909419Y-102370357D01*
X161842382Y-102514120D01*
X161796210Y-102566560D01*
X161729017Y-102585712D01*
X161662135Y-102565496D01*
X161617618Y-102514120D01*
X161558700Y-102387770D01*
X161550579Y-102370354D01*
X161550577Y-102370351D01*
X161550576Y-102370349D01*
X161424677Y-102190547D01*
X161424672Y-102190541D01*
X161269458Y-102035327D01*
X161269452Y-102035322D01*
X161089650Y-101909423D01*
X161089646Y-101909421D01*
X160945288Y-101842106D01*
X160892849Y-101795934D01*
X160873697Y-101728740D01*
X160893913Y-101661859D01*
X160945289Y-101617342D01*
X161089390Y-101550146D01*
X161152443Y-101505995D01*
X160589410Y-100942962D01*
X160652993Y-100925925D01*
X160767007Y-100860099D01*
X160860099Y-100767007D01*
X160925925Y-100652993D01*
X160942962Y-100589409D01*
X161505995Y-101152442D01*
G37*
%TD.AperFunction*%
%TD*%
M02*
