%TF.GenerationSoftware,KiCad,Pcbnew,8.0.5*%
%TF.CreationDate,2024-11-27T14:16:54+01:00*%
%TF.ProjectId,TOF_PCB,544f465f-5043-4422-9e6b-696361645f70,rev?*%
%TF.SameCoordinates,Original*%
%TF.FileFunction,Drillmap*%
%TF.FilePolarity,Positive*%
%FSLAX45Y45*%
G04 Gerber Fmt 4.5, Leading zero omitted, Abs format (unit mm)*
G04 Created by KiCad (PCBNEW 8.0.5) date 2024-11-27 14:16:54*
%MOMM*%
%LPD*%
G01*
G04 APERTURE LIST*
%ADD10C,0.050000*%
%ADD11C,0.200000*%
%ADD12C,0.100000*%
G04 APERTURE END LIST*
D10*
X19050000Y-11750000D02*
G75*
G02*
X18750000Y-12050000I-300000J0D01*
G01*
X19050000Y-8700000D02*
X19050000Y-11750000D01*
X16060000Y-11755000D02*
X16063814Y-8704920D01*
X16362132Y-12050084D02*
X18750000Y-12050000D01*
X18750000Y-8400000D02*
G75*
G02*
X19050000Y-8700000I0J-300000D01*
G01*
X16370000Y-8400000D02*
X18750000Y-8400000D01*
X16063814Y-8704920D02*
G75*
G02*
X16370000Y-8399997I300026J4920D01*
G01*
X16362132Y-12050084D02*
G75*
G02*
X16060000Y-11755000I-2J302214D01*
G01*
D11*
D12*
X16260000Y-11435000D02*
X16340000Y-11515000D01*
X16340000Y-11435000D02*
X16260000Y-11515000D01*
X16335000Y-11685000D02*
X16415000Y-11765000D01*
X16415000Y-11685000D02*
X16335000Y-11765000D01*
X16370000Y-10720000D02*
X16450000Y-10800000D01*
X16450000Y-10720000D02*
X16370000Y-10800000D01*
X16560000Y-11710000D02*
X16640000Y-11790000D01*
X16640000Y-11710000D02*
X16560000Y-11790000D01*
X16710000Y-11030000D02*
X16790000Y-11110000D01*
X16790000Y-11030000D02*
X16710000Y-11110000D01*
X16815000Y-10623254D02*
X16895000Y-10703254D01*
X16895000Y-10623254D02*
X16815000Y-10703254D01*
X16910000Y-10210000D02*
X16990000Y-10290000D01*
X16990000Y-10210000D02*
X16910000Y-10290000D01*
X16985000Y-10560000D02*
X17065000Y-10640000D01*
X17065000Y-10560000D02*
X16985000Y-10640000D01*
X17110000Y-9610000D02*
X17190000Y-9690000D01*
X17190000Y-9610000D02*
X17110000Y-9690000D01*
X17131500Y-9751500D02*
X17211500Y-9831500D01*
X17211500Y-9751500D02*
X17131500Y-9831500D01*
X17160000Y-10785000D02*
X17240000Y-10865000D01*
X17240000Y-10785000D02*
X17160000Y-10865000D01*
X17410000Y-10710000D02*
X17490000Y-10790000D01*
X17490000Y-10710000D02*
X17410000Y-10790000D01*
X17546351Y-10678245D02*
X17626351Y-10758245D01*
X17626351Y-10678245D02*
X17546351Y-10758245D01*
X17563492Y-9505000D02*
X17643492Y-9585000D01*
X17643492Y-9505000D02*
X17563492Y-9585000D01*
X17635000Y-8935000D02*
X17715000Y-9015000D01*
X17715000Y-8935000D02*
X17635000Y-9015000D01*
X17635000Y-9159500D02*
X17715000Y-9239500D01*
X17715000Y-9159500D02*
X17635000Y-9239500D01*
X17680000Y-9835000D02*
X17760000Y-9915000D01*
X17760000Y-9835000D02*
X17680000Y-9915000D01*
X17735000Y-9505000D02*
X17815000Y-9585000D01*
X17815000Y-9505000D02*
X17735000Y-9585000D01*
X17750000Y-9054500D02*
X17830000Y-9134500D01*
X17830000Y-9054500D02*
X17750000Y-9134500D01*
X17785000Y-9715000D02*
X17865000Y-9795000D01*
X17865000Y-9715000D02*
X17785000Y-9795000D01*
X17885000Y-10960000D02*
X17965000Y-11040000D01*
X17965000Y-10960000D02*
X17885000Y-11040000D01*
X17910000Y-9820000D02*
X17990000Y-9900000D01*
X17990000Y-9820000D02*
X17910000Y-9900000D01*
X18110000Y-10635000D02*
X18190000Y-10715000D01*
X18190000Y-10635000D02*
X18110000Y-10715000D01*
X18160000Y-10210000D02*
X18240000Y-10290000D01*
X18240000Y-10210000D02*
X18160000Y-10290000D01*
X18535000Y-9610000D02*
X18615000Y-9690000D01*
X18615000Y-9610000D02*
X18535000Y-9690000D01*
X18799000Y-9635000D02*
X18879000Y-9715000D01*
X18879000Y-9635000D02*
X18799000Y-9715000D01*
X18835000Y-10210000D02*
X18915000Y-10290000D01*
X18915000Y-10210000D02*
X18835000Y-10290000D01*
X18860000Y-9810000D02*
X18940000Y-9890000D01*
X18940000Y-9810000D02*
X18860000Y-9890000D01*
X17066000Y-11470000D02*
G75*
G02*
X16966000Y-11470000I-50000J0D01*
G01*
X16966000Y-11470000D02*
G75*
G02*
X17066000Y-11470000I50000J0D01*
G01*
X17066000Y-11724000D02*
G75*
G02*
X16966000Y-11724000I-50000J0D01*
G01*
X16966000Y-11724000D02*
G75*
G02*
X17066000Y-11724000I50000J0D01*
G01*
X17320000Y-11470000D02*
G75*
G02*
X17220000Y-11470000I-50000J0D01*
G01*
X17220000Y-11470000D02*
G75*
G02*
X17320000Y-11470000I50000J0D01*
G01*
X17320000Y-11724000D02*
G75*
G02*
X17220000Y-11724000I-50000J0D01*
G01*
X17220000Y-11724000D02*
G75*
G02*
X17320000Y-11724000I50000J0D01*
G01*
X17574000Y-11470000D02*
G75*
G02*
X17474000Y-11470000I-50000J0D01*
G01*
X17474000Y-11470000D02*
G75*
G02*
X17574000Y-11470000I50000J0D01*
G01*
X17574000Y-11724000D02*
G75*
G02*
X17474000Y-11724000I-50000J0D01*
G01*
X17474000Y-11724000D02*
G75*
G02*
X17574000Y-11724000I50000J0D01*
G01*
X17828000Y-11470000D02*
G75*
G02*
X17728000Y-11470000I-50000J0D01*
G01*
X17728000Y-11470000D02*
G75*
G02*
X17828000Y-11470000I50000J0D01*
G01*
X17828000Y-11724000D02*
G75*
G02*
X17728000Y-11724000I-50000J0D01*
G01*
X17728000Y-11724000D02*
G75*
G02*
X17828000Y-11724000I50000J0D01*
G01*
X18082000Y-11470000D02*
G75*
G02*
X17982000Y-11470000I-50000J0D01*
G01*
X17982000Y-11470000D02*
G75*
G02*
X18082000Y-11470000I50000J0D01*
G01*
X18082000Y-11724000D02*
G75*
G02*
X17982000Y-11724000I-50000J0D01*
G01*
X17982000Y-11724000D02*
G75*
G02*
X18082000Y-11724000I50000J0D01*
G01*
D11*
X16318277Y-12364068D02*
X16318277Y-12164068D01*
X16318277Y-12164068D02*
X16365896Y-12164068D01*
X16365896Y-12164068D02*
X16394467Y-12173592D01*
X16394467Y-12173592D02*
X16413515Y-12192639D01*
X16413515Y-12192639D02*
X16423039Y-12211687D01*
X16423039Y-12211687D02*
X16432562Y-12249782D01*
X16432562Y-12249782D02*
X16432562Y-12278354D01*
X16432562Y-12278354D02*
X16423039Y-12316449D01*
X16423039Y-12316449D02*
X16413515Y-12335496D01*
X16413515Y-12335496D02*
X16394467Y-12354544D01*
X16394467Y-12354544D02*
X16365896Y-12364068D01*
X16365896Y-12364068D02*
X16318277Y-12364068D01*
X16518277Y-12364068D02*
X16518277Y-12230734D01*
X16518277Y-12268830D02*
X16527801Y-12249782D01*
X16527801Y-12249782D02*
X16537324Y-12240258D01*
X16537324Y-12240258D02*
X16556372Y-12230734D01*
X16556372Y-12230734D02*
X16575420Y-12230734D01*
X16642086Y-12364068D02*
X16642086Y-12230734D01*
X16642086Y-12164068D02*
X16632562Y-12173592D01*
X16632562Y-12173592D02*
X16642086Y-12183115D01*
X16642086Y-12183115D02*
X16651610Y-12173592D01*
X16651610Y-12173592D02*
X16642086Y-12164068D01*
X16642086Y-12164068D02*
X16642086Y-12183115D01*
X16765896Y-12364068D02*
X16746848Y-12354544D01*
X16746848Y-12354544D02*
X16737324Y-12335496D01*
X16737324Y-12335496D02*
X16737324Y-12164068D01*
X16870658Y-12364068D02*
X16851610Y-12354544D01*
X16851610Y-12354544D02*
X16842086Y-12335496D01*
X16842086Y-12335496D02*
X16842086Y-12164068D01*
X17099229Y-12364068D02*
X17099229Y-12164068D01*
X17099229Y-12164068D02*
X17165896Y-12306925D01*
X17165896Y-12306925D02*
X17232563Y-12164068D01*
X17232563Y-12164068D02*
X17232563Y-12364068D01*
X17413515Y-12364068D02*
X17413515Y-12259306D01*
X17413515Y-12259306D02*
X17403991Y-12240258D01*
X17403991Y-12240258D02*
X17384944Y-12230734D01*
X17384944Y-12230734D02*
X17346848Y-12230734D01*
X17346848Y-12230734D02*
X17327801Y-12240258D01*
X17413515Y-12354544D02*
X17394467Y-12364068D01*
X17394467Y-12364068D02*
X17346848Y-12364068D01*
X17346848Y-12364068D02*
X17327801Y-12354544D01*
X17327801Y-12354544D02*
X17318277Y-12335496D01*
X17318277Y-12335496D02*
X17318277Y-12316449D01*
X17318277Y-12316449D02*
X17327801Y-12297401D01*
X17327801Y-12297401D02*
X17346848Y-12287877D01*
X17346848Y-12287877D02*
X17394467Y-12287877D01*
X17394467Y-12287877D02*
X17413515Y-12278354D01*
X17508753Y-12230734D02*
X17508753Y-12430734D01*
X17508753Y-12240258D02*
X17527801Y-12230734D01*
X17527801Y-12230734D02*
X17565896Y-12230734D01*
X17565896Y-12230734D02*
X17584944Y-12240258D01*
X17584944Y-12240258D02*
X17594467Y-12249782D01*
X17594467Y-12249782D02*
X17603991Y-12268830D01*
X17603991Y-12268830D02*
X17603991Y-12325973D01*
X17603991Y-12325973D02*
X17594467Y-12345020D01*
X17594467Y-12345020D02*
X17584944Y-12354544D01*
X17584944Y-12354544D02*
X17565896Y-12364068D01*
X17565896Y-12364068D02*
X17527801Y-12364068D01*
X17527801Y-12364068D02*
X17508753Y-12354544D01*
X17689705Y-12345020D02*
X17699229Y-12354544D01*
X17699229Y-12354544D02*
X17689705Y-12364068D01*
X17689705Y-12364068D02*
X17680182Y-12354544D01*
X17680182Y-12354544D02*
X17689705Y-12345020D01*
X17689705Y-12345020D02*
X17689705Y-12364068D01*
X17689705Y-12240258D02*
X17699229Y-12249782D01*
X17699229Y-12249782D02*
X17689705Y-12259306D01*
X17689705Y-12259306D02*
X17680182Y-12249782D01*
X17680182Y-12249782D02*
X17689705Y-12240258D01*
X17689705Y-12240258D02*
X17689705Y-12259306D01*
D12*
X15977500Y-12652584D02*
X16057500Y-12732584D01*
X16057500Y-12652584D02*
X15977500Y-12732584D01*
D11*
X16356372Y-12584068D02*
X16375420Y-12584068D01*
X16375420Y-12584068D02*
X16394467Y-12593592D01*
X16394467Y-12593592D02*
X16403991Y-12603115D01*
X16403991Y-12603115D02*
X16413515Y-12622163D01*
X16413515Y-12622163D02*
X16423039Y-12660258D01*
X16423039Y-12660258D02*
X16423039Y-12707877D01*
X16423039Y-12707877D02*
X16413515Y-12745973D01*
X16413515Y-12745973D02*
X16403991Y-12765020D01*
X16403991Y-12765020D02*
X16394467Y-12774544D01*
X16394467Y-12774544D02*
X16375420Y-12784068D01*
X16375420Y-12784068D02*
X16356372Y-12784068D01*
X16356372Y-12784068D02*
X16337324Y-12774544D01*
X16337324Y-12774544D02*
X16327801Y-12765020D01*
X16327801Y-12765020D02*
X16318277Y-12745973D01*
X16318277Y-12745973D02*
X16308753Y-12707877D01*
X16308753Y-12707877D02*
X16308753Y-12660258D01*
X16308753Y-12660258D02*
X16318277Y-12622163D01*
X16318277Y-12622163D02*
X16327801Y-12603115D01*
X16327801Y-12603115D02*
X16337324Y-12593592D01*
X16337324Y-12593592D02*
X16356372Y-12584068D01*
X16508753Y-12765020D02*
X16518277Y-12774544D01*
X16518277Y-12774544D02*
X16508753Y-12784068D01*
X16508753Y-12784068D02*
X16499229Y-12774544D01*
X16499229Y-12774544D02*
X16508753Y-12765020D01*
X16508753Y-12765020D02*
X16508753Y-12784068D01*
X16632562Y-12669782D02*
X16613515Y-12660258D01*
X16613515Y-12660258D02*
X16603991Y-12650734D01*
X16603991Y-12650734D02*
X16594467Y-12631687D01*
X16594467Y-12631687D02*
X16594467Y-12622163D01*
X16594467Y-12622163D02*
X16603991Y-12603115D01*
X16603991Y-12603115D02*
X16613515Y-12593592D01*
X16613515Y-12593592D02*
X16632562Y-12584068D01*
X16632562Y-12584068D02*
X16670658Y-12584068D01*
X16670658Y-12584068D02*
X16689705Y-12593592D01*
X16689705Y-12593592D02*
X16699229Y-12603115D01*
X16699229Y-12603115D02*
X16708753Y-12622163D01*
X16708753Y-12622163D02*
X16708753Y-12631687D01*
X16708753Y-12631687D02*
X16699229Y-12650734D01*
X16699229Y-12650734D02*
X16689705Y-12660258D01*
X16689705Y-12660258D02*
X16670658Y-12669782D01*
X16670658Y-12669782D02*
X16632562Y-12669782D01*
X16632562Y-12669782D02*
X16613515Y-12679306D01*
X16613515Y-12679306D02*
X16603991Y-12688830D01*
X16603991Y-12688830D02*
X16594467Y-12707877D01*
X16594467Y-12707877D02*
X16594467Y-12745973D01*
X16594467Y-12745973D02*
X16603991Y-12765020D01*
X16603991Y-12765020D02*
X16613515Y-12774544D01*
X16613515Y-12774544D02*
X16632562Y-12784068D01*
X16632562Y-12784068D02*
X16670658Y-12784068D01*
X16670658Y-12784068D02*
X16689705Y-12774544D01*
X16689705Y-12774544D02*
X16699229Y-12765020D01*
X16699229Y-12765020D02*
X16708753Y-12745973D01*
X16708753Y-12745973D02*
X16708753Y-12707877D01*
X16708753Y-12707877D02*
X16699229Y-12688830D01*
X16699229Y-12688830D02*
X16689705Y-12679306D01*
X16689705Y-12679306D02*
X16670658Y-12669782D01*
X16832563Y-12584068D02*
X16851610Y-12584068D01*
X16851610Y-12584068D02*
X16870658Y-12593592D01*
X16870658Y-12593592D02*
X16880182Y-12603115D01*
X16880182Y-12603115D02*
X16889705Y-12622163D01*
X16889705Y-12622163D02*
X16899229Y-12660258D01*
X16899229Y-12660258D02*
X16899229Y-12707877D01*
X16899229Y-12707877D02*
X16889705Y-12745973D01*
X16889705Y-12745973D02*
X16880182Y-12765020D01*
X16880182Y-12765020D02*
X16870658Y-12774544D01*
X16870658Y-12774544D02*
X16851610Y-12784068D01*
X16851610Y-12784068D02*
X16832563Y-12784068D01*
X16832563Y-12784068D02*
X16813515Y-12774544D01*
X16813515Y-12774544D02*
X16803991Y-12765020D01*
X16803991Y-12765020D02*
X16794467Y-12745973D01*
X16794467Y-12745973D02*
X16784944Y-12707877D01*
X16784944Y-12707877D02*
X16784944Y-12660258D01*
X16784944Y-12660258D02*
X16794467Y-12622163D01*
X16794467Y-12622163D02*
X16803991Y-12603115D01*
X16803991Y-12603115D02*
X16813515Y-12593592D01*
X16813515Y-12593592D02*
X16832563Y-12584068D01*
X17023039Y-12584068D02*
X17042086Y-12584068D01*
X17042086Y-12584068D02*
X17061134Y-12593592D01*
X17061134Y-12593592D02*
X17070658Y-12603115D01*
X17070658Y-12603115D02*
X17080182Y-12622163D01*
X17080182Y-12622163D02*
X17089705Y-12660258D01*
X17089705Y-12660258D02*
X17089705Y-12707877D01*
X17089705Y-12707877D02*
X17080182Y-12745973D01*
X17080182Y-12745973D02*
X17070658Y-12765020D01*
X17070658Y-12765020D02*
X17061134Y-12774544D01*
X17061134Y-12774544D02*
X17042086Y-12784068D01*
X17042086Y-12784068D02*
X17023039Y-12784068D01*
X17023039Y-12784068D02*
X17003991Y-12774544D01*
X17003991Y-12774544D02*
X16994467Y-12765020D01*
X16994467Y-12765020D02*
X16984944Y-12745973D01*
X16984944Y-12745973D02*
X16975420Y-12707877D01*
X16975420Y-12707877D02*
X16975420Y-12660258D01*
X16975420Y-12660258D02*
X16984944Y-12622163D01*
X16984944Y-12622163D02*
X16994467Y-12603115D01*
X16994467Y-12603115D02*
X17003991Y-12593592D01*
X17003991Y-12593592D02*
X17023039Y-12584068D01*
X17175420Y-12784068D02*
X17175420Y-12650734D01*
X17175420Y-12669782D02*
X17184944Y-12660258D01*
X17184944Y-12660258D02*
X17203991Y-12650734D01*
X17203991Y-12650734D02*
X17232563Y-12650734D01*
X17232563Y-12650734D02*
X17251610Y-12660258D01*
X17251610Y-12660258D02*
X17261134Y-12679306D01*
X17261134Y-12679306D02*
X17261134Y-12784068D01*
X17261134Y-12679306D02*
X17270658Y-12660258D01*
X17270658Y-12660258D02*
X17289705Y-12650734D01*
X17289705Y-12650734D02*
X17318277Y-12650734D01*
X17318277Y-12650734D02*
X17337325Y-12660258D01*
X17337325Y-12660258D02*
X17346848Y-12679306D01*
X17346848Y-12679306D02*
X17346848Y-12784068D01*
X17442086Y-12784068D02*
X17442086Y-12650734D01*
X17442086Y-12669782D02*
X17451610Y-12660258D01*
X17451610Y-12660258D02*
X17470658Y-12650734D01*
X17470658Y-12650734D02*
X17499229Y-12650734D01*
X17499229Y-12650734D02*
X17518277Y-12660258D01*
X17518277Y-12660258D02*
X17527801Y-12679306D01*
X17527801Y-12679306D02*
X17527801Y-12784068D01*
X17527801Y-12679306D02*
X17537325Y-12660258D01*
X17537325Y-12660258D02*
X17556372Y-12650734D01*
X17556372Y-12650734D02*
X17584944Y-12650734D01*
X17584944Y-12650734D02*
X17603991Y-12660258D01*
X17603991Y-12660258D02*
X17613515Y-12679306D01*
X17613515Y-12679306D02*
X17613515Y-12784068D01*
X18003991Y-12574544D02*
X17832563Y-12831687D01*
X18261134Y-12584068D02*
X18280182Y-12584068D01*
X18280182Y-12584068D02*
X18299229Y-12593592D01*
X18299229Y-12593592D02*
X18308753Y-12603115D01*
X18308753Y-12603115D02*
X18318277Y-12622163D01*
X18318277Y-12622163D02*
X18327801Y-12660258D01*
X18327801Y-12660258D02*
X18327801Y-12707877D01*
X18327801Y-12707877D02*
X18318277Y-12745973D01*
X18318277Y-12745973D02*
X18308753Y-12765020D01*
X18308753Y-12765020D02*
X18299229Y-12774544D01*
X18299229Y-12774544D02*
X18280182Y-12784068D01*
X18280182Y-12784068D02*
X18261134Y-12784068D01*
X18261134Y-12784068D02*
X18242087Y-12774544D01*
X18242087Y-12774544D02*
X18232563Y-12765020D01*
X18232563Y-12765020D02*
X18223039Y-12745973D01*
X18223039Y-12745973D02*
X18213515Y-12707877D01*
X18213515Y-12707877D02*
X18213515Y-12660258D01*
X18213515Y-12660258D02*
X18223039Y-12622163D01*
X18223039Y-12622163D02*
X18232563Y-12603115D01*
X18232563Y-12603115D02*
X18242087Y-12593592D01*
X18242087Y-12593592D02*
X18261134Y-12584068D01*
X18413515Y-12765020D02*
X18423039Y-12774544D01*
X18423039Y-12774544D02*
X18413515Y-12784068D01*
X18413515Y-12784068D02*
X18403991Y-12774544D01*
X18403991Y-12774544D02*
X18413515Y-12765020D01*
X18413515Y-12765020D02*
X18413515Y-12784068D01*
X18546848Y-12584068D02*
X18565896Y-12584068D01*
X18565896Y-12584068D02*
X18584944Y-12593592D01*
X18584944Y-12593592D02*
X18594468Y-12603115D01*
X18594468Y-12603115D02*
X18603991Y-12622163D01*
X18603991Y-12622163D02*
X18613515Y-12660258D01*
X18613515Y-12660258D02*
X18613515Y-12707877D01*
X18613515Y-12707877D02*
X18603991Y-12745973D01*
X18603991Y-12745973D02*
X18594468Y-12765020D01*
X18594468Y-12765020D02*
X18584944Y-12774544D01*
X18584944Y-12774544D02*
X18565896Y-12784068D01*
X18565896Y-12784068D02*
X18546848Y-12784068D01*
X18546848Y-12784068D02*
X18527801Y-12774544D01*
X18527801Y-12774544D02*
X18518277Y-12765020D01*
X18518277Y-12765020D02*
X18508753Y-12745973D01*
X18508753Y-12745973D02*
X18499229Y-12707877D01*
X18499229Y-12707877D02*
X18499229Y-12660258D01*
X18499229Y-12660258D02*
X18508753Y-12622163D01*
X18508753Y-12622163D02*
X18518277Y-12603115D01*
X18518277Y-12603115D02*
X18527801Y-12593592D01*
X18527801Y-12593592D02*
X18546848Y-12584068D01*
X18680182Y-12584068D02*
X18803991Y-12584068D01*
X18803991Y-12584068D02*
X18737325Y-12660258D01*
X18737325Y-12660258D02*
X18765896Y-12660258D01*
X18765896Y-12660258D02*
X18784944Y-12669782D01*
X18784944Y-12669782D02*
X18794468Y-12679306D01*
X18794468Y-12679306D02*
X18803991Y-12698354D01*
X18803991Y-12698354D02*
X18803991Y-12745973D01*
X18803991Y-12745973D02*
X18794468Y-12765020D01*
X18794468Y-12765020D02*
X18784944Y-12774544D01*
X18784944Y-12774544D02*
X18765896Y-12784068D01*
X18765896Y-12784068D02*
X18708753Y-12784068D01*
X18708753Y-12784068D02*
X18689706Y-12774544D01*
X18689706Y-12774544D02*
X18680182Y-12765020D01*
X18994468Y-12784068D02*
X18880182Y-12784068D01*
X18937325Y-12784068D02*
X18937325Y-12584068D01*
X18937325Y-12584068D02*
X18918277Y-12612639D01*
X18918277Y-12612639D02*
X18899229Y-12631687D01*
X18899229Y-12631687D02*
X18880182Y-12641211D01*
X19175420Y-12584068D02*
X19080182Y-12584068D01*
X19080182Y-12584068D02*
X19070658Y-12679306D01*
X19070658Y-12679306D02*
X19080182Y-12669782D01*
X19080182Y-12669782D02*
X19099229Y-12660258D01*
X19099229Y-12660258D02*
X19146849Y-12660258D01*
X19146849Y-12660258D02*
X19165896Y-12669782D01*
X19165896Y-12669782D02*
X19175420Y-12679306D01*
X19175420Y-12679306D02*
X19184944Y-12698354D01*
X19184944Y-12698354D02*
X19184944Y-12745973D01*
X19184944Y-12745973D02*
X19175420Y-12765020D01*
X19175420Y-12765020D02*
X19165896Y-12774544D01*
X19165896Y-12774544D02*
X19146849Y-12784068D01*
X19146849Y-12784068D02*
X19099229Y-12784068D01*
X19099229Y-12784068D02*
X19080182Y-12774544D01*
X19080182Y-12774544D02*
X19070658Y-12765020D01*
X19261134Y-12584068D02*
X19261134Y-12622163D01*
X19337325Y-12584068D02*
X19337325Y-12622163D01*
X19632563Y-12860258D02*
X19623039Y-12850734D01*
X19623039Y-12850734D02*
X19603991Y-12822163D01*
X19603991Y-12822163D02*
X19594468Y-12803115D01*
X19594468Y-12803115D02*
X19584944Y-12774544D01*
X19584944Y-12774544D02*
X19575420Y-12726925D01*
X19575420Y-12726925D02*
X19575420Y-12688830D01*
X19575420Y-12688830D02*
X19584944Y-12641211D01*
X19584944Y-12641211D02*
X19594468Y-12612639D01*
X19594468Y-12612639D02*
X19603991Y-12593592D01*
X19603991Y-12593592D02*
X19623039Y-12565020D01*
X19623039Y-12565020D02*
X19632563Y-12555496D01*
X19699230Y-12603115D02*
X19708753Y-12593592D01*
X19708753Y-12593592D02*
X19727801Y-12584068D01*
X19727801Y-12584068D02*
X19775420Y-12584068D01*
X19775420Y-12584068D02*
X19794468Y-12593592D01*
X19794468Y-12593592D02*
X19803991Y-12603115D01*
X19803991Y-12603115D02*
X19813515Y-12622163D01*
X19813515Y-12622163D02*
X19813515Y-12641211D01*
X19813515Y-12641211D02*
X19803991Y-12669782D01*
X19803991Y-12669782D02*
X19689706Y-12784068D01*
X19689706Y-12784068D02*
X19813515Y-12784068D01*
X19927801Y-12669782D02*
X19908753Y-12660258D01*
X19908753Y-12660258D02*
X19899230Y-12650734D01*
X19899230Y-12650734D02*
X19889706Y-12631687D01*
X19889706Y-12631687D02*
X19889706Y-12622163D01*
X19889706Y-12622163D02*
X19899230Y-12603115D01*
X19899230Y-12603115D02*
X19908753Y-12593592D01*
X19908753Y-12593592D02*
X19927801Y-12584068D01*
X19927801Y-12584068D02*
X19965896Y-12584068D01*
X19965896Y-12584068D02*
X19984944Y-12593592D01*
X19984944Y-12593592D02*
X19994468Y-12603115D01*
X19994468Y-12603115D02*
X20003991Y-12622163D01*
X20003991Y-12622163D02*
X20003991Y-12631687D01*
X20003991Y-12631687D02*
X19994468Y-12650734D01*
X19994468Y-12650734D02*
X19984944Y-12660258D01*
X19984944Y-12660258D02*
X19965896Y-12669782D01*
X19965896Y-12669782D02*
X19927801Y-12669782D01*
X19927801Y-12669782D02*
X19908753Y-12679306D01*
X19908753Y-12679306D02*
X19899230Y-12688830D01*
X19899230Y-12688830D02*
X19889706Y-12707877D01*
X19889706Y-12707877D02*
X19889706Y-12745973D01*
X19889706Y-12745973D02*
X19899230Y-12765020D01*
X19899230Y-12765020D02*
X19908753Y-12774544D01*
X19908753Y-12774544D02*
X19927801Y-12784068D01*
X19927801Y-12784068D02*
X19965896Y-12784068D01*
X19965896Y-12784068D02*
X19984944Y-12774544D01*
X19984944Y-12774544D02*
X19994468Y-12765020D01*
X19994468Y-12765020D02*
X20003991Y-12745973D01*
X20003991Y-12745973D02*
X20003991Y-12707877D01*
X20003991Y-12707877D02*
X19994468Y-12688830D01*
X19994468Y-12688830D02*
X19984944Y-12679306D01*
X19984944Y-12679306D02*
X19965896Y-12669782D01*
X20242087Y-12784068D02*
X20242087Y-12584068D01*
X20327801Y-12784068D02*
X20327801Y-12679306D01*
X20327801Y-12679306D02*
X20318277Y-12660258D01*
X20318277Y-12660258D02*
X20299230Y-12650734D01*
X20299230Y-12650734D02*
X20270658Y-12650734D01*
X20270658Y-12650734D02*
X20251611Y-12660258D01*
X20251611Y-12660258D02*
X20242087Y-12669782D01*
X20451611Y-12784068D02*
X20432563Y-12774544D01*
X20432563Y-12774544D02*
X20423039Y-12765020D01*
X20423039Y-12765020D02*
X20413515Y-12745973D01*
X20413515Y-12745973D02*
X20413515Y-12688830D01*
X20413515Y-12688830D02*
X20423039Y-12669782D01*
X20423039Y-12669782D02*
X20432563Y-12660258D01*
X20432563Y-12660258D02*
X20451611Y-12650734D01*
X20451611Y-12650734D02*
X20480182Y-12650734D01*
X20480182Y-12650734D02*
X20499230Y-12660258D01*
X20499230Y-12660258D02*
X20508753Y-12669782D01*
X20508753Y-12669782D02*
X20518277Y-12688830D01*
X20518277Y-12688830D02*
X20518277Y-12745973D01*
X20518277Y-12745973D02*
X20508753Y-12765020D01*
X20508753Y-12765020D02*
X20499230Y-12774544D01*
X20499230Y-12774544D02*
X20480182Y-12784068D01*
X20480182Y-12784068D02*
X20451611Y-12784068D01*
X20632563Y-12784068D02*
X20613515Y-12774544D01*
X20613515Y-12774544D02*
X20603992Y-12755496D01*
X20603992Y-12755496D02*
X20603992Y-12584068D01*
X20784944Y-12774544D02*
X20765896Y-12784068D01*
X20765896Y-12784068D02*
X20727801Y-12784068D01*
X20727801Y-12784068D02*
X20708753Y-12774544D01*
X20708753Y-12774544D02*
X20699230Y-12755496D01*
X20699230Y-12755496D02*
X20699230Y-12679306D01*
X20699230Y-12679306D02*
X20708753Y-12660258D01*
X20708753Y-12660258D02*
X20727801Y-12650734D01*
X20727801Y-12650734D02*
X20765896Y-12650734D01*
X20765896Y-12650734D02*
X20784944Y-12660258D01*
X20784944Y-12660258D02*
X20794468Y-12679306D01*
X20794468Y-12679306D02*
X20794468Y-12698354D01*
X20794468Y-12698354D02*
X20699230Y-12717401D01*
X20870658Y-12774544D02*
X20889706Y-12784068D01*
X20889706Y-12784068D02*
X20927801Y-12784068D01*
X20927801Y-12784068D02*
X20946849Y-12774544D01*
X20946849Y-12774544D02*
X20956373Y-12755496D01*
X20956373Y-12755496D02*
X20956373Y-12745973D01*
X20956373Y-12745973D02*
X20946849Y-12726925D01*
X20946849Y-12726925D02*
X20927801Y-12717401D01*
X20927801Y-12717401D02*
X20899230Y-12717401D01*
X20899230Y-12717401D02*
X20880182Y-12707877D01*
X20880182Y-12707877D02*
X20870658Y-12688830D01*
X20870658Y-12688830D02*
X20870658Y-12679306D01*
X20870658Y-12679306D02*
X20880182Y-12660258D01*
X20880182Y-12660258D02*
X20899230Y-12650734D01*
X20899230Y-12650734D02*
X20927801Y-12650734D01*
X20927801Y-12650734D02*
X20946849Y-12660258D01*
X21023039Y-12860258D02*
X21032563Y-12850734D01*
X21032563Y-12850734D02*
X21051611Y-12822163D01*
X21051611Y-12822163D02*
X21061134Y-12803115D01*
X21061134Y-12803115D02*
X21070658Y-12774544D01*
X21070658Y-12774544D02*
X21080182Y-12726925D01*
X21080182Y-12726925D02*
X21080182Y-12688830D01*
X21080182Y-12688830D02*
X21070658Y-12641211D01*
X21070658Y-12641211D02*
X21061134Y-12612639D01*
X21061134Y-12612639D02*
X21051611Y-12593592D01*
X21051611Y-12593592D02*
X21032563Y-12565020D01*
X21032563Y-12565020D02*
X21023039Y-12555496D01*
D12*
X16057500Y-12956584D02*
G75*
G02*
X15957500Y-12956584I-50000J0D01*
G01*
X15957500Y-12956584D02*
G75*
G02*
X16057500Y-12956584I50000J0D01*
G01*
D11*
X16423039Y-13048068D02*
X16308753Y-13048068D01*
X16365896Y-13048068D02*
X16365896Y-12848068D01*
X16365896Y-12848068D02*
X16346848Y-12876639D01*
X16346848Y-12876639D02*
X16327801Y-12895687D01*
X16327801Y-12895687D02*
X16308753Y-12905211D01*
X16508753Y-13029020D02*
X16518277Y-13038544D01*
X16518277Y-13038544D02*
X16508753Y-13048068D01*
X16508753Y-13048068D02*
X16499229Y-13038544D01*
X16499229Y-13038544D02*
X16508753Y-13029020D01*
X16508753Y-13029020D02*
X16508753Y-13048068D01*
X16642086Y-12848068D02*
X16661134Y-12848068D01*
X16661134Y-12848068D02*
X16680182Y-12857592D01*
X16680182Y-12857592D02*
X16689705Y-12867115D01*
X16689705Y-12867115D02*
X16699229Y-12886163D01*
X16699229Y-12886163D02*
X16708753Y-12924258D01*
X16708753Y-12924258D02*
X16708753Y-12971877D01*
X16708753Y-12971877D02*
X16699229Y-13009973D01*
X16699229Y-13009973D02*
X16689705Y-13029020D01*
X16689705Y-13029020D02*
X16680182Y-13038544D01*
X16680182Y-13038544D02*
X16661134Y-13048068D01*
X16661134Y-13048068D02*
X16642086Y-13048068D01*
X16642086Y-13048068D02*
X16623039Y-13038544D01*
X16623039Y-13038544D02*
X16613515Y-13029020D01*
X16613515Y-13029020D02*
X16603991Y-13009973D01*
X16603991Y-13009973D02*
X16594467Y-12971877D01*
X16594467Y-12971877D02*
X16594467Y-12924258D01*
X16594467Y-12924258D02*
X16603991Y-12886163D01*
X16603991Y-12886163D02*
X16613515Y-12867115D01*
X16613515Y-12867115D02*
X16623039Y-12857592D01*
X16623039Y-12857592D02*
X16642086Y-12848068D01*
X16832563Y-12848068D02*
X16851610Y-12848068D01*
X16851610Y-12848068D02*
X16870658Y-12857592D01*
X16870658Y-12857592D02*
X16880182Y-12867115D01*
X16880182Y-12867115D02*
X16889705Y-12886163D01*
X16889705Y-12886163D02*
X16899229Y-12924258D01*
X16899229Y-12924258D02*
X16899229Y-12971877D01*
X16899229Y-12971877D02*
X16889705Y-13009973D01*
X16889705Y-13009973D02*
X16880182Y-13029020D01*
X16880182Y-13029020D02*
X16870658Y-13038544D01*
X16870658Y-13038544D02*
X16851610Y-13048068D01*
X16851610Y-13048068D02*
X16832563Y-13048068D01*
X16832563Y-13048068D02*
X16813515Y-13038544D01*
X16813515Y-13038544D02*
X16803991Y-13029020D01*
X16803991Y-13029020D02*
X16794467Y-13009973D01*
X16794467Y-13009973D02*
X16784944Y-12971877D01*
X16784944Y-12971877D02*
X16784944Y-12924258D01*
X16784944Y-12924258D02*
X16794467Y-12886163D01*
X16794467Y-12886163D02*
X16803991Y-12867115D01*
X16803991Y-12867115D02*
X16813515Y-12857592D01*
X16813515Y-12857592D02*
X16832563Y-12848068D01*
X17023039Y-12848068D02*
X17042086Y-12848068D01*
X17042086Y-12848068D02*
X17061134Y-12857592D01*
X17061134Y-12857592D02*
X17070658Y-12867115D01*
X17070658Y-12867115D02*
X17080182Y-12886163D01*
X17080182Y-12886163D02*
X17089705Y-12924258D01*
X17089705Y-12924258D02*
X17089705Y-12971877D01*
X17089705Y-12971877D02*
X17080182Y-13009973D01*
X17080182Y-13009973D02*
X17070658Y-13029020D01*
X17070658Y-13029020D02*
X17061134Y-13038544D01*
X17061134Y-13038544D02*
X17042086Y-13048068D01*
X17042086Y-13048068D02*
X17023039Y-13048068D01*
X17023039Y-13048068D02*
X17003991Y-13038544D01*
X17003991Y-13038544D02*
X16994467Y-13029020D01*
X16994467Y-13029020D02*
X16984944Y-13009973D01*
X16984944Y-13009973D02*
X16975420Y-12971877D01*
X16975420Y-12971877D02*
X16975420Y-12924258D01*
X16975420Y-12924258D02*
X16984944Y-12886163D01*
X16984944Y-12886163D02*
X16994467Y-12867115D01*
X16994467Y-12867115D02*
X17003991Y-12857592D01*
X17003991Y-12857592D02*
X17023039Y-12848068D01*
X17175420Y-13048068D02*
X17175420Y-12914734D01*
X17175420Y-12933782D02*
X17184944Y-12924258D01*
X17184944Y-12924258D02*
X17203991Y-12914734D01*
X17203991Y-12914734D02*
X17232563Y-12914734D01*
X17232563Y-12914734D02*
X17251610Y-12924258D01*
X17251610Y-12924258D02*
X17261134Y-12943306D01*
X17261134Y-12943306D02*
X17261134Y-13048068D01*
X17261134Y-12943306D02*
X17270658Y-12924258D01*
X17270658Y-12924258D02*
X17289705Y-12914734D01*
X17289705Y-12914734D02*
X17318277Y-12914734D01*
X17318277Y-12914734D02*
X17337325Y-12924258D01*
X17337325Y-12924258D02*
X17346848Y-12943306D01*
X17346848Y-12943306D02*
X17346848Y-13048068D01*
X17442086Y-13048068D02*
X17442086Y-12914734D01*
X17442086Y-12933782D02*
X17451610Y-12924258D01*
X17451610Y-12924258D02*
X17470658Y-12914734D01*
X17470658Y-12914734D02*
X17499229Y-12914734D01*
X17499229Y-12914734D02*
X17518277Y-12924258D01*
X17518277Y-12924258D02*
X17527801Y-12943306D01*
X17527801Y-12943306D02*
X17527801Y-13048068D01*
X17527801Y-12943306D02*
X17537325Y-12924258D01*
X17537325Y-12924258D02*
X17556372Y-12914734D01*
X17556372Y-12914734D02*
X17584944Y-12914734D01*
X17584944Y-12914734D02*
X17603991Y-12924258D01*
X17603991Y-12924258D02*
X17613515Y-12943306D01*
X17613515Y-12943306D02*
X17613515Y-13048068D01*
X18003991Y-12838544D02*
X17832563Y-13095687D01*
X18261134Y-12848068D02*
X18280182Y-12848068D01*
X18280182Y-12848068D02*
X18299229Y-12857592D01*
X18299229Y-12857592D02*
X18308753Y-12867115D01*
X18308753Y-12867115D02*
X18318277Y-12886163D01*
X18318277Y-12886163D02*
X18327801Y-12924258D01*
X18327801Y-12924258D02*
X18327801Y-12971877D01*
X18327801Y-12971877D02*
X18318277Y-13009973D01*
X18318277Y-13009973D02*
X18308753Y-13029020D01*
X18308753Y-13029020D02*
X18299229Y-13038544D01*
X18299229Y-13038544D02*
X18280182Y-13048068D01*
X18280182Y-13048068D02*
X18261134Y-13048068D01*
X18261134Y-13048068D02*
X18242087Y-13038544D01*
X18242087Y-13038544D02*
X18232563Y-13029020D01*
X18232563Y-13029020D02*
X18223039Y-13009973D01*
X18223039Y-13009973D02*
X18213515Y-12971877D01*
X18213515Y-12971877D02*
X18213515Y-12924258D01*
X18213515Y-12924258D02*
X18223039Y-12886163D01*
X18223039Y-12886163D02*
X18232563Y-12867115D01*
X18232563Y-12867115D02*
X18242087Y-12857592D01*
X18242087Y-12857592D02*
X18261134Y-12848068D01*
X18413515Y-13029020D02*
X18423039Y-13038544D01*
X18423039Y-13038544D02*
X18413515Y-13048068D01*
X18413515Y-13048068D02*
X18403991Y-13038544D01*
X18403991Y-13038544D02*
X18413515Y-13029020D01*
X18413515Y-13029020D02*
X18413515Y-13048068D01*
X18546848Y-12848068D02*
X18565896Y-12848068D01*
X18565896Y-12848068D02*
X18584944Y-12857592D01*
X18584944Y-12857592D02*
X18594468Y-12867115D01*
X18594468Y-12867115D02*
X18603991Y-12886163D01*
X18603991Y-12886163D02*
X18613515Y-12924258D01*
X18613515Y-12924258D02*
X18613515Y-12971877D01*
X18613515Y-12971877D02*
X18603991Y-13009973D01*
X18603991Y-13009973D02*
X18594468Y-13029020D01*
X18594468Y-13029020D02*
X18584944Y-13038544D01*
X18584944Y-13038544D02*
X18565896Y-13048068D01*
X18565896Y-13048068D02*
X18546848Y-13048068D01*
X18546848Y-13048068D02*
X18527801Y-13038544D01*
X18527801Y-13038544D02*
X18518277Y-13029020D01*
X18518277Y-13029020D02*
X18508753Y-13009973D01*
X18508753Y-13009973D02*
X18499229Y-12971877D01*
X18499229Y-12971877D02*
X18499229Y-12924258D01*
X18499229Y-12924258D02*
X18508753Y-12886163D01*
X18508753Y-12886163D02*
X18518277Y-12867115D01*
X18518277Y-12867115D02*
X18527801Y-12857592D01*
X18527801Y-12857592D02*
X18546848Y-12848068D01*
X18680182Y-12848068D02*
X18803991Y-12848068D01*
X18803991Y-12848068D02*
X18737325Y-12924258D01*
X18737325Y-12924258D02*
X18765896Y-12924258D01*
X18765896Y-12924258D02*
X18784944Y-12933782D01*
X18784944Y-12933782D02*
X18794468Y-12943306D01*
X18794468Y-12943306D02*
X18803991Y-12962354D01*
X18803991Y-12962354D02*
X18803991Y-13009973D01*
X18803991Y-13009973D02*
X18794468Y-13029020D01*
X18794468Y-13029020D02*
X18784944Y-13038544D01*
X18784944Y-13038544D02*
X18765896Y-13048068D01*
X18765896Y-13048068D02*
X18708753Y-13048068D01*
X18708753Y-13048068D02*
X18689706Y-13038544D01*
X18689706Y-13038544D02*
X18680182Y-13029020D01*
X18899229Y-13048068D02*
X18937325Y-13048068D01*
X18937325Y-13048068D02*
X18956372Y-13038544D01*
X18956372Y-13038544D02*
X18965896Y-13029020D01*
X18965896Y-13029020D02*
X18984944Y-13000449D01*
X18984944Y-13000449D02*
X18994468Y-12962354D01*
X18994468Y-12962354D02*
X18994468Y-12886163D01*
X18994468Y-12886163D02*
X18984944Y-12867115D01*
X18984944Y-12867115D02*
X18975420Y-12857592D01*
X18975420Y-12857592D02*
X18956372Y-12848068D01*
X18956372Y-12848068D02*
X18918277Y-12848068D01*
X18918277Y-12848068D02*
X18899229Y-12857592D01*
X18899229Y-12857592D02*
X18889706Y-12867115D01*
X18889706Y-12867115D02*
X18880182Y-12886163D01*
X18880182Y-12886163D02*
X18880182Y-12933782D01*
X18880182Y-12933782D02*
X18889706Y-12952830D01*
X18889706Y-12952830D02*
X18899229Y-12962354D01*
X18899229Y-12962354D02*
X18918277Y-12971877D01*
X18918277Y-12971877D02*
X18956372Y-12971877D01*
X18956372Y-12971877D02*
X18975420Y-12962354D01*
X18975420Y-12962354D02*
X18984944Y-12952830D01*
X18984944Y-12952830D02*
X18994468Y-12933782D01*
X19165896Y-12914734D02*
X19165896Y-13048068D01*
X19118277Y-12838544D02*
X19070658Y-12981401D01*
X19070658Y-12981401D02*
X19194468Y-12981401D01*
X19261134Y-12848068D02*
X19261134Y-12886163D01*
X19337325Y-12848068D02*
X19337325Y-12886163D01*
X19632563Y-13124258D02*
X19623039Y-13114734D01*
X19623039Y-13114734D02*
X19603991Y-13086163D01*
X19603991Y-13086163D02*
X19594468Y-13067115D01*
X19594468Y-13067115D02*
X19584944Y-13038544D01*
X19584944Y-13038544D02*
X19575420Y-12990925D01*
X19575420Y-12990925D02*
X19575420Y-12952830D01*
X19575420Y-12952830D02*
X19584944Y-12905211D01*
X19584944Y-12905211D02*
X19594468Y-12876639D01*
X19594468Y-12876639D02*
X19603991Y-12857592D01*
X19603991Y-12857592D02*
X19623039Y-12829020D01*
X19623039Y-12829020D02*
X19632563Y-12819496D01*
X19813515Y-13048068D02*
X19699230Y-13048068D01*
X19756372Y-13048068D02*
X19756372Y-12848068D01*
X19756372Y-12848068D02*
X19737325Y-12876639D01*
X19737325Y-12876639D02*
X19718277Y-12895687D01*
X19718277Y-12895687D02*
X19699230Y-12905211D01*
X19937325Y-12848068D02*
X19956372Y-12848068D01*
X19956372Y-12848068D02*
X19975420Y-12857592D01*
X19975420Y-12857592D02*
X19984944Y-12867115D01*
X19984944Y-12867115D02*
X19994468Y-12886163D01*
X19994468Y-12886163D02*
X20003991Y-12924258D01*
X20003991Y-12924258D02*
X20003991Y-12971877D01*
X20003991Y-12971877D02*
X19994468Y-13009973D01*
X19994468Y-13009973D02*
X19984944Y-13029020D01*
X19984944Y-13029020D02*
X19975420Y-13038544D01*
X19975420Y-13038544D02*
X19956372Y-13048068D01*
X19956372Y-13048068D02*
X19937325Y-13048068D01*
X19937325Y-13048068D02*
X19918277Y-13038544D01*
X19918277Y-13038544D02*
X19908753Y-13029020D01*
X19908753Y-13029020D02*
X19899230Y-13009973D01*
X19899230Y-13009973D02*
X19889706Y-12971877D01*
X19889706Y-12971877D02*
X19889706Y-12924258D01*
X19889706Y-12924258D02*
X19899230Y-12886163D01*
X19899230Y-12886163D02*
X19908753Y-12867115D01*
X19908753Y-12867115D02*
X19918277Y-12857592D01*
X19918277Y-12857592D02*
X19937325Y-12848068D01*
X20242087Y-13048068D02*
X20242087Y-12848068D01*
X20327801Y-13048068D02*
X20327801Y-12943306D01*
X20327801Y-12943306D02*
X20318277Y-12924258D01*
X20318277Y-12924258D02*
X20299230Y-12914734D01*
X20299230Y-12914734D02*
X20270658Y-12914734D01*
X20270658Y-12914734D02*
X20251611Y-12924258D01*
X20251611Y-12924258D02*
X20242087Y-12933782D01*
X20451611Y-13048068D02*
X20432563Y-13038544D01*
X20432563Y-13038544D02*
X20423039Y-13029020D01*
X20423039Y-13029020D02*
X20413515Y-13009973D01*
X20413515Y-13009973D02*
X20413515Y-12952830D01*
X20413515Y-12952830D02*
X20423039Y-12933782D01*
X20423039Y-12933782D02*
X20432563Y-12924258D01*
X20432563Y-12924258D02*
X20451611Y-12914734D01*
X20451611Y-12914734D02*
X20480182Y-12914734D01*
X20480182Y-12914734D02*
X20499230Y-12924258D01*
X20499230Y-12924258D02*
X20508753Y-12933782D01*
X20508753Y-12933782D02*
X20518277Y-12952830D01*
X20518277Y-12952830D02*
X20518277Y-13009973D01*
X20518277Y-13009973D02*
X20508753Y-13029020D01*
X20508753Y-13029020D02*
X20499230Y-13038544D01*
X20499230Y-13038544D02*
X20480182Y-13048068D01*
X20480182Y-13048068D02*
X20451611Y-13048068D01*
X20632563Y-13048068D02*
X20613515Y-13038544D01*
X20613515Y-13038544D02*
X20603992Y-13019496D01*
X20603992Y-13019496D02*
X20603992Y-12848068D01*
X20784944Y-13038544D02*
X20765896Y-13048068D01*
X20765896Y-13048068D02*
X20727801Y-13048068D01*
X20727801Y-13048068D02*
X20708753Y-13038544D01*
X20708753Y-13038544D02*
X20699230Y-13019496D01*
X20699230Y-13019496D02*
X20699230Y-12943306D01*
X20699230Y-12943306D02*
X20708753Y-12924258D01*
X20708753Y-12924258D02*
X20727801Y-12914734D01*
X20727801Y-12914734D02*
X20765896Y-12914734D01*
X20765896Y-12914734D02*
X20784944Y-12924258D01*
X20784944Y-12924258D02*
X20794468Y-12943306D01*
X20794468Y-12943306D02*
X20794468Y-12962354D01*
X20794468Y-12962354D02*
X20699230Y-12981401D01*
X20870658Y-13038544D02*
X20889706Y-13048068D01*
X20889706Y-13048068D02*
X20927801Y-13048068D01*
X20927801Y-13048068D02*
X20946849Y-13038544D01*
X20946849Y-13038544D02*
X20956373Y-13019496D01*
X20956373Y-13019496D02*
X20956373Y-13009973D01*
X20956373Y-13009973D02*
X20946849Y-12990925D01*
X20946849Y-12990925D02*
X20927801Y-12981401D01*
X20927801Y-12981401D02*
X20899230Y-12981401D01*
X20899230Y-12981401D02*
X20880182Y-12971877D01*
X20880182Y-12971877D02*
X20870658Y-12952830D01*
X20870658Y-12952830D02*
X20870658Y-12943306D01*
X20870658Y-12943306D02*
X20880182Y-12924258D01*
X20880182Y-12924258D02*
X20899230Y-12914734D01*
X20899230Y-12914734D02*
X20927801Y-12914734D01*
X20927801Y-12914734D02*
X20946849Y-12924258D01*
X21023039Y-13124258D02*
X21032563Y-13114734D01*
X21032563Y-13114734D02*
X21051611Y-13086163D01*
X21051611Y-13086163D02*
X21061134Y-13067115D01*
X21061134Y-13067115D02*
X21070658Y-13038544D01*
X21070658Y-13038544D02*
X21080182Y-12990925D01*
X21080182Y-12990925D02*
X21080182Y-12952830D01*
X21080182Y-12952830D02*
X21070658Y-12905211D01*
X21070658Y-12905211D02*
X21061134Y-12876639D01*
X21061134Y-12876639D02*
X21051611Y-12857592D01*
X21051611Y-12857592D02*
X21032563Y-12829020D01*
X21032563Y-12829020D02*
X21023039Y-12819496D01*
M02*
