%TF.GenerationSoftware,KiCad,Pcbnew,8.0.5*%
%TF.CreationDate,2024-11-27T14:25:13+01:00*%
%TF.ProjectId,PCB_TOF_droit,5043425f-544f-4465-9f64-726f69742e6b,rev?*%
%TF.SameCoordinates,Original*%
%TF.FileFunction,Drillmap*%
%TF.FilePolarity,Positive*%
%FSLAX45Y45*%
G04 Gerber Fmt 4.5, Leading zero omitted, Abs format (unit mm)*
G04 Created by KiCad (PCBNEW 8.0.5) date 2024-11-27 14:25:13*
%MOMM*%
%LPD*%
G01*
G04 APERTURE LIST*
%ADD10C,0.050000*%
%ADD11C,0.200000*%
%ADD12C,0.100000*%
G04 APERTURE END LIST*
D10*
X14725000Y-10800000D02*
G75*
G02*
X14475000Y-10550000I0J250000D01*
G01*
X17225000Y-10800000D02*
X14725000Y-10800000D01*
X14475000Y-7400000D02*
G75*
G02*
X14725000Y-7150000I250000J0D01*
G01*
X17225000Y-7150000D02*
G75*
G02*
X17475000Y-7400000I0J-250000D01*
G01*
X17475000Y-7400000D02*
X17475000Y-10550000D01*
X14475000Y-10550000D02*
X14475000Y-7400000D01*
X17475000Y-10550000D02*
G75*
G02*
X17225000Y-10800000I-250000J0D01*
G01*
X14725000Y-7150000D02*
X17225000Y-7150000D01*
D11*
D12*
X14826000Y-9496000D02*
X14906000Y-9576000D01*
X14906000Y-9496000D02*
X14826000Y-9576000D01*
X15306000Y-9396000D02*
X15386000Y-9476000D01*
X15386000Y-9396000D02*
X15306000Y-9476000D01*
X16056000Y-7846000D02*
X16136000Y-7926000D01*
X16136000Y-7846000D02*
X16056000Y-7926000D01*
X16636000Y-8696000D02*
X16716000Y-8776000D01*
X16716000Y-8696000D02*
X16636000Y-8776000D01*
X16636000Y-9446000D02*
X16716000Y-9526000D01*
X16716000Y-9446000D02*
X16636000Y-9526000D01*
X16985000Y-8310000D02*
X17065000Y-8390000D01*
X17065000Y-8310000D02*
X16985000Y-8390000D01*
X15588000Y-10046000D02*
G75*
G02*
X15488000Y-10046000I-50000J0D01*
G01*
X15488000Y-10046000D02*
G75*
G02*
X15588000Y-10046000I50000J0D01*
G01*
X15588000Y-10300000D02*
G75*
G02*
X15488000Y-10300000I-50000J0D01*
G01*
X15488000Y-10300000D02*
G75*
G02*
X15588000Y-10300000I50000J0D01*
G01*
X15842000Y-10046000D02*
G75*
G02*
X15742000Y-10046000I-50000J0D01*
G01*
X15742000Y-10046000D02*
G75*
G02*
X15842000Y-10046000I50000J0D01*
G01*
X15842000Y-10300000D02*
G75*
G02*
X15742000Y-10300000I-50000J0D01*
G01*
X15742000Y-10300000D02*
G75*
G02*
X15842000Y-10300000I50000J0D01*
G01*
X16096000Y-10046000D02*
G75*
G02*
X15996000Y-10046000I-50000J0D01*
G01*
X15996000Y-10046000D02*
G75*
G02*
X16096000Y-10046000I50000J0D01*
G01*
X16096000Y-10300000D02*
G75*
G02*
X15996000Y-10300000I-50000J0D01*
G01*
X15996000Y-10300000D02*
G75*
G02*
X16096000Y-10300000I50000J0D01*
G01*
X16350000Y-10046000D02*
G75*
G02*
X16250000Y-10046000I-50000J0D01*
G01*
X16250000Y-10046000D02*
G75*
G02*
X16350000Y-10046000I50000J0D01*
G01*
X16350000Y-10300000D02*
G75*
G02*
X16250000Y-10300000I-50000J0D01*
G01*
X16250000Y-10300000D02*
G75*
G02*
X16350000Y-10300000I50000J0D01*
G01*
X16604000Y-10046000D02*
G75*
G02*
X16504000Y-10046000I-50000J0D01*
G01*
X16504000Y-10046000D02*
G75*
G02*
X16604000Y-10046000I50000J0D01*
G01*
X16604000Y-10300000D02*
G75*
G02*
X16504000Y-10300000I-50000J0D01*
G01*
X16504000Y-10300000D02*
G75*
G02*
X16604000Y-10300000I50000J0D01*
G01*
D11*
X14733277Y-11113984D02*
X14733277Y-10913984D01*
X14733277Y-10913984D02*
X14780896Y-10913984D01*
X14780896Y-10913984D02*
X14809467Y-10923508D01*
X14809467Y-10923508D02*
X14828515Y-10942555D01*
X14828515Y-10942555D02*
X14838039Y-10961603D01*
X14838039Y-10961603D02*
X14847562Y-10999698D01*
X14847562Y-10999698D02*
X14847562Y-11028270D01*
X14847562Y-11028270D02*
X14838039Y-11066365D01*
X14838039Y-11066365D02*
X14828515Y-11085412D01*
X14828515Y-11085412D02*
X14809467Y-11104460D01*
X14809467Y-11104460D02*
X14780896Y-11113984D01*
X14780896Y-11113984D02*
X14733277Y-11113984D01*
X14933277Y-11113984D02*
X14933277Y-10980650D01*
X14933277Y-11018746D02*
X14942801Y-10999698D01*
X14942801Y-10999698D02*
X14952324Y-10990174D01*
X14952324Y-10990174D02*
X14971372Y-10980650D01*
X14971372Y-10980650D02*
X14990420Y-10980650D01*
X15057086Y-11113984D02*
X15057086Y-10980650D01*
X15057086Y-10913984D02*
X15047562Y-10923508D01*
X15047562Y-10923508D02*
X15057086Y-10933031D01*
X15057086Y-10933031D02*
X15066610Y-10923508D01*
X15066610Y-10923508D02*
X15057086Y-10913984D01*
X15057086Y-10913984D02*
X15057086Y-10933031D01*
X15180896Y-11113984D02*
X15161848Y-11104460D01*
X15161848Y-11104460D02*
X15152324Y-11085412D01*
X15152324Y-11085412D02*
X15152324Y-10913984D01*
X15285658Y-11113984D02*
X15266610Y-11104460D01*
X15266610Y-11104460D02*
X15257086Y-11085412D01*
X15257086Y-11085412D02*
X15257086Y-10913984D01*
X15514229Y-11113984D02*
X15514229Y-10913984D01*
X15514229Y-10913984D02*
X15580896Y-11056841D01*
X15580896Y-11056841D02*
X15647562Y-10913984D01*
X15647562Y-10913984D02*
X15647562Y-11113984D01*
X15828515Y-11113984D02*
X15828515Y-11009222D01*
X15828515Y-11009222D02*
X15818991Y-10990174D01*
X15818991Y-10990174D02*
X15799943Y-10980650D01*
X15799943Y-10980650D02*
X15761848Y-10980650D01*
X15761848Y-10980650D02*
X15742801Y-10990174D01*
X15828515Y-11104460D02*
X15809467Y-11113984D01*
X15809467Y-11113984D02*
X15761848Y-11113984D01*
X15761848Y-11113984D02*
X15742801Y-11104460D01*
X15742801Y-11104460D02*
X15733277Y-11085412D01*
X15733277Y-11085412D02*
X15733277Y-11066365D01*
X15733277Y-11066365D02*
X15742801Y-11047317D01*
X15742801Y-11047317D02*
X15761848Y-11037793D01*
X15761848Y-11037793D02*
X15809467Y-11037793D01*
X15809467Y-11037793D02*
X15828515Y-11028270D01*
X15923753Y-10980650D02*
X15923753Y-11180650D01*
X15923753Y-10990174D02*
X15942801Y-10980650D01*
X15942801Y-10980650D02*
X15980896Y-10980650D01*
X15980896Y-10980650D02*
X15999943Y-10990174D01*
X15999943Y-10990174D02*
X16009467Y-10999698D01*
X16009467Y-10999698D02*
X16018991Y-11018746D01*
X16018991Y-11018746D02*
X16018991Y-11075889D01*
X16018991Y-11075889D02*
X16009467Y-11094936D01*
X16009467Y-11094936D02*
X15999943Y-11104460D01*
X15999943Y-11104460D02*
X15980896Y-11113984D01*
X15980896Y-11113984D02*
X15942801Y-11113984D01*
X15942801Y-11113984D02*
X15923753Y-11104460D01*
X16104705Y-11094936D02*
X16114229Y-11104460D01*
X16114229Y-11104460D02*
X16104705Y-11113984D01*
X16104705Y-11113984D02*
X16095182Y-11104460D01*
X16095182Y-11104460D02*
X16104705Y-11094936D01*
X16104705Y-11094936D02*
X16104705Y-11113984D01*
X16104705Y-10990174D02*
X16114229Y-10999698D01*
X16114229Y-10999698D02*
X16104705Y-11009222D01*
X16104705Y-11009222D02*
X16095182Y-10999698D01*
X16095182Y-10999698D02*
X16104705Y-10990174D01*
X16104705Y-10990174D02*
X16104705Y-11009222D01*
D12*
X14392500Y-11402500D02*
X14472500Y-11482500D01*
X14472500Y-11402500D02*
X14392500Y-11482500D01*
D11*
X14771372Y-11333984D02*
X14790420Y-11333984D01*
X14790420Y-11333984D02*
X14809467Y-11343508D01*
X14809467Y-11343508D02*
X14818991Y-11353031D01*
X14818991Y-11353031D02*
X14828515Y-11372079D01*
X14828515Y-11372079D02*
X14838039Y-11410174D01*
X14838039Y-11410174D02*
X14838039Y-11457793D01*
X14838039Y-11457793D02*
X14828515Y-11495888D01*
X14828515Y-11495888D02*
X14818991Y-11514936D01*
X14818991Y-11514936D02*
X14809467Y-11524460D01*
X14809467Y-11524460D02*
X14790420Y-11533984D01*
X14790420Y-11533984D02*
X14771372Y-11533984D01*
X14771372Y-11533984D02*
X14752324Y-11524460D01*
X14752324Y-11524460D02*
X14742801Y-11514936D01*
X14742801Y-11514936D02*
X14733277Y-11495888D01*
X14733277Y-11495888D02*
X14723753Y-11457793D01*
X14723753Y-11457793D02*
X14723753Y-11410174D01*
X14723753Y-11410174D02*
X14733277Y-11372079D01*
X14733277Y-11372079D02*
X14742801Y-11353031D01*
X14742801Y-11353031D02*
X14752324Y-11343508D01*
X14752324Y-11343508D02*
X14771372Y-11333984D01*
X14923753Y-11514936D02*
X14933277Y-11524460D01*
X14933277Y-11524460D02*
X14923753Y-11533984D01*
X14923753Y-11533984D02*
X14914229Y-11524460D01*
X14914229Y-11524460D02*
X14923753Y-11514936D01*
X14923753Y-11514936D02*
X14923753Y-11533984D01*
X15047562Y-11419698D02*
X15028515Y-11410174D01*
X15028515Y-11410174D02*
X15018991Y-11400650D01*
X15018991Y-11400650D02*
X15009467Y-11381603D01*
X15009467Y-11381603D02*
X15009467Y-11372079D01*
X15009467Y-11372079D02*
X15018991Y-11353031D01*
X15018991Y-11353031D02*
X15028515Y-11343508D01*
X15028515Y-11343508D02*
X15047562Y-11333984D01*
X15047562Y-11333984D02*
X15085658Y-11333984D01*
X15085658Y-11333984D02*
X15104705Y-11343508D01*
X15104705Y-11343508D02*
X15114229Y-11353031D01*
X15114229Y-11353031D02*
X15123753Y-11372079D01*
X15123753Y-11372079D02*
X15123753Y-11381603D01*
X15123753Y-11381603D02*
X15114229Y-11400650D01*
X15114229Y-11400650D02*
X15104705Y-11410174D01*
X15104705Y-11410174D02*
X15085658Y-11419698D01*
X15085658Y-11419698D02*
X15047562Y-11419698D01*
X15047562Y-11419698D02*
X15028515Y-11429222D01*
X15028515Y-11429222D02*
X15018991Y-11438746D01*
X15018991Y-11438746D02*
X15009467Y-11457793D01*
X15009467Y-11457793D02*
X15009467Y-11495888D01*
X15009467Y-11495888D02*
X15018991Y-11514936D01*
X15018991Y-11514936D02*
X15028515Y-11524460D01*
X15028515Y-11524460D02*
X15047562Y-11533984D01*
X15047562Y-11533984D02*
X15085658Y-11533984D01*
X15085658Y-11533984D02*
X15104705Y-11524460D01*
X15104705Y-11524460D02*
X15114229Y-11514936D01*
X15114229Y-11514936D02*
X15123753Y-11495888D01*
X15123753Y-11495888D02*
X15123753Y-11457793D01*
X15123753Y-11457793D02*
X15114229Y-11438746D01*
X15114229Y-11438746D02*
X15104705Y-11429222D01*
X15104705Y-11429222D02*
X15085658Y-11419698D01*
X15247562Y-11333984D02*
X15266610Y-11333984D01*
X15266610Y-11333984D02*
X15285658Y-11343508D01*
X15285658Y-11343508D02*
X15295182Y-11353031D01*
X15295182Y-11353031D02*
X15304705Y-11372079D01*
X15304705Y-11372079D02*
X15314229Y-11410174D01*
X15314229Y-11410174D02*
X15314229Y-11457793D01*
X15314229Y-11457793D02*
X15304705Y-11495888D01*
X15304705Y-11495888D02*
X15295182Y-11514936D01*
X15295182Y-11514936D02*
X15285658Y-11524460D01*
X15285658Y-11524460D02*
X15266610Y-11533984D01*
X15266610Y-11533984D02*
X15247562Y-11533984D01*
X15247562Y-11533984D02*
X15228515Y-11524460D01*
X15228515Y-11524460D02*
X15218991Y-11514936D01*
X15218991Y-11514936D02*
X15209467Y-11495888D01*
X15209467Y-11495888D02*
X15199943Y-11457793D01*
X15199943Y-11457793D02*
X15199943Y-11410174D01*
X15199943Y-11410174D02*
X15209467Y-11372079D01*
X15209467Y-11372079D02*
X15218991Y-11353031D01*
X15218991Y-11353031D02*
X15228515Y-11343508D01*
X15228515Y-11343508D02*
X15247562Y-11333984D01*
X15438039Y-11333984D02*
X15457086Y-11333984D01*
X15457086Y-11333984D02*
X15476134Y-11343508D01*
X15476134Y-11343508D02*
X15485658Y-11353031D01*
X15485658Y-11353031D02*
X15495182Y-11372079D01*
X15495182Y-11372079D02*
X15504705Y-11410174D01*
X15504705Y-11410174D02*
X15504705Y-11457793D01*
X15504705Y-11457793D02*
X15495182Y-11495888D01*
X15495182Y-11495888D02*
X15485658Y-11514936D01*
X15485658Y-11514936D02*
X15476134Y-11524460D01*
X15476134Y-11524460D02*
X15457086Y-11533984D01*
X15457086Y-11533984D02*
X15438039Y-11533984D01*
X15438039Y-11533984D02*
X15418991Y-11524460D01*
X15418991Y-11524460D02*
X15409467Y-11514936D01*
X15409467Y-11514936D02*
X15399943Y-11495888D01*
X15399943Y-11495888D02*
X15390420Y-11457793D01*
X15390420Y-11457793D02*
X15390420Y-11410174D01*
X15390420Y-11410174D02*
X15399943Y-11372079D01*
X15399943Y-11372079D02*
X15409467Y-11353031D01*
X15409467Y-11353031D02*
X15418991Y-11343508D01*
X15418991Y-11343508D02*
X15438039Y-11333984D01*
X15590420Y-11533984D02*
X15590420Y-11400650D01*
X15590420Y-11419698D02*
X15599943Y-11410174D01*
X15599943Y-11410174D02*
X15618991Y-11400650D01*
X15618991Y-11400650D02*
X15647563Y-11400650D01*
X15647563Y-11400650D02*
X15666610Y-11410174D01*
X15666610Y-11410174D02*
X15676134Y-11429222D01*
X15676134Y-11429222D02*
X15676134Y-11533984D01*
X15676134Y-11429222D02*
X15685658Y-11410174D01*
X15685658Y-11410174D02*
X15704705Y-11400650D01*
X15704705Y-11400650D02*
X15733277Y-11400650D01*
X15733277Y-11400650D02*
X15752324Y-11410174D01*
X15752324Y-11410174D02*
X15761848Y-11429222D01*
X15761848Y-11429222D02*
X15761848Y-11533984D01*
X15857086Y-11533984D02*
X15857086Y-11400650D01*
X15857086Y-11419698D02*
X15866610Y-11410174D01*
X15866610Y-11410174D02*
X15885658Y-11400650D01*
X15885658Y-11400650D02*
X15914229Y-11400650D01*
X15914229Y-11400650D02*
X15933277Y-11410174D01*
X15933277Y-11410174D02*
X15942801Y-11429222D01*
X15942801Y-11429222D02*
X15942801Y-11533984D01*
X15942801Y-11429222D02*
X15952324Y-11410174D01*
X15952324Y-11410174D02*
X15971372Y-11400650D01*
X15971372Y-11400650D02*
X15999943Y-11400650D01*
X15999943Y-11400650D02*
X16018991Y-11410174D01*
X16018991Y-11410174D02*
X16028515Y-11429222D01*
X16028515Y-11429222D02*
X16028515Y-11533984D01*
X16418991Y-11324460D02*
X16247563Y-11581603D01*
X16676134Y-11333984D02*
X16695182Y-11333984D01*
X16695182Y-11333984D02*
X16714229Y-11343508D01*
X16714229Y-11343508D02*
X16723753Y-11353031D01*
X16723753Y-11353031D02*
X16733277Y-11372079D01*
X16733277Y-11372079D02*
X16742801Y-11410174D01*
X16742801Y-11410174D02*
X16742801Y-11457793D01*
X16742801Y-11457793D02*
X16733277Y-11495888D01*
X16733277Y-11495888D02*
X16723753Y-11514936D01*
X16723753Y-11514936D02*
X16714229Y-11524460D01*
X16714229Y-11524460D02*
X16695182Y-11533984D01*
X16695182Y-11533984D02*
X16676134Y-11533984D01*
X16676134Y-11533984D02*
X16657086Y-11524460D01*
X16657086Y-11524460D02*
X16647563Y-11514936D01*
X16647563Y-11514936D02*
X16638039Y-11495888D01*
X16638039Y-11495888D02*
X16628515Y-11457793D01*
X16628515Y-11457793D02*
X16628515Y-11410174D01*
X16628515Y-11410174D02*
X16638039Y-11372079D01*
X16638039Y-11372079D02*
X16647563Y-11353031D01*
X16647563Y-11353031D02*
X16657086Y-11343508D01*
X16657086Y-11343508D02*
X16676134Y-11333984D01*
X16828515Y-11514936D02*
X16838039Y-11524460D01*
X16838039Y-11524460D02*
X16828515Y-11533984D01*
X16828515Y-11533984D02*
X16818991Y-11524460D01*
X16818991Y-11524460D02*
X16828515Y-11514936D01*
X16828515Y-11514936D02*
X16828515Y-11533984D01*
X16961848Y-11333984D02*
X16980896Y-11333984D01*
X16980896Y-11333984D02*
X16999944Y-11343508D01*
X16999944Y-11343508D02*
X17009468Y-11353031D01*
X17009468Y-11353031D02*
X17018991Y-11372079D01*
X17018991Y-11372079D02*
X17028515Y-11410174D01*
X17028515Y-11410174D02*
X17028515Y-11457793D01*
X17028515Y-11457793D02*
X17018991Y-11495888D01*
X17018991Y-11495888D02*
X17009468Y-11514936D01*
X17009468Y-11514936D02*
X16999944Y-11524460D01*
X16999944Y-11524460D02*
X16980896Y-11533984D01*
X16980896Y-11533984D02*
X16961848Y-11533984D01*
X16961848Y-11533984D02*
X16942801Y-11524460D01*
X16942801Y-11524460D02*
X16933277Y-11514936D01*
X16933277Y-11514936D02*
X16923753Y-11495888D01*
X16923753Y-11495888D02*
X16914229Y-11457793D01*
X16914229Y-11457793D02*
X16914229Y-11410174D01*
X16914229Y-11410174D02*
X16923753Y-11372079D01*
X16923753Y-11372079D02*
X16933277Y-11353031D01*
X16933277Y-11353031D02*
X16942801Y-11343508D01*
X16942801Y-11343508D02*
X16961848Y-11333984D01*
X17095182Y-11333984D02*
X17218991Y-11333984D01*
X17218991Y-11333984D02*
X17152325Y-11410174D01*
X17152325Y-11410174D02*
X17180896Y-11410174D01*
X17180896Y-11410174D02*
X17199944Y-11419698D01*
X17199944Y-11419698D02*
X17209468Y-11429222D01*
X17209468Y-11429222D02*
X17218991Y-11448269D01*
X17218991Y-11448269D02*
X17218991Y-11495888D01*
X17218991Y-11495888D02*
X17209468Y-11514936D01*
X17209468Y-11514936D02*
X17199944Y-11524460D01*
X17199944Y-11524460D02*
X17180896Y-11533984D01*
X17180896Y-11533984D02*
X17123753Y-11533984D01*
X17123753Y-11533984D02*
X17104706Y-11524460D01*
X17104706Y-11524460D02*
X17095182Y-11514936D01*
X17409468Y-11533984D02*
X17295182Y-11533984D01*
X17352325Y-11533984D02*
X17352325Y-11333984D01*
X17352325Y-11333984D02*
X17333277Y-11362555D01*
X17333277Y-11362555D02*
X17314229Y-11381603D01*
X17314229Y-11381603D02*
X17295182Y-11391127D01*
X17590420Y-11333984D02*
X17495182Y-11333984D01*
X17495182Y-11333984D02*
X17485658Y-11429222D01*
X17485658Y-11429222D02*
X17495182Y-11419698D01*
X17495182Y-11419698D02*
X17514229Y-11410174D01*
X17514229Y-11410174D02*
X17561849Y-11410174D01*
X17561849Y-11410174D02*
X17580896Y-11419698D01*
X17580896Y-11419698D02*
X17590420Y-11429222D01*
X17590420Y-11429222D02*
X17599944Y-11448269D01*
X17599944Y-11448269D02*
X17599944Y-11495888D01*
X17599944Y-11495888D02*
X17590420Y-11514936D01*
X17590420Y-11514936D02*
X17580896Y-11524460D01*
X17580896Y-11524460D02*
X17561849Y-11533984D01*
X17561849Y-11533984D02*
X17514229Y-11533984D01*
X17514229Y-11533984D02*
X17495182Y-11524460D01*
X17495182Y-11524460D02*
X17485658Y-11514936D01*
X17676134Y-11333984D02*
X17676134Y-11372079D01*
X17752325Y-11333984D02*
X17752325Y-11372079D01*
X18047563Y-11610174D02*
X18038039Y-11600650D01*
X18038039Y-11600650D02*
X18018991Y-11572079D01*
X18018991Y-11572079D02*
X18009468Y-11553031D01*
X18009468Y-11553031D02*
X17999944Y-11524460D01*
X17999944Y-11524460D02*
X17990420Y-11476841D01*
X17990420Y-11476841D02*
X17990420Y-11438746D01*
X17990420Y-11438746D02*
X17999944Y-11391127D01*
X17999944Y-11391127D02*
X18009468Y-11362555D01*
X18009468Y-11362555D02*
X18018991Y-11343508D01*
X18018991Y-11343508D02*
X18038039Y-11314936D01*
X18038039Y-11314936D02*
X18047563Y-11305412D01*
X18209468Y-11333984D02*
X18171372Y-11333984D01*
X18171372Y-11333984D02*
X18152325Y-11343508D01*
X18152325Y-11343508D02*
X18142801Y-11353031D01*
X18142801Y-11353031D02*
X18123753Y-11381603D01*
X18123753Y-11381603D02*
X18114230Y-11419698D01*
X18114230Y-11419698D02*
X18114230Y-11495888D01*
X18114230Y-11495888D02*
X18123753Y-11514936D01*
X18123753Y-11514936D02*
X18133277Y-11524460D01*
X18133277Y-11524460D02*
X18152325Y-11533984D01*
X18152325Y-11533984D02*
X18190420Y-11533984D01*
X18190420Y-11533984D02*
X18209468Y-11524460D01*
X18209468Y-11524460D02*
X18218991Y-11514936D01*
X18218991Y-11514936D02*
X18228515Y-11495888D01*
X18228515Y-11495888D02*
X18228515Y-11448269D01*
X18228515Y-11448269D02*
X18218991Y-11429222D01*
X18218991Y-11429222D02*
X18209468Y-11419698D01*
X18209468Y-11419698D02*
X18190420Y-11410174D01*
X18190420Y-11410174D02*
X18152325Y-11410174D01*
X18152325Y-11410174D02*
X18133277Y-11419698D01*
X18133277Y-11419698D02*
X18123753Y-11429222D01*
X18123753Y-11429222D02*
X18114230Y-11448269D01*
X18466611Y-11533984D02*
X18466611Y-11333984D01*
X18552325Y-11533984D02*
X18552325Y-11429222D01*
X18552325Y-11429222D02*
X18542801Y-11410174D01*
X18542801Y-11410174D02*
X18523753Y-11400650D01*
X18523753Y-11400650D02*
X18495182Y-11400650D01*
X18495182Y-11400650D02*
X18476134Y-11410174D01*
X18476134Y-11410174D02*
X18466611Y-11419698D01*
X18676134Y-11533984D02*
X18657087Y-11524460D01*
X18657087Y-11524460D02*
X18647563Y-11514936D01*
X18647563Y-11514936D02*
X18638039Y-11495888D01*
X18638039Y-11495888D02*
X18638039Y-11438746D01*
X18638039Y-11438746D02*
X18647563Y-11419698D01*
X18647563Y-11419698D02*
X18657087Y-11410174D01*
X18657087Y-11410174D02*
X18676134Y-11400650D01*
X18676134Y-11400650D02*
X18704706Y-11400650D01*
X18704706Y-11400650D02*
X18723753Y-11410174D01*
X18723753Y-11410174D02*
X18733277Y-11419698D01*
X18733277Y-11419698D02*
X18742801Y-11438746D01*
X18742801Y-11438746D02*
X18742801Y-11495888D01*
X18742801Y-11495888D02*
X18733277Y-11514936D01*
X18733277Y-11514936D02*
X18723753Y-11524460D01*
X18723753Y-11524460D02*
X18704706Y-11533984D01*
X18704706Y-11533984D02*
X18676134Y-11533984D01*
X18857087Y-11533984D02*
X18838039Y-11524460D01*
X18838039Y-11524460D02*
X18828515Y-11505412D01*
X18828515Y-11505412D02*
X18828515Y-11333984D01*
X19009468Y-11524460D02*
X18990420Y-11533984D01*
X18990420Y-11533984D02*
X18952325Y-11533984D01*
X18952325Y-11533984D02*
X18933277Y-11524460D01*
X18933277Y-11524460D02*
X18923753Y-11505412D01*
X18923753Y-11505412D02*
X18923753Y-11429222D01*
X18923753Y-11429222D02*
X18933277Y-11410174D01*
X18933277Y-11410174D02*
X18952325Y-11400650D01*
X18952325Y-11400650D02*
X18990420Y-11400650D01*
X18990420Y-11400650D02*
X19009468Y-11410174D01*
X19009468Y-11410174D02*
X19018992Y-11429222D01*
X19018992Y-11429222D02*
X19018992Y-11448269D01*
X19018992Y-11448269D02*
X18923753Y-11467317D01*
X19095182Y-11524460D02*
X19114230Y-11533984D01*
X19114230Y-11533984D02*
X19152325Y-11533984D01*
X19152325Y-11533984D02*
X19171373Y-11524460D01*
X19171373Y-11524460D02*
X19180896Y-11505412D01*
X19180896Y-11505412D02*
X19180896Y-11495888D01*
X19180896Y-11495888D02*
X19171373Y-11476841D01*
X19171373Y-11476841D02*
X19152325Y-11467317D01*
X19152325Y-11467317D02*
X19123753Y-11467317D01*
X19123753Y-11467317D02*
X19104706Y-11457793D01*
X19104706Y-11457793D02*
X19095182Y-11438746D01*
X19095182Y-11438746D02*
X19095182Y-11429222D01*
X19095182Y-11429222D02*
X19104706Y-11410174D01*
X19104706Y-11410174D02*
X19123753Y-11400650D01*
X19123753Y-11400650D02*
X19152325Y-11400650D01*
X19152325Y-11400650D02*
X19171373Y-11410174D01*
X19247563Y-11610174D02*
X19257087Y-11600650D01*
X19257087Y-11600650D02*
X19276134Y-11572079D01*
X19276134Y-11572079D02*
X19285658Y-11553031D01*
X19285658Y-11553031D02*
X19295182Y-11524460D01*
X19295182Y-11524460D02*
X19304706Y-11476841D01*
X19304706Y-11476841D02*
X19304706Y-11438746D01*
X19304706Y-11438746D02*
X19295182Y-11391127D01*
X19295182Y-11391127D02*
X19285658Y-11362555D01*
X19285658Y-11362555D02*
X19276134Y-11343508D01*
X19276134Y-11343508D02*
X19257087Y-11314936D01*
X19257087Y-11314936D02*
X19247563Y-11305412D01*
D12*
X14472500Y-11706500D02*
G75*
G02*
X14372500Y-11706500I-50000J0D01*
G01*
X14372500Y-11706500D02*
G75*
G02*
X14472500Y-11706500I50000J0D01*
G01*
D11*
X14838039Y-11797984D02*
X14723753Y-11797984D01*
X14780896Y-11797984D02*
X14780896Y-11597984D01*
X14780896Y-11597984D02*
X14761848Y-11626555D01*
X14761848Y-11626555D02*
X14742801Y-11645603D01*
X14742801Y-11645603D02*
X14723753Y-11655127D01*
X14923753Y-11778936D02*
X14933277Y-11788460D01*
X14933277Y-11788460D02*
X14923753Y-11797984D01*
X14923753Y-11797984D02*
X14914229Y-11788460D01*
X14914229Y-11788460D02*
X14923753Y-11778936D01*
X14923753Y-11778936D02*
X14923753Y-11797984D01*
X15057086Y-11597984D02*
X15076134Y-11597984D01*
X15076134Y-11597984D02*
X15095182Y-11607508D01*
X15095182Y-11607508D02*
X15104705Y-11617031D01*
X15104705Y-11617031D02*
X15114229Y-11636079D01*
X15114229Y-11636079D02*
X15123753Y-11674174D01*
X15123753Y-11674174D02*
X15123753Y-11721793D01*
X15123753Y-11721793D02*
X15114229Y-11759888D01*
X15114229Y-11759888D02*
X15104705Y-11778936D01*
X15104705Y-11778936D02*
X15095182Y-11788460D01*
X15095182Y-11788460D02*
X15076134Y-11797984D01*
X15076134Y-11797984D02*
X15057086Y-11797984D01*
X15057086Y-11797984D02*
X15038039Y-11788460D01*
X15038039Y-11788460D02*
X15028515Y-11778936D01*
X15028515Y-11778936D02*
X15018991Y-11759888D01*
X15018991Y-11759888D02*
X15009467Y-11721793D01*
X15009467Y-11721793D02*
X15009467Y-11674174D01*
X15009467Y-11674174D02*
X15018991Y-11636079D01*
X15018991Y-11636079D02*
X15028515Y-11617031D01*
X15028515Y-11617031D02*
X15038039Y-11607508D01*
X15038039Y-11607508D02*
X15057086Y-11597984D01*
X15247562Y-11597984D02*
X15266610Y-11597984D01*
X15266610Y-11597984D02*
X15285658Y-11607508D01*
X15285658Y-11607508D02*
X15295182Y-11617031D01*
X15295182Y-11617031D02*
X15304705Y-11636079D01*
X15304705Y-11636079D02*
X15314229Y-11674174D01*
X15314229Y-11674174D02*
X15314229Y-11721793D01*
X15314229Y-11721793D02*
X15304705Y-11759888D01*
X15304705Y-11759888D02*
X15295182Y-11778936D01*
X15295182Y-11778936D02*
X15285658Y-11788460D01*
X15285658Y-11788460D02*
X15266610Y-11797984D01*
X15266610Y-11797984D02*
X15247562Y-11797984D01*
X15247562Y-11797984D02*
X15228515Y-11788460D01*
X15228515Y-11788460D02*
X15218991Y-11778936D01*
X15218991Y-11778936D02*
X15209467Y-11759888D01*
X15209467Y-11759888D02*
X15199943Y-11721793D01*
X15199943Y-11721793D02*
X15199943Y-11674174D01*
X15199943Y-11674174D02*
X15209467Y-11636079D01*
X15209467Y-11636079D02*
X15218991Y-11617031D01*
X15218991Y-11617031D02*
X15228515Y-11607508D01*
X15228515Y-11607508D02*
X15247562Y-11597984D01*
X15438039Y-11597984D02*
X15457086Y-11597984D01*
X15457086Y-11597984D02*
X15476134Y-11607508D01*
X15476134Y-11607508D02*
X15485658Y-11617031D01*
X15485658Y-11617031D02*
X15495182Y-11636079D01*
X15495182Y-11636079D02*
X15504705Y-11674174D01*
X15504705Y-11674174D02*
X15504705Y-11721793D01*
X15504705Y-11721793D02*
X15495182Y-11759888D01*
X15495182Y-11759888D02*
X15485658Y-11778936D01*
X15485658Y-11778936D02*
X15476134Y-11788460D01*
X15476134Y-11788460D02*
X15457086Y-11797984D01*
X15457086Y-11797984D02*
X15438039Y-11797984D01*
X15438039Y-11797984D02*
X15418991Y-11788460D01*
X15418991Y-11788460D02*
X15409467Y-11778936D01*
X15409467Y-11778936D02*
X15399943Y-11759888D01*
X15399943Y-11759888D02*
X15390420Y-11721793D01*
X15390420Y-11721793D02*
X15390420Y-11674174D01*
X15390420Y-11674174D02*
X15399943Y-11636079D01*
X15399943Y-11636079D02*
X15409467Y-11617031D01*
X15409467Y-11617031D02*
X15418991Y-11607508D01*
X15418991Y-11607508D02*
X15438039Y-11597984D01*
X15590420Y-11797984D02*
X15590420Y-11664650D01*
X15590420Y-11683698D02*
X15599943Y-11674174D01*
X15599943Y-11674174D02*
X15618991Y-11664650D01*
X15618991Y-11664650D02*
X15647563Y-11664650D01*
X15647563Y-11664650D02*
X15666610Y-11674174D01*
X15666610Y-11674174D02*
X15676134Y-11693222D01*
X15676134Y-11693222D02*
X15676134Y-11797984D01*
X15676134Y-11693222D02*
X15685658Y-11674174D01*
X15685658Y-11674174D02*
X15704705Y-11664650D01*
X15704705Y-11664650D02*
X15733277Y-11664650D01*
X15733277Y-11664650D02*
X15752324Y-11674174D01*
X15752324Y-11674174D02*
X15761848Y-11693222D01*
X15761848Y-11693222D02*
X15761848Y-11797984D01*
X15857086Y-11797984D02*
X15857086Y-11664650D01*
X15857086Y-11683698D02*
X15866610Y-11674174D01*
X15866610Y-11674174D02*
X15885658Y-11664650D01*
X15885658Y-11664650D02*
X15914229Y-11664650D01*
X15914229Y-11664650D02*
X15933277Y-11674174D01*
X15933277Y-11674174D02*
X15942801Y-11693222D01*
X15942801Y-11693222D02*
X15942801Y-11797984D01*
X15942801Y-11693222D02*
X15952324Y-11674174D01*
X15952324Y-11674174D02*
X15971372Y-11664650D01*
X15971372Y-11664650D02*
X15999943Y-11664650D01*
X15999943Y-11664650D02*
X16018991Y-11674174D01*
X16018991Y-11674174D02*
X16028515Y-11693222D01*
X16028515Y-11693222D02*
X16028515Y-11797984D01*
X16418991Y-11588460D02*
X16247563Y-11845603D01*
X16676134Y-11597984D02*
X16695182Y-11597984D01*
X16695182Y-11597984D02*
X16714229Y-11607508D01*
X16714229Y-11607508D02*
X16723753Y-11617031D01*
X16723753Y-11617031D02*
X16733277Y-11636079D01*
X16733277Y-11636079D02*
X16742801Y-11674174D01*
X16742801Y-11674174D02*
X16742801Y-11721793D01*
X16742801Y-11721793D02*
X16733277Y-11759888D01*
X16733277Y-11759888D02*
X16723753Y-11778936D01*
X16723753Y-11778936D02*
X16714229Y-11788460D01*
X16714229Y-11788460D02*
X16695182Y-11797984D01*
X16695182Y-11797984D02*
X16676134Y-11797984D01*
X16676134Y-11797984D02*
X16657086Y-11788460D01*
X16657086Y-11788460D02*
X16647563Y-11778936D01*
X16647563Y-11778936D02*
X16638039Y-11759888D01*
X16638039Y-11759888D02*
X16628515Y-11721793D01*
X16628515Y-11721793D02*
X16628515Y-11674174D01*
X16628515Y-11674174D02*
X16638039Y-11636079D01*
X16638039Y-11636079D02*
X16647563Y-11617031D01*
X16647563Y-11617031D02*
X16657086Y-11607508D01*
X16657086Y-11607508D02*
X16676134Y-11597984D01*
X16828515Y-11778936D02*
X16838039Y-11788460D01*
X16838039Y-11788460D02*
X16828515Y-11797984D01*
X16828515Y-11797984D02*
X16818991Y-11788460D01*
X16818991Y-11788460D02*
X16828515Y-11778936D01*
X16828515Y-11778936D02*
X16828515Y-11797984D01*
X16961848Y-11597984D02*
X16980896Y-11597984D01*
X16980896Y-11597984D02*
X16999944Y-11607508D01*
X16999944Y-11607508D02*
X17009468Y-11617031D01*
X17009468Y-11617031D02*
X17018991Y-11636079D01*
X17018991Y-11636079D02*
X17028515Y-11674174D01*
X17028515Y-11674174D02*
X17028515Y-11721793D01*
X17028515Y-11721793D02*
X17018991Y-11759888D01*
X17018991Y-11759888D02*
X17009468Y-11778936D01*
X17009468Y-11778936D02*
X16999944Y-11788460D01*
X16999944Y-11788460D02*
X16980896Y-11797984D01*
X16980896Y-11797984D02*
X16961848Y-11797984D01*
X16961848Y-11797984D02*
X16942801Y-11788460D01*
X16942801Y-11788460D02*
X16933277Y-11778936D01*
X16933277Y-11778936D02*
X16923753Y-11759888D01*
X16923753Y-11759888D02*
X16914229Y-11721793D01*
X16914229Y-11721793D02*
X16914229Y-11674174D01*
X16914229Y-11674174D02*
X16923753Y-11636079D01*
X16923753Y-11636079D02*
X16933277Y-11617031D01*
X16933277Y-11617031D02*
X16942801Y-11607508D01*
X16942801Y-11607508D02*
X16961848Y-11597984D01*
X17095182Y-11597984D02*
X17218991Y-11597984D01*
X17218991Y-11597984D02*
X17152325Y-11674174D01*
X17152325Y-11674174D02*
X17180896Y-11674174D01*
X17180896Y-11674174D02*
X17199944Y-11683698D01*
X17199944Y-11683698D02*
X17209468Y-11693222D01*
X17209468Y-11693222D02*
X17218991Y-11712269D01*
X17218991Y-11712269D02*
X17218991Y-11759888D01*
X17218991Y-11759888D02*
X17209468Y-11778936D01*
X17209468Y-11778936D02*
X17199944Y-11788460D01*
X17199944Y-11788460D02*
X17180896Y-11797984D01*
X17180896Y-11797984D02*
X17123753Y-11797984D01*
X17123753Y-11797984D02*
X17104706Y-11788460D01*
X17104706Y-11788460D02*
X17095182Y-11778936D01*
X17314229Y-11797984D02*
X17352325Y-11797984D01*
X17352325Y-11797984D02*
X17371372Y-11788460D01*
X17371372Y-11788460D02*
X17380896Y-11778936D01*
X17380896Y-11778936D02*
X17399944Y-11750365D01*
X17399944Y-11750365D02*
X17409468Y-11712269D01*
X17409468Y-11712269D02*
X17409468Y-11636079D01*
X17409468Y-11636079D02*
X17399944Y-11617031D01*
X17399944Y-11617031D02*
X17390420Y-11607508D01*
X17390420Y-11607508D02*
X17371372Y-11597984D01*
X17371372Y-11597984D02*
X17333277Y-11597984D01*
X17333277Y-11597984D02*
X17314229Y-11607508D01*
X17314229Y-11607508D02*
X17304706Y-11617031D01*
X17304706Y-11617031D02*
X17295182Y-11636079D01*
X17295182Y-11636079D02*
X17295182Y-11683698D01*
X17295182Y-11683698D02*
X17304706Y-11702746D01*
X17304706Y-11702746D02*
X17314229Y-11712269D01*
X17314229Y-11712269D02*
X17333277Y-11721793D01*
X17333277Y-11721793D02*
X17371372Y-11721793D01*
X17371372Y-11721793D02*
X17390420Y-11712269D01*
X17390420Y-11712269D02*
X17399944Y-11702746D01*
X17399944Y-11702746D02*
X17409468Y-11683698D01*
X17580896Y-11664650D02*
X17580896Y-11797984D01*
X17533277Y-11588460D02*
X17485658Y-11731317D01*
X17485658Y-11731317D02*
X17609468Y-11731317D01*
X17676134Y-11597984D02*
X17676134Y-11636079D01*
X17752325Y-11597984D02*
X17752325Y-11636079D01*
X18047563Y-11874174D02*
X18038039Y-11864650D01*
X18038039Y-11864650D02*
X18018991Y-11836079D01*
X18018991Y-11836079D02*
X18009468Y-11817031D01*
X18009468Y-11817031D02*
X17999944Y-11788460D01*
X17999944Y-11788460D02*
X17990420Y-11740841D01*
X17990420Y-11740841D02*
X17990420Y-11702746D01*
X17990420Y-11702746D02*
X17999944Y-11655127D01*
X17999944Y-11655127D02*
X18009468Y-11626555D01*
X18009468Y-11626555D02*
X18018991Y-11607508D01*
X18018991Y-11607508D02*
X18038039Y-11578936D01*
X18038039Y-11578936D02*
X18047563Y-11569412D01*
X18228515Y-11797984D02*
X18114230Y-11797984D01*
X18171372Y-11797984D02*
X18171372Y-11597984D01*
X18171372Y-11597984D02*
X18152325Y-11626555D01*
X18152325Y-11626555D02*
X18133277Y-11645603D01*
X18133277Y-11645603D02*
X18114230Y-11655127D01*
X18352325Y-11597984D02*
X18371372Y-11597984D01*
X18371372Y-11597984D02*
X18390420Y-11607508D01*
X18390420Y-11607508D02*
X18399944Y-11617031D01*
X18399944Y-11617031D02*
X18409468Y-11636079D01*
X18409468Y-11636079D02*
X18418991Y-11674174D01*
X18418991Y-11674174D02*
X18418991Y-11721793D01*
X18418991Y-11721793D02*
X18409468Y-11759888D01*
X18409468Y-11759888D02*
X18399944Y-11778936D01*
X18399944Y-11778936D02*
X18390420Y-11788460D01*
X18390420Y-11788460D02*
X18371372Y-11797984D01*
X18371372Y-11797984D02*
X18352325Y-11797984D01*
X18352325Y-11797984D02*
X18333277Y-11788460D01*
X18333277Y-11788460D02*
X18323753Y-11778936D01*
X18323753Y-11778936D02*
X18314230Y-11759888D01*
X18314230Y-11759888D02*
X18304706Y-11721793D01*
X18304706Y-11721793D02*
X18304706Y-11674174D01*
X18304706Y-11674174D02*
X18314230Y-11636079D01*
X18314230Y-11636079D02*
X18323753Y-11617031D01*
X18323753Y-11617031D02*
X18333277Y-11607508D01*
X18333277Y-11607508D02*
X18352325Y-11597984D01*
X18657087Y-11797984D02*
X18657087Y-11597984D01*
X18742801Y-11797984D02*
X18742801Y-11693222D01*
X18742801Y-11693222D02*
X18733277Y-11674174D01*
X18733277Y-11674174D02*
X18714230Y-11664650D01*
X18714230Y-11664650D02*
X18685658Y-11664650D01*
X18685658Y-11664650D02*
X18666611Y-11674174D01*
X18666611Y-11674174D02*
X18657087Y-11683698D01*
X18866611Y-11797984D02*
X18847563Y-11788460D01*
X18847563Y-11788460D02*
X18838039Y-11778936D01*
X18838039Y-11778936D02*
X18828515Y-11759888D01*
X18828515Y-11759888D02*
X18828515Y-11702746D01*
X18828515Y-11702746D02*
X18838039Y-11683698D01*
X18838039Y-11683698D02*
X18847563Y-11674174D01*
X18847563Y-11674174D02*
X18866611Y-11664650D01*
X18866611Y-11664650D02*
X18895182Y-11664650D01*
X18895182Y-11664650D02*
X18914230Y-11674174D01*
X18914230Y-11674174D02*
X18923753Y-11683698D01*
X18923753Y-11683698D02*
X18933277Y-11702746D01*
X18933277Y-11702746D02*
X18933277Y-11759888D01*
X18933277Y-11759888D02*
X18923753Y-11778936D01*
X18923753Y-11778936D02*
X18914230Y-11788460D01*
X18914230Y-11788460D02*
X18895182Y-11797984D01*
X18895182Y-11797984D02*
X18866611Y-11797984D01*
X19047563Y-11797984D02*
X19028515Y-11788460D01*
X19028515Y-11788460D02*
X19018992Y-11769412D01*
X19018992Y-11769412D02*
X19018992Y-11597984D01*
X19199944Y-11788460D02*
X19180896Y-11797984D01*
X19180896Y-11797984D02*
X19142801Y-11797984D01*
X19142801Y-11797984D02*
X19123753Y-11788460D01*
X19123753Y-11788460D02*
X19114230Y-11769412D01*
X19114230Y-11769412D02*
X19114230Y-11693222D01*
X19114230Y-11693222D02*
X19123753Y-11674174D01*
X19123753Y-11674174D02*
X19142801Y-11664650D01*
X19142801Y-11664650D02*
X19180896Y-11664650D01*
X19180896Y-11664650D02*
X19199944Y-11674174D01*
X19199944Y-11674174D02*
X19209468Y-11693222D01*
X19209468Y-11693222D02*
X19209468Y-11712269D01*
X19209468Y-11712269D02*
X19114230Y-11731317D01*
X19285658Y-11788460D02*
X19304706Y-11797984D01*
X19304706Y-11797984D02*
X19342801Y-11797984D01*
X19342801Y-11797984D02*
X19361849Y-11788460D01*
X19361849Y-11788460D02*
X19371373Y-11769412D01*
X19371373Y-11769412D02*
X19371373Y-11759888D01*
X19371373Y-11759888D02*
X19361849Y-11740841D01*
X19361849Y-11740841D02*
X19342801Y-11731317D01*
X19342801Y-11731317D02*
X19314230Y-11731317D01*
X19314230Y-11731317D02*
X19295182Y-11721793D01*
X19295182Y-11721793D02*
X19285658Y-11702746D01*
X19285658Y-11702746D02*
X19285658Y-11693222D01*
X19285658Y-11693222D02*
X19295182Y-11674174D01*
X19295182Y-11674174D02*
X19314230Y-11664650D01*
X19314230Y-11664650D02*
X19342801Y-11664650D01*
X19342801Y-11664650D02*
X19361849Y-11674174D01*
X19438039Y-11874174D02*
X19447563Y-11864650D01*
X19447563Y-11864650D02*
X19466611Y-11836079D01*
X19466611Y-11836079D02*
X19476134Y-11817031D01*
X19476134Y-11817031D02*
X19485658Y-11788460D01*
X19485658Y-11788460D02*
X19495182Y-11740841D01*
X19495182Y-11740841D02*
X19495182Y-11702746D01*
X19495182Y-11702746D02*
X19485658Y-11655127D01*
X19485658Y-11655127D02*
X19476134Y-11626555D01*
X19476134Y-11626555D02*
X19466611Y-11607508D01*
X19466611Y-11607508D02*
X19447563Y-11578936D01*
X19447563Y-11578936D02*
X19438039Y-11569412D01*
M02*
