%TF.GenerationSoftware,KiCad,Pcbnew,8.0.5*%
%TF.CreationDate,2024-11-27T14:25:13+01:00*%
%TF.ProjectId,PCB_TOF_droit,5043425f-544f-4465-9f64-726f69742e6b,rev?*%
%TF.SameCoordinates,Original*%
%TF.FileFunction,Drillmap*%
%TF.FilePolarity,Positive*%
%FSLAX45Y45*%
G04 Gerber Fmt 4.5, Leading zero omitted, Abs format (unit mm)*
G04 Created by KiCad (PCBNEW 8.0.5) date 2024-11-27 14:25:13*
%MOMM*%
%LPD*%
G01*
G04 APERTURE LIST*
%ADD10C,0.050000*%
%ADD11C,0.200000*%
G04 APERTURE END LIST*
D10*
X14725000Y-10800000D02*
G75*
G02*
X14475000Y-10550000I0J250000D01*
G01*
X17225000Y-10800000D02*
X14725000Y-10800000D01*
X14475000Y-7400000D02*
G75*
G02*
X14725000Y-7150000I250000J0D01*
G01*
X17225000Y-7150000D02*
G75*
G02*
X17475000Y-7400000I0J-250000D01*
G01*
X17475000Y-7400000D02*
X17475000Y-10550000D01*
X14475000Y-10550000D02*
X14475000Y-7400000D01*
X17475000Y-10550000D02*
G75*
G02*
X17225000Y-10800000I-250000J0D01*
G01*
X14725000Y-7150000D02*
X17225000Y-7150000D01*
D11*
X14733277Y-11113984D02*
X14733277Y-10913984D01*
X14733277Y-10913984D02*
X14780896Y-10913984D01*
X14780896Y-10913984D02*
X14809467Y-10923508D01*
X14809467Y-10923508D02*
X14828515Y-10942555D01*
X14828515Y-10942555D02*
X14838039Y-10961603D01*
X14838039Y-10961603D02*
X14847562Y-10999698D01*
X14847562Y-10999698D02*
X14847562Y-11028270D01*
X14847562Y-11028270D02*
X14838039Y-11066365D01*
X14838039Y-11066365D02*
X14828515Y-11085412D01*
X14828515Y-11085412D02*
X14809467Y-11104460D01*
X14809467Y-11104460D02*
X14780896Y-11113984D01*
X14780896Y-11113984D02*
X14733277Y-11113984D01*
X14933277Y-11113984D02*
X14933277Y-10980650D01*
X14933277Y-11018746D02*
X14942801Y-10999698D01*
X14942801Y-10999698D02*
X14952324Y-10990174D01*
X14952324Y-10990174D02*
X14971372Y-10980650D01*
X14971372Y-10980650D02*
X14990420Y-10980650D01*
X15057086Y-11113984D02*
X15057086Y-10980650D01*
X15057086Y-10913984D02*
X15047562Y-10923508D01*
X15047562Y-10923508D02*
X15057086Y-10933031D01*
X15057086Y-10933031D02*
X15066610Y-10923508D01*
X15066610Y-10923508D02*
X15057086Y-10913984D01*
X15057086Y-10913984D02*
X15057086Y-10933031D01*
X15180896Y-11113984D02*
X15161848Y-11104460D01*
X15161848Y-11104460D02*
X15152324Y-11085412D01*
X15152324Y-11085412D02*
X15152324Y-10913984D01*
X15285658Y-11113984D02*
X15266610Y-11104460D01*
X15266610Y-11104460D02*
X15257086Y-11085412D01*
X15257086Y-11085412D02*
X15257086Y-10913984D01*
X15514229Y-11113984D02*
X15514229Y-10913984D01*
X15514229Y-10913984D02*
X15580896Y-11056841D01*
X15580896Y-11056841D02*
X15647562Y-10913984D01*
X15647562Y-10913984D02*
X15647562Y-11113984D01*
X15828515Y-11113984D02*
X15828515Y-11009222D01*
X15828515Y-11009222D02*
X15818991Y-10990174D01*
X15818991Y-10990174D02*
X15799943Y-10980650D01*
X15799943Y-10980650D02*
X15761848Y-10980650D01*
X15761848Y-10980650D02*
X15742801Y-10990174D01*
X15828515Y-11104460D02*
X15809467Y-11113984D01*
X15809467Y-11113984D02*
X15761848Y-11113984D01*
X15761848Y-11113984D02*
X15742801Y-11104460D01*
X15742801Y-11104460D02*
X15733277Y-11085412D01*
X15733277Y-11085412D02*
X15733277Y-11066365D01*
X15733277Y-11066365D02*
X15742801Y-11047317D01*
X15742801Y-11047317D02*
X15761848Y-11037793D01*
X15761848Y-11037793D02*
X15809467Y-11037793D01*
X15809467Y-11037793D02*
X15828515Y-11028270D01*
X15923753Y-10980650D02*
X15923753Y-11180650D01*
X15923753Y-10990174D02*
X15942801Y-10980650D01*
X15942801Y-10980650D02*
X15980896Y-10980650D01*
X15980896Y-10980650D02*
X15999943Y-10990174D01*
X15999943Y-10990174D02*
X16009467Y-10999698D01*
X16009467Y-10999698D02*
X16018991Y-11018746D01*
X16018991Y-11018746D02*
X16018991Y-11075889D01*
X16018991Y-11075889D02*
X16009467Y-11094936D01*
X16009467Y-11094936D02*
X15999943Y-11104460D01*
X15999943Y-11104460D02*
X15980896Y-11113984D01*
X15980896Y-11113984D02*
X15942801Y-11113984D01*
X15942801Y-11113984D02*
X15923753Y-11104460D01*
X16104705Y-11094936D02*
X16114229Y-11104460D01*
X16114229Y-11104460D02*
X16104705Y-11113984D01*
X16104705Y-11113984D02*
X16095182Y-11104460D01*
X16095182Y-11104460D02*
X16104705Y-11094936D01*
X16104705Y-11094936D02*
X16104705Y-11113984D01*
X16104705Y-10990174D02*
X16114229Y-10999698D01*
X16114229Y-10999698D02*
X16104705Y-11009222D01*
X16104705Y-11009222D02*
X16095182Y-10999698D01*
X16095182Y-10999698D02*
X16104705Y-10990174D01*
X16104705Y-10990174D02*
X16104705Y-11009222D01*
M02*
