%TF.GenerationSoftware,KiCad,Pcbnew,8.0.5*%
%TF.CreationDate,2024-11-27T14:22:03+01:00*%
%TF.ProjectId,TOF_PCB_COTE,544f465f-5043-4425-9f43-4f54452e6b69,rev?*%
%TF.SameCoordinates,Original*%
%TF.FileFunction,Legend,Bot*%
%TF.FilePolarity,Positive*%
%FSLAX46Y46*%
G04 Gerber Fmt 4.6, Leading zero omitted, Abs format (unit mm)*
G04 Created by KiCad (PCBNEW 8.0.5) date 2024-11-27 14:22:03*
%MOMM*%
%LPD*%
G01*
G04 APERTURE LIST*
%ADD10C,0.150000*%
%ADD11C,0.127000*%
%ADD12C,0.200000*%
G04 APERTURE END LIST*
D10*
X147309819Y-107600714D02*
X148119342Y-107600714D01*
X148119342Y-107600714D02*
X148214580Y-107648333D01*
X148214580Y-107648333D02*
X148262200Y-107695952D01*
X148262200Y-107695952D02*
X148309819Y-107791190D01*
X148309819Y-107791190D02*
X148309819Y-107981666D01*
X148309819Y-107981666D02*
X148262200Y-108076904D01*
X148262200Y-108076904D02*
X148214580Y-108124523D01*
X148214580Y-108124523D02*
X148119342Y-108172142D01*
X148119342Y-108172142D02*
X147309819Y-108172142D01*
X148309819Y-109172142D02*
X148309819Y-108600714D01*
X148309819Y-108886428D02*
X147309819Y-108886428D01*
X147309819Y-108886428D02*
X147452676Y-108791190D01*
X147452676Y-108791190D02*
X147547914Y-108695952D01*
X147547914Y-108695952D02*
X147595533Y-108600714D01*
X147309819Y-109791190D02*
X147309819Y-109886428D01*
X147309819Y-109886428D02*
X147357438Y-109981666D01*
X147357438Y-109981666D02*
X147405057Y-110029285D01*
X147405057Y-110029285D02*
X147500295Y-110076904D01*
X147500295Y-110076904D02*
X147690771Y-110124523D01*
X147690771Y-110124523D02*
X147928866Y-110124523D01*
X147928866Y-110124523D02*
X148119342Y-110076904D01*
X148119342Y-110076904D02*
X148214580Y-110029285D01*
X148214580Y-110029285D02*
X148262200Y-109981666D01*
X148262200Y-109981666D02*
X148309819Y-109886428D01*
X148309819Y-109886428D02*
X148309819Y-109791190D01*
X148309819Y-109791190D02*
X148262200Y-109695952D01*
X148262200Y-109695952D02*
X148214580Y-109648333D01*
X148214580Y-109648333D02*
X148119342Y-109600714D01*
X148119342Y-109600714D02*
X147928866Y-109553095D01*
X147928866Y-109553095D02*
X147690771Y-109553095D01*
X147690771Y-109553095D02*
X147500295Y-109600714D01*
X147500295Y-109600714D02*
X147405057Y-109648333D01*
X147405057Y-109648333D02*
X147357438Y-109695952D01*
X147357438Y-109695952D02*
X147309819Y-109791190D01*
X148309819Y-111076904D02*
X148309819Y-110505476D01*
X148309819Y-110791190D02*
X147309819Y-110791190D01*
X147309819Y-110791190D02*
X147452676Y-110695952D01*
X147452676Y-110695952D02*
X147547914Y-110600714D01*
X147547914Y-110600714D02*
X147595533Y-110505476D01*
D11*
%TO.C,U101*%
X132600000Y-107290000D02*
X132600000Y-113040000D01*
X132600000Y-113040000D02*
X146600000Y-113040000D01*
X146600000Y-107290000D02*
X132600000Y-107290000D01*
X146600000Y-113040000D02*
X146600000Y-107290000D01*
D12*
X134200000Y-113540000D02*
G75*
G02*
X134000000Y-113540000I-100000J0D01*
G01*
X134000000Y-113540000D02*
G75*
G02*
X134200000Y-113540000I100000J0D01*
G01*
%TD*%
M02*
