%TF.GenerationSoftware,KiCad,Pcbnew,8.0.5*%
%TF.CreationDate,2024-11-27T14:45:04+01:00*%
%TF.ProjectId,TOF_PCB_COTE,544f465f-5043-4425-9f43-4f54452e6b69,rev?*%
%TF.SameCoordinates,Original*%
%TF.FileFunction,Copper,L2,Bot*%
%TF.FilePolarity,Positive*%
%FSLAX46Y46*%
G04 Gerber Fmt 4.6, Leading zero omitted, Abs format (unit mm)*
G04 Created by KiCad (PCBNEW 8.0.5) date 2024-11-27 14:45:04*
%MOMM*%
%LPD*%
G01*
G04 APERTURE LIST*
%TA.AperFunction,ComponentPad*%
%ADD10R,1.508000X1.508000*%
%TD*%
%TA.AperFunction,ComponentPad*%
%ADD11C,1.508000*%
%TD*%
%TA.AperFunction,ViaPad*%
%ADD12C,1.200000*%
%TD*%
%TA.AperFunction,Conductor*%
%ADD13C,0.500000*%
%TD*%
G04 APERTURE END LIST*
D10*
%TO.P,U101,1,INT_I*%
%TO.N,/TOF_GPIO1*%
X134520000Y-111540000D03*
D11*
%TO.P,U101,2,SCL_I*%
%TO.N,/I2C_MAIN_SCL*%
X134520000Y-109000000D03*
%TO.P,U101,3,XSDN_I*%
%TO.N,/TOF_XSHUT*%
X137060000Y-111540000D03*
%TO.P,U101,4,SDA_I*%
%TO.N,/I2C_MAIN_SDA*%
X137060000Y-109000000D03*
%TO.P,U101,5,VDD*%
%TO.N,+5V*%
X139600000Y-111540000D03*
%TO.P,U101,6,GND*%
%TO.N,GND*%
X139600000Y-109000000D03*
%TO.P,U101,7,NC*%
%TO.N,unconnected-(U101-NC-Pad7)*%
X142140000Y-111540000D03*
%TO.P,U101,8,NC*%
%TO.N,unconnected-(U101-NC-Pad8)*%
X142140000Y-109000000D03*
%TO.P,U101,9,NC1_I*%
%TO.N,unconnected-(U101-NC1_I-Pad9)*%
X144680000Y-111540000D03*
%TO.P,U101,10,NC0_I*%
%TO.N,unconnected-(U101-NC0_I-Pad10)*%
X144680000Y-109000000D03*
%TD*%
D12*
%TO.N,/TOF_XSHUT*%
X138007537Y-101392463D03*
X149500000Y-95150000D03*
%TO.N,/I2C_MAIN_SCL*%
X127625000Y-106275000D03*
X136000000Y-86050000D03*
%TO.N,+5V*%
X148000000Y-105800000D03*
X142800000Y-102400000D03*
%TO.N,/I2C_MAIN_SDA*%
X129750000Y-104600000D03*
X132000000Y-91400000D03*
%TD*%
D13*
%TO.N,/TOF_XSHUT*%
X138250000Y-101150000D02*
X143500000Y-101150000D01*
X138007537Y-101392463D02*
X138250000Y-101150000D01*
X143500000Y-101150000D02*
X149500000Y-95150000D01*
%TO.N,/I2C_MAIN_SCL*%
X134350000Y-87700000D02*
X129200000Y-87700000D01*
X127250000Y-89650000D02*
X127250000Y-105900000D01*
X129200000Y-87700000D02*
X127250000Y-89650000D01*
X127250000Y-105900000D02*
X127625000Y-106275000D01*
X136000000Y-86050000D02*
X134350000Y-87700000D01*
%TO.N,+5V*%
X143000000Y-102400000D02*
X142800000Y-102400000D01*
X146400000Y-105800000D02*
X143000000Y-102400000D01*
X148000000Y-105800000D02*
X146400000Y-105800000D01*
%TO.N,/I2C_MAIN_SDA*%
X129750000Y-104600000D02*
X129750000Y-93650000D01*
X129750000Y-93650000D02*
X132000000Y-91400000D01*
%TD*%
%TA.AperFunction,Conductor*%
%TO.N,GND*%
G36*
X151003872Y-81500740D02*
G01*
X151233870Y-81515033D01*
X151249109Y-81516934D01*
X151471823Y-81558887D01*
X151486728Y-81562666D01*
X151702509Y-81631863D01*
X151716831Y-81637457D01*
X151922402Y-81732846D01*
X151935916Y-81740168D01*
X152128083Y-81860266D01*
X152140594Y-81869209D01*
X152316418Y-82012180D01*
X152327718Y-82022598D01*
X152484492Y-82186241D01*
X152494423Y-82197988D01*
X152629720Y-82379770D01*
X152638121Y-82392655D01*
X152749870Y-82589788D01*
X152756611Y-82603614D01*
X152843093Y-82813064D01*
X152848070Y-82827618D01*
X152895091Y-82999216D01*
X152899500Y-83031986D01*
X152899500Y-115304823D01*
X152897560Y-115326673D01*
X152858861Y-115542851D01*
X152854895Y-115558812D01*
X152781779Y-115787171D01*
X152775737Y-115802467D01*
X152673038Y-116019154D01*
X152665024Y-116033516D01*
X152534554Y-116234702D01*
X152524710Y-116247877D01*
X152368765Y-116430025D01*
X152357265Y-116441781D01*
X152178580Y-116601696D01*
X152165624Y-116611827D01*
X151967354Y-116746684D01*
X151953172Y-116755011D01*
X151738795Y-116862444D01*
X151723636Y-116868821D01*
X151496935Y-116946937D01*
X151481064Y-116951252D01*
X151246011Y-116998681D01*
X151229710Y-117000858D01*
X150987025Y-117016990D01*
X150978713Y-117017263D01*
X125842046Y-116999613D01*
X125841272Y-116999562D01*
X125771817Y-116999562D01*
X125763744Y-116999299D01*
X125513704Y-116982981D01*
X125497694Y-116980882D01*
X125255880Y-116933001D01*
X125240278Y-116928840D01*
X125006735Y-116849943D01*
X124991807Y-116843791D01*
X124832088Y-116765434D01*
X124770482Y-116735210D01*
X124756488Y-116727174D01*
X124582866Y-116611827D01*
X124551153Y-116590758D01*
X124538314Y-116580966D01*
X124445383Y-116499998D01*
X124352449Y-116419027D01*
X124340994Y-116407652D01*
X124177746Y-116222931D01*
X124167864Y-116210162D01*
X124044036Y-116026601D01*
X124030003Y-116005798D01*
X124021867Y-115991858D01*
X123911733Y-115771317D01*
X123905474Y-115756432D01*
X123824924Y-115523428D01*
X123820660Y-115507876D01*
X123771072Y-115266395D01*
X123768861Y-115250407D01*
X123750823Y-115001091D01*
X123750500Y-114992143D01*
X123750500Y-108999997D01*
X133260708Y-108999997D01*
X133260708Y-109000000D01*
X133279839Y-109218674D01*
X133336653Y-109430703D01*
X133336654Y-109430706D01*
X133336655Y-109430708D01*
X133429419Y-109629642D01*
X133429423Y-109629650D01*
X133555322Y-109809452D01*
X133555327Y-109809458D01*
X133710541Y-109964672D01*
X133710547Y-109964677D01*
X133846576Y-110059925D01*
X133890201Y-110114502D01*
X133897395Y-110184000D01*
X133865872Y-110246355D01*
X133805643Y-110281769D01*
X133775455Y-110285500D01*
X133718130Y-110285500D01*
X133718123Y-110285501D01*
X133658516Y-110291908D01*
X133523671Y-110342202D01*
X133523664Y-110342206D01*
X133408455Y-110428452D01*
X133408452Y-110428455D01*
X133322206Y-110543664D01*
X133322202Y-110543671D01*
X133271908Y-110678517D01*
X133266315Y-110730543D01*
X133265501Y-110738123D01*
X133265500Y-110738135D01*
X133265500Y-112341870D01*
X133265501Y-112341876D01*
X133271908Y-112401483D01*
X133322202Y-112536328D01*
X133322206Y-112536335D01*
X133408452Y-112651544D01*
X133408455Y-112651547D01*
X133523664Y-112737793D01*
X133523671Y-112737797D01*
X133658517Y-112788091D01*
X133658516Y-112788091D01*
X133665444Y-112788835D01*
X133718127Y-112794500D01*
X135321872Y-112794499D01*
X135381483Y-112788091D01*
X135516331Y-112737796D01*
X135631546Y-112651546D01*
X135717796Y-112536331D01*
X135768091Y-112401483D01*
X135774500Y-112341873D01*
X135774499Y-112284545D01*
X135794182Y-112217509D01*
X135846986Y-112171753D01*
X135916144Y-112161809D01*
X135979700Y-112190833D01*
X136000073Y-112213422D01*
X136095326Y-112349457D01*
X136095327Y-112349458D01*
X136250541Y-112504672D01*
X136250547Y-112504677D01*
X136430349Y-112630576D01*
X136430351Y-112630577D01*
X136430354Y-112630579D01*
X136629297Y-112723347D01*
X136841326Y-112780161D01*
X136997521Y-112793826D01*
X137059998Y-112799292D01*
X137060000Y-112799292D01*
X137060002Y-112799292D01*
X137114797Y-112794498D01*
X137278674Y-112780161D01*
X137490703Y-112723347D01*
X137689646Y-112630579D01*
X137869457Y-112504674D01*
X138024674Y-112349457D01*
X138150579Y-112169646D01*
X138217618Y-112025878D01*
X138263790Y-111973439D01*
X138330983Y-111954287D01*
X138397864Y-111974502D01*
X138442382Y-112025879D01*
X138509419Y-112169642D01*
X138509423Y-112169650D01*
X138635322Y-112349452D01*
X138635327Y-112349458D01*
X138790541Y-112504672D01*
X138790547Y-112504677D01*
X138970349Y-112630576D01*
X138970351Y-112630577D01*
X138970354Y-112630579D01*
X139169297Y-112723347D01*
X139381326Y-112780161D01*
X139537521Y-112793826D01*
X139599998Y-112799292D01*
X139600000Y-112799292D01*
X139600002Y-112799292D01*
X139654797Y-112794498D01*
X139818674Y-112780161D01*
X140030703Y-112723347D01*
X140229646Y-112630579D01*
X140409457Y-112504674D01*
X140564674Y-112349457D01*
X140690579Y-112169646D01*
X140757618Y-112025878D01*
X140803790Y-111973439D01*
X140870983Y-111954287D01*
X140937864Y-111974502D01*
X140982382Y-112025879D01*
X141049419Y-112169642D01*
X141049423Y-112169650D01*
X141175322Y-112349452D01*
X141175327Y-112349458D01*
X141330541Y-112504672D01*
X141330547Y-112504677D01*
X141510349Y-112630576D01*
X141510351Y-112630577D01*
X141510354Y-112630579D01*
X141709297Y-112723347D01*
X141921326Y-112780161D01*
X142077521Y-112793826D01*
X142139998Y-112799292D01*
X142140000Y-112799292D01*
X142140002Y-112799292D01*
X142194797Y-112794498D01*
X142358674Y-112780161D01*
X142570703Y-112723347D01*
X142769646Y-112630579D01*
X142949457Y-112504674D01*
X143104674Y-112349457D01*
X143230579Y-112169646D01*
X143297618Y-112025878D01*
X143343790Y-111973439D01*
X143410983Y-111954287D01*
X143477864Y-111974502D01*
X143522382Y-112025879D01*
X143589419Y-112169642D01*
X143589423Y-112169650D01*
X143715322Y-112349452D01*
X143715327Y-112349458D01*
X143870541Y-112504672D01*
X143870547Y-112504677D01*
X144050349Y-112630576D01*
X144050351Y-112630577D01*
X144050354Y-112630579D01*
X144249297Y-112723347D01*
X144461326Y-112780161D01*
X144617521Y-112793826D01*
X144679998Y-112799292D01*
X144680000Y-112799292D01*
X144680002Y-112799292D01*
X144734797Y-112794498D01*
X144898674Y-112780161D01*
X145110703Y-112723347D01*
X145309646Y-112630579D01*
X145489457Y-112504674D01*
X145644674Y-112349457D01*
X145770579Y-112169646D01*
X145863347Y-111970703D01*
X145920161Y-111758674D01*
X145939292Y-111540000D01*
X145920161Y-111321326D01*
X145863347Y-111109297D01*
X145770579Y-110910354D01*
X145770577Y-110910351D01*
X145770576Y-110910349D01*
X145644677Y-110730547D01*
X145644672Y-110730541D01*
X145489458Y-110575327D01*
X145489452Y-110575322D01*
X145309650Y-110449423D01*
X145309642Y-110449419D01*
X145165879Y-110382382D01*
X145113439Y-110336210D01*
X145094287Y-110269017D01*
X145114502Y-110202136D01*
X145165879Y-110157618D01*
X145309646Y-110090579D01*
X145489457Y-109964674D01*
X145644674Y-109809457D01*
X145770579Y-109629646D01*
X145863347Y-109430703D01*
X145920161Y-109218674D01*
X145939292Y-109000000D01*
X145920161Y-108781326D01*
X145863347Y-108569297D01*
X145770579Y-108370354D01*
X145770577Y-108370351D01*
X145770576Y-108370349D01*
X145644677Y-108190547D01*
X145644672Y-108190541D01*
X145489458Y-108035327D01*
X145489452Y-108035322D01*
X145309650Y-107909423D01*
X145309642Y-107909419D01*
X145110708Y-107816655D01*
X145110706Y-107816654D01*
X145110703Y-107816653D01*
X144959885Y-107776240D01*
X144898675Y-107759839D01*
X144898668Y-107759838D01*
X144680002Y-107740708D01*
X144679998Y-107740708D01*
X144461331Y-107759838D01*
X144461324Y-107759839D01*
X144338902Y-107792642D01*
X144249297Y-107816653D01*
X144249295Y-107816653D01*
X144249291Y-107816655D01*
X144050357Y-107909419D01*
X144050349Y-107909423D01*
X143870547Y-108035322D01*
X143870541Y-108035327D01*
X143715327Y-108190541D01*
X143715322Y-108190547D01*
X143589423Y-108370349D01*
X143589419Y-108370357D01*
X143522382Y-108514120D01*
X143476210Y-108566560D01*
X143409017Y-108585712D01*
X143342135Y-108565496D01*
X143297618Y-108514120D01*
X143230580Y-108370357D01*
X143230579Y-108370354D01*
X143230577Y-108370351D01*
X143230576Y-108370349D01*
X143104677Y-108190547D01*
X143104672Y-108190541D01*
X142949458Y-108035327D01*
X142949452Y-108035322D01*
X142769650Y-107909423D01*
X142769642Y-107909419D01*
X142570708Y-107816655D01*
X142570706Y-107816654D01*
X142570703Y-107816653D01*
X142419885Y-107776240D01*
X142358675Y-107759839D01*
X142358668Y-107759838D01*
X142140002Y-107740708D01*
X142139998Y-107740708D01*
X141921331Y-107759838D01*
X141921324Y-107759839D01*
X141798902Y-107792642D01*
X141709297Y-107816653D01*
X141709295Y-107816653D01*
X141709291Y-107816655D01*
X141510357Y-107909419D01*
X141510349Y-107909423D01*
X141330547Y-108035322D01*
X141330541Y-108035327D01*
X141175327Y-108190541D01*
X141175322Y-108190547D01*
X141049423Y-108370349D01*
X141049419Y-108370357D01*
X140956655Y-108569291D01*
X140899839Y-108781324D01*
X140899838Y-108781331D01*
X140880708Y-108999997D01*
X140880708Y-109000000D01*
X140899839Y-109218674D01*
X140956653Y-109430703D01*
X140956654Y-109430706D01*
X140956655Y-109430708D01*
X141049419Y-109629642D01*
X141049423Y-109629650D01*
X141175322Y-109809452D01*
X141175327Y-109809458D01*
X141330541Y-109964672D01*
X141330547Y-109964677D01*
X141510349Y-110090576D01*
X141510351Y-110090577D01*
X141510354Y-110090579D01*
X141594963Y-110130032D01*
X141654120Y-110157618D01*
X141706560Y-110203790D01*
X141725712Y-110270983D01*
X141705496Y-110337865D01*
X141654120Y-110382382D01*
X141510357Y-110449419D01*
X141510349Y-110449423D01*
X141330547Y-110575322D01*
X141330541Y-110575327D01*
X141175327Y-110730541D01*
X141175322Y-110730547D01*
X141049423Y-110910349D01*
X141049419Y-110910357D01*
X140982382Y-111054120D01*
X140936210Y-111106560D01*
X140869017Y-111125712D01*
X140802135Y-111105496D01*
X140757618Y-111054120D01*
X140730032Y-110994963D01*
X140690579Y-110910354D01*
X140690577Y-110910351D01*
X140690576Y-110910349D01*
X140564677Y-110730547D01*
X140564672Y-110730541D01*
X140409458Y-110575327D01*
X140409452Y-110575322D01*
X140229650Y-110449423D01*
X140229642Y-110449419D01*
X140030708Y-110356655D01*
X140030706Y-110356654D01*
X140030703Y-110356653D01*
X139879885Y-110316240D01*
X139818675Y-110299839D01*
X139818668Y-110299838D01*
X139600002Y-110280708D01*
X139599998Y-110280708D01*
X139381331Y-110299838D01*
X139381324Y-110299839D01*
X139258902Y-110332642D01*
X139169297Y-110356653D01*
X139169295Y-110356653D01*
X139169291Y-110356655D01*
X138970357Y-110449419D01*
X138970349Y-110449423D01*
X138790547Y-110575322D01*
X138790541Y-110575327D01*
X138635327Y-110730541D01*
X138635322Y-110730547D01*
X138509423Y-110910349D01*
X138509419Y-110910357D01*
X138442382Y-111054120D01*
X138396210Y-111106560D01*
X138329017Y-111125712D01*
X138262135Y-111105496D01*
X138217618Y-111054120D01*
X138190032Y-110994963D01*
X138150579Y-110910354D01*
X138150577Y-110910351D01*
X138150576Y-110910349D01*
X138024677Y-110730547D01*
X138024672Y-110730541D01*
X137869458Y-110575327D01*
X137869452Y-110575322D01*
X137689650Y-110449423D01*
X137689642Y-110449419D01*
X137545879Y-110382382D01*
X137493439Y-110336210D01*
X137474287Y-110269017D01*
X137494502Y-110202136D01*
X137545879Y-110157618D01*
X137689646Y-110090579D01*
X137869457Y-109964674D01*
X138024674Y-109809457D01*
X138150579Y-109629646D01*
X138243347Y-109430703D01*
X138300161Y-109218674D01*
X138319292Y-109000000D01*
X138300161Y-108781326D01*
X138243347Y-108569297D01*
X138150579Y-108370354D01*
X138150577Y-108370351D01*
X138150576Y-108370349D01*
X138024677Y-108190547D01*
X138024672Y-108190541D01*
X137869458Y-108035327D01*
X137869452Y-108035322D01*
X137689650Y-107909423D01*
X137689642Y-107909419D01*
X137490708Y-107816655D01*
X137490706Y-107816654D01*
X137490703Y-107816653D01*
X137339885Y-107776240D01*
X137278675Y-107759839D01*
X137278668Y-107759838D01*
X137060002Y-107740708D01*
X137059998Y-107740708D01*
X136841331Y-107759838D01*
X136841324Y-107759839D01*
X136718902Y-107792642D01*
X136629297Y-107816653D01*
X136629295Y-107816653D01*
X136629291Y-107816655D01*
X136430357Y-107909419D01*
X136430349Y-107909423D01*
X136250547Y-108035322D01*
X136250541Y-108035327D01*
X136095327Y-108190541D01*
X136095322Y-108190547D01*
X135969423Y-108370349D01*
X135969419Y-108370357D01*
X135902382Y-108514120D01*
X135856210Y-108566560D01*
X135789017Y-108585712D01*
X135722135Y-108565496D01*
X135677618Y-108514120D01*
X135610580Y-108370357D01*
X135610579Y-108370354D01*
X135610577Y-108370351D01*
X135610576Y-108370349D01*
X135484677Y-108190547D01*
X135484672Y-108190541D01*
X135329458Y-108035327D01*
X135329452Y-108035322D01*
X135149650Y-107909423D01*
X135149642Y-107909419D01*
X134950708Y-107816655D01*
X134950706Y-107816654D01*
X134950703Y-107816653D01*
X134799885Y-107776240D01*
X134738675Y-107759839D01*
X134738668Y-107759838D01*
X134520002Y-107740708D01*
X134519998Y-107740708D01*
X134301331Y-107759838D01*
X134301324Y-107759839D01*
X134178902Y-107792642D01*
X134089297Y-107816653D01*
X134089295Y-107816653D01*
X134089291Y-107816655D01*
X133890357Y-107909419D01*
X133890349Y-107909423D01*
X133710547Y-108035322D01*
X133710541Y-108035327D01*
X133555327Y-108190541D01*
X133555322Y-108190547D01*
X133429423Y-108370349D01*
X133429419Y-108370357D01*
X133336655Y-108569291D01*
X133279839Y-108781324D01*
X133279838Y-108781331D01*
X133260708Y-108999997D01*
X123750500Y-108999997D01*
X123750500Y-105973920D01*
X126499499Y-105973920D01*
X126528853Y-106121485D01*
X126530707Y-106157117D01*
X126519785Y-106274998D01*
X126519785Y-106275000D01*
X126538602Y-106478082D01*
X126594417Y-106674247D01*
X126594422Y-106674260D01*
X126685327Y-106856821D01*
X126808237Y-107019581D01*
X126958958Y-107156980D01*
X126958960Y-107156982D01*
X127058141Y-107218392D01*
X127132363Y-107264348D01*
X127322544Y-107338024D01*
X127523024Y-107375500D01*
X127523026Y-107375500D01*
X127726974Y-107375500D01*
X127726976Y-107375500D01*
X127927456Y-107338024D01*
X128117637Y-107264348D01*
X128291041Y-107156981D01*
X128441764Y-107019579D01*
X128564673Y-106856821D01*
X128655582Y-106674250D01*
X128711397Y-106478083D01*
X128730215Y-106275000D01*
X128711397Y-106071917D01*
X128655582Y-105875750D01*
X128564673Y-105693179D01*
X128441764Y-105530421D01*
X128441762Y-105530418D01*
X128291041Y-105393019D01*
X128291039Y-105393017D01*
X128117640Y-105285653D01*
X128117628Y-105285647D01*
X128079705Y-105270956D01*
X128024304Y-105228383D01*
X128000714Y-105162616D01*
X128000500Y-105155330D01*
X128000500Y-104599999D01*
X128644785Y-104599999D01*
X128644785Y-104600000D01*
X128663602Y-104803082D01*
X128719417Y-104999247D01*
X128719422Y-104999260D01*
X128810327Y-105181821D01*
X128933237Y-105344581D01*
X129083958Y-105481980D01*
X129083960Y-105481982D01*
X129162192Y-105530421D01*
X129257363Y-105589348D01*
X129447544Y-105663024D01*
X129648024Y-105700500D01*
X129648026Y-105700500D01*
X129851974Y-105700500D01*
X129851976Y-105700500D01*
X130052456Y-105663024D01*
X130242637Y-105589348D01*
X130416041Y-105481981D01*
X130566764Y-105344579D01*
X130689673Y-105181821D01*
X130780582Y-104999250D01*
X130836397Y-104803083D01*
X130855215Y-104600000D01*
X130836397Y-104396917D01*
X130780582Y-104200750D01*
X130689673Y-104018179D01*
X130566764Y-103855421D01*
X130540960Y-103831897D01*
X130504680Y-103772185D01*
X130500500Y-103740261D01*
X130500500Y-101392462D01*
X136902322Y-101392462D01*
X136902322Y-101392463D01*
X136921139Y-101595545D01*
X136976954Y-101791710D01*
X136976959Y-101791723D01*
X137067864Y-101974284D01*
X137190774Y-102137044D01*
X137341495Y-102274443D01*
X137341497Y-102274445D01*
X137440678Y-102335855D01*
X137514900Y-102381811D01*
X137705081Y-102455487D01*
X137905561Y-102492963D01*
X137905563Y-102492963D01*
X138109511Y-102492963D01*
X138109513Y-102492963D01*
X138309993Y-102455487D01*
X138500174Y-102381811D01*
X138673578Y-102274444D01*
X138824301Y-102137042D01*
X138947210Y-101974284D01*
X138949726Y-101969230D01*
X138997225Y-101917994D01*
X139060727Y-101900500D01*
X141633739Y-101900500D01*
X141700778Y-101920185D01*
X141746533Y-101972989D01*
X141756477Y-102042147D01*
X141753005Y-102058434D01*
X141713603Y-102196915D01*
X141713602Y-102196917D01*
X141694785Y-102399999D01*
X141694785Y-102400000D01*
X141713602Y-102603082D01*
X141769417Y-102799247D01*
X141769422Y-102799260D01*
X141860327Y-102981821D01*
X141983237Y-103144581D01*
X142133958Y-103281980D01*
X142133960Y-103281982D01*
X142233141Y-103343392D01*
X142307363Y-103389348D01*
X142497544Y-103463024D01*
X142698024Y-103500500D01*
X142698026Y-103500500D01*
X142901975Y-103500500D01*
X142901976Y-103500500D01*
X142953282Y-103490909D01*
X143022795Y-103497939D01*
X143063748Y-103525116D01*
X145817049Y-106278416D01*
X145920454Y-106381821D01*
X145921585Y-106382952D01*
X146044498Y-106465080D01*
X146044511Y-106465087D01*
X146181082Y-106521656D01*
X146181087Y-106521658D01*
X146181091Y-106521658D01*
X146181092Y-106521659D01*
X146326079Y-106550500D01*
X146326082Y-106550500D01*
X146326083Y-106550500D01*
X146473917Y-106550500D01*
X147141693Y-106550500D01*
X147208732Y-106570185D01*
X147225231Y-106582863D01*
X147318210Y-106667624D01*
X147325478Y-106674250D01*
X147333958Y-106681980D01*
X147333960Y-106681982D01*
X147433141Y-106743392D01*
X147507363Y-106789348D01*
X147697544Y-106863024D01*
X147898024Y-106900500D01*
X147898026Y-106900500D01*
X148101974Y-106900500D01*
X148101976Y-106900500D01*
X148302456Y-106863024D01*
X148492637Y-106789348D01*
X148666041Y-106681981D01*
X148816764Y-106544579D01*
X148939673Y-106381821D01*
X149030582Y-106199250D01*
X149086397Y-106003083D01*
X149105215Y-105800000D01*
X149086397Y-105596917D01*
X149030582Y-105400750D01*
X149026732Y-105393019D01*
X148973268Y-105285647D01*
X148939673Y-105218179D01*
X148816764Y-105055421D01*
X148816762Y-105055418D01*
X148666041Y-104918019D01*
X148666039Y-104918017D01*
X148492642Y-104810655D01*
X148492635Y-104810651D01*
X148397546Y-104773814D01*
X148302456Y-104736976D01*
X148101976Y-104699500D01*
X147898024Y-104699500D01*
X147697544Y-104736976D01*
X147697541Y-104736976D01*
X147697541Y-104736977D01*
X147507364Y-104810651D01*
X147507357Y-104810655D01*
X147333960Y-104918017D01*
X147333958Y-104918019D01*
X147225231Y-105017137D01*
X147162427Y-105047754D01*
X147141693Y-105049500D01*
X146762229Y-105049500D01*
X146695190Y-105029815D01*
X146674548Y-105013181D01*
X143920012Y-102258645D01*
X143889135Y-102202099D01*
X143887966Y-102202432D01*
X143869361Y-102137042D01*
X143830582Y-102000750D01*
X143830577Y-102000739D01*
X143816092Y-101971649D01*
X143803831Y-101902863D01*
X143830704Y-101838368D01*
X143858197Y-101813277D01*
X143904729Y-101782186D01*
X143978416Y-101732952D01*
X149424548Y-96286818D01*
X149485871Y-96253334D01*
X149512229Y-96250500D01*
X149601974Y-96250500D01*
X149601976Y-96250500D01*
X149802456Y-96213024D01*
X149992637Y-96139348D01*
X150166041Y-96031981D01*
X150316764Y-95894579D01*
X150439673Y-95731821D01*
X150530582Y-95549250D01*
X150586397Y-95353083D01*
X150605215Y-95150000D01*
X150586397Y-94946917D01*
X150530582Y-94750750D01*
X150439673Y-94568179D01*
X150316764Y-94405421D01*
X150316762Y-94405418D01*
X150166041Y-94268019D01*
X150166039Y-94268017D01*
X149992642Y-94160655D01*
X149992635Y-94160651D01*
X149897546Y-94123814D01*
X149802456Y-94086976D01*
X149601976Y-94049500D01*
X149398024Y-94049500D01*
X149197544Y-94086976D01*
X149197541Y-94086976D01*
X149197541Y-94086977D01*
X149007364Y-94160651D01*
X149007357Y-94160655D01*
X148833960Y-94268017D01*
X148833958Y-94268019D01*
X148683237Y-94405418D01*
X148560327Y-94568178D01*
X148469422Y-94750739D01*
X148469417Y-94750752D01*
X148413603Y-94946917D01*
X148394437Y-95153745D01*
X148368651Y-95218682D01*
X148358647Y-95229984D01*
X143225451Y-100363181D01*
X143164128Y-100396666D01*
X143137770Y-100399500D01*
X138514024Y-100399500D01*
X138469231Y-100391127D01*
X138309997Y-100329440D01*
X138309994Y-100329439D01*
X138309993Y-100329439D01*
X138109513Y-100291963D01*
X137905561Y-100291963D01*
X137705081Y-100329439D01*
X137705078Y-100329439D01*
X137705078Y-100329440D01*
X137514901Y-100403114D01*
X137514894Y-100403118D01*
X137341497Y-100510480D01*
X137341495Y-100510482D01*
X137190774Y-100647881D01*
X137067864Y-100810641D01*
X136976959Y-100993202D01*
X136976954Y-100993215D01*
X136921139Y-101189380D01*
X136902322Y-101392462D01*
X130500500Y-101392462D01*
X130500500Y-94012229D01*
X130520185Y-93945190D01*
X130536819Y-93924548D01*
X131924548Y-92536819D01*
X131985871Y-92503334D01*
X132012229Y-92500500D01*
X132101974Y-92500500D01*
X132101976Y-92500500D01*
X132302456Y-92463024D01*
X132492637Y-92389348D01*
X132666041Y-92281981D01*
X132816764Y-92144579D01*
X132939673Y-91981821D01*
X133030582Y-91799250D01*
X133086397Y-91603083D01*
X133105215Y-91400000D01*
X133086397Y-91196917D01*
X133030582Y-91000750D01*
X132939673Y-90818179D01*
X132816764Y-90655421D01*
X132816762Y-90655418D01*
X132666041Y-90518019D01*
X132666039Y-90518017D01*
X132492642Y-90410655D01*
X132492635Y-90410651D01*
X132397546Y-90373814D01*
X132302456Y-90336976D01*
X132101976Y-90299500D01*
X131898024Y-90299500D01*
X131697544Y-90336976D01*
X131697541Y-90336976D01*
X131697541Y-90336977D01*
X131507364Y-90410651D01*
X131507357Y-90410655D01*
X131333960Y-90518017D01*
X131333958Y-90518019D01*
X131183237Y-90655418D01*
X131060327Y-90818178D01*
X130969422Y-91000739D01*
X130969417Y-91000752D01*
X130913602Y-91196917D01*
X130894437Y-91403744D01*
X130868651Y-91468681D01*
X130858647Y-91479983D01*
X129167050Y-93171580D01*
X129167044Y-93171588D01*
X129117812Y-93245268D01*
X129117813Y-93245269D01*
X129084921Y-93294496D01*
X129084914Y-93294508D01*
X129028342Y-93431086D01*
X129028340Y-93431092D01*
X128999500Y-93576079D01*
X128999500Y-103740261D01*
X128979815Y-103807300D01*
X128959040Y-103831897D01*
X128933235Y-103855421D01*
X128810327Y-104018178D01*
X128719422Y-104200739D01*
X128719417Y-104200752D01*
X128663602Y-104396917D01*
X128644785Y-104599999D01*
X128000500Y-104599999D01*
X128000500Y-90012229D01*
X128020185Y-89945190D01*
X128036819Y-89924548D01*
X129474548Y-88486819D01*
X129535871Y-88453334D01*
X129562229Y-88450500D01*
X134423920Y-88450500D01*
X134521462Y-88431096D01*
X134568913Y-88421658D01*
X134705495Y-88365084D01*
X134754729Y-88332186D01*
X134828416Y-88282952D01*
X135924548Y-87186818D01*
X135985871Y-87153334D01*
X136012229Y-87150500D01*
X136101974Y-87150500D01*
X136101976Y-87150500D01*
X136302456Y-87113024D01*
X136492637Y-87039348D01*
X136666041Y-86931981D01*
X136816764Y-86794579D01*
X136939673Y-86631821D01*
X137030582Y-86449250D01*
X137086397Y-86253083D01*
X137105215Y-86050000D01*
X137086397Y-85846917D01*
X137030582Y-85650750D01*
X136939673Y-85468179D01*
X136816764Y-85305421D01*
X136816762Y-85305418D01*
X136666041Y-85168019D01*
X136666039Y-85168017D01*
X136492642Y-85060655D01*
X136492635Y-85060651D01*
X136397546Y-85023814D01*
X136302456Y-84986976D01*
X136101976Y-84949500D01*
X135898024Y-84949500D01*
X135697544Y-84986976D01*
X135697541Y-84986976D01*
X135697541Y-84986977D01*
X135507364Y-85060651D01*
X135507357Y-85060655D01*
X135333960Y-85168017D01*
X135333958Y-85168019D01*
X135183237Y-85305418D01*
X135060327Y-85468178D01*
X134969422Y-85650739D01*
X134969417Y-85650752D01*
X134913603Y-85846917D01*
X134894437Y-86053745D01*
X134868651Y-86118682D01*
X134858647Y-86129984D01*
X134075451Y-86913181D01*
X134014128Y-86946666D01*
X133987770Y-86949500D01*
X129126080Y-86949500D01*
X128981092Y-86978340D01*
X128981082Y-86978343D01*
X128844511Y-87034912D01*
X128844498Y-87034919D01*
X128721584Y-87117048D01*
X128721580Y-87117051D01*
X126667050Y-89171580D01*
X126667044Y-89171588D01*
X126617812Y-89245268D01*
X126617813Y-89245269D01*
X126584921Y-89294496D01*
X126584914Y-89294508D01*
X126528342Y-89431086D01*
X126528340Y-89431092D01*
X126499500Y-89576079D01*
X126499500Y-89576082D01*
X126499500Y-105973918D01*
X126499500Y-105973920D01*
X126499499Y-105973920D01*
X123750500Y-105973920D01*
X123750500Y-83511213D01*
X123750503Y-83510356D01*
X123750522Y-83507606D01*
X123750844Y-83499498D01*
X123768908Y-83250753D01*
X123771133Y-83234721D01*
X123820689Y-82994452D01*
X123824997Y-82978822D01*
X123880096Y-82820193D01*
X123905486Y-82747096D01*
X123911793Y-82732169D01*
X124021847Y-82512927D01*
X124030039Y-82498965D01*
X124167780Y-82295947D01*
X124177725Y-82283174D01*
X124340785Y-82099880D01*
X124352316Y-82088511D01*
X124537901Y-81928073D01*
X124550823Y-81918303D01*
X124755747Y-81783474D01*
X124769851Y-81775465D01*
X124922838Y-81701367D01*
X124990629Y-81668534D01*
X125005636Y-81662442D01*
X125238494Y-81585244D01*
X125254163Y-81581164D01*
X125495106Y-81535022D01*
X125511195Y-81533021D01*
X125760112Y-81518490D01*
X125768185Y-81518283D01*
X125830080Y-81518726D01*
X125830082Y-81518725D01*
X125833232Y-81518748D01*
X125841795Y-81518214D01*
X150996118Y-81500502D01*
X151003872Y-81500740D01*
G37*
%TD.AperFunction*%
%TD*%
M02*
