%TF.GenerationSoftware,KiCad,Pcbnew,8.0.5*%
%TF.CreationDate,2024-11-27T14:25:03+01:00*%
%TF.ProjectId,PCB_TOF_droit,5043425f-544f-4465-9f64-726f69742e6b,rev?*%
%TF.SameCoordinates,Original*%
%TF.FileFunction,Legend,Bot*%
%TF.FilePolarity,Positive*%
%FSLAX46Y46*%
G04 Gerber Fmt 4.6, Leading zero omitted, Abs format (unit mm)*
G04 Created by KiCad (PCBNEW 8.0.5) date 2024-11-27 14:25:03*
%MOMM*%
%LPD*%
G01*
G04 APERTURE LIST*
%ADD10C,0.150000*%
%ADD11C,0.127000*%
%ADD12C,0.200000*%
G04 APERTURE END LIST*
D10*
X168169819Y-100013095D02*
X168979342Y-100013095D01*
X168979342Y-100013095D02*
X169074580Y-100060714D01*
X169074580Y-100060714D02*
X169122200Y-100108333D01*
X169122200Y-100108333D02*
X169169819Y-100203571D01*
X169169819Y-100203571D02*
X169169819Y-100394047D01*
X169169819Y-100394047D02*
X169122200Y-100489285D01*
X169122200Y-100489285D02*
X169074580Y-100536904D01*
X169074580Y-100536904D02*
X168979342Y-100584523D01*
X168979342Y-100584523D02*
X168169819Y-100584523D01*
X169169819Y-101584523D02*
X169169819Y-101013095D01*
X169169819Y-101298809D02*
X168169819Y-101298809D01*
X168169819Y-101298809D02*
X168312676Y-101203571D01*
X168312676Y-101203571D02*
X168407914Y-101108333D01*
X168407914Y-101108333D02*
X168455533Y-101013095D01*
D11*
%TO.C,U1*%
X153460000Y-98750000D02*
X153460000Y-104500000D01*
X153460000Y-104500000D02*
X167460000Y-104500000D01*
X167460000Y-98750000D02*
X153460000Y-98750000D01*
X167460000Y-104500000D02*
X167460000Y-98750000D01*
D12*
X155060000Y-105000000D02*
G75*
G02*
X154860000Y-105000000I-100000J0D01*
G01*
X154860000Y-105000000D02*
G75*
G02*
X155060000Y-105000000I100000J0D01*
G01*
%TD*%
M02*
