%TF.GenerationSoftware,KiCad,Pcbnew,8.0.5*%
%TF.CreationDate,2024-11-27T14:25:03+01:00*%
%TF.ProjectId,PCB_TOF_droit,5043425f-544f-4465-9f64-726f69742e6b,rev?*%
%TF.SameCoordinates,Original*%
%TF.FileFunction,Legend,Top*%
%TF.FilePolarity,Positive*%
%FSLAX46Y46*%
G04 Gerber Fmt 4.6, Leading zero omitted, Abs format (unit mm)*
G04 Created by KiCad (PCBNEW 8.0.5) date 2024-11-27 14:25:03*
%MOMM*%
%LPD*%
G01*
G04 APERTURE LIST*
%ADD10C,0.150000*%
%ADD11C,0.120000*%
%ADD12C,0.200000*%
G04 APERTURE END LIST*
D10*
X153793333Y-80394819D02*
X153460000Y-79918628D01*
X153221905Y-80394819D02*
X153221905Y-79394819D01*
X153221905Y-79394819D02*
X153602857Y-79394819D01*
X153602857Y-79394819D02*
X153698095Y-79442438D01*
X153698095Y-79442438D02*
X153745714Y-79490057D01*
X153745714Y-79490057D02*
X153793333Y-79585295D01*
X153793333Y-79585295D02*
X153793333Y-79728152D01*
X153793333Y-79728152D02*
X153745714Y-79823390D01*
X153745714Y-79823390D02*
X153698095Y-79871009D01*
X153698095Y-79871009D02*
X153602857Y-79918628D01*
X153602857Y-79918628D02*
X153221905Y-79918628D01*
X154745714Y-80394819D02*
X154174286Y-80394819D01*
X154460000Y-80394819D02*
X154460000Y-79394819D01*
X154460000Y-79394819D02*
X154364762Y-79537676D01*
X154364762Y-79537676D02*
X154269524Y-79632914D01*
X154269524Y-79632914D02*
X154174286Y-79680533D01*
X164043333Y-80734819D02*
X163710000Y-80258628D01*
X163471905Y-80734819D02*
X163471905Y-79734819D01*
X163471905Y-79734819D02*
X163852857Y-79734819D01*
X163852857Y-79734819D02*
X163948095Y-79782438D01*
X163948095Y-79782438D02*
X163995714Y-79830057D01*
X163995714Y-79830057D02*
X164043333Y-79925295D01*
X164043333Y-79925295D02*
X164043333Y-80068152D01*
X164043333Y-80068152D02*
X163995714Y-80163390D01*
X163995714Y-80163390D02*
X163948095Y-80211009D01*
X163948095Y-80211009D02*
X163852857Y-80258628D01*
X163852857Y-80258628D02*
X163471905Y-80258628D01*
X164424286Y-79830057D02*
X164471905Y-79782438D01*
X164471905Y-79782438D02*
X164567143Y-79734819D01*
X164567143Y-79734819D02*
X164805238Y-79734819D01*
X164805238Y-79734819D02*
X164900476Y-79782438D01*
X164900476Y-79782438D02*
X164948095Y-79830057D01*
X164948095Y-79830057D02*
X164995714Y-79925295D01*
X164995714Y-79925295D02*
X164995714Y-80020533D01*
X164995714Y-80020533D02*
X164948095Y-80163390D01*
X164948095Y-80163390D02*
X164376667Y-80734819D01*
X164376667Y-80734819D02*
X164995714Y-80734819D01*
X168971905Y-80994819D02*
X168971905Y-79994819D01*
X168971905Y-79994819D02*
X169210000Y-79994819D01*
X169210000Y-79994819D02*
X169352857Y-80042438D01*
X169352857Y-80042438D02*
X169448095Y-80137676D01*
X169448095Y-80137676D02*
X169495714Y-80232914D01*
X169495714Y-80232914D02*
X169543333Y-80423390D01*
X169543333Y-80423390D02*
X169543333Y-80566247D01*
X169543333Y-80566247D02*
X169495714Y-80756723D01*
X169495714Y-80756723D02*
X169448095Y-80851961D01*
X169448095Y-80851961D02*
X169352857Y-80947200D01*
X169352857Y-80947200D02*
X169210000Y-80994819D01*
X169210000Y-80994819D02*
X168971905Y-80994819D01*
X169924286Y-80090057D02*
X169971905Y-80042438D01*
X169971905Y-80042438D02*
X170067143Y-79994819D01*
X170067143Y-79994819D02*
X170305238Y-79994819D01*
X170305238Y-79994819D02*
X170400476Y-80042438D01*
X170400476Y-80042438D02*
X170448095Y-80090057D01*
X170448095Y-80090057D02*
X170495714Y-80185295D01*
X170495714Y-80185295D02*
X170495714Y-80280533D01*
X170495714Y-80280533D02*
X170448095Y-80423390D01*
X170448095Y-80423390D02*
X169876667Y-80994819D01*
X169876667Y-80994819D02*
X170495714Y-80994819D01*
X154849819Y-86443333D02*
X155564104Y-86443333D01*
X155564104Y-86443333D02*
X155706961Y-86490952D01*
X155706961Y-86490952D02*
X155802200Y-86586190D01*
X155802200Y-86586190D02*
X155849819Y-86729047D01*
X155849819Y-86729047D02*
X155849819Y-86824285D01*
X155849819Y-85443333D02*
X155849819Y-86014761D01*
X155849819Y-85729047D02*
X154849819Y-85729047D01*
X154849819Y-85729047D02*
X154992676Y-85824285D01*
X154992676Y-85824285D02*
X155087914Y-85919523D01*
X155087914Y-85919523D02*
X155135533Y-86014761D01*
X153221905Y-78134819D02*
X153221905Y-77134819D01*
X153221905Y-77134819D02*
X153460000Y-77134819D01*
X153460000Y-77134819D02*
X153602857Y-77182438D01*
X153602857Y-77182438D02*
X153698095Y-77277676D01*
X153698095Y-77277676D02*
X153745714Y-77372914D01*
X153745714Y-77372914D02*
X153793333Y-77563390D01*
X153793333Y-77563390D02*
X153793333Y-77706247D01*
X153793333Y-77706247D02*
X153745714Y-77896723D01*
X153745714Y-77896723D02*
X153698095Y-77991961D01*
X153698095Y-77991961D02*
X153602857Y-78087200D01*
X153602857Y-78087200D02*
X153460000Y-78134819D01*
X153460000Y-78134819D02*
X153221905Y-78134819D01*
X154745714Y-78134819D02*
X154174286Y-78134819D01*
X154460000Y-78134819D02*
X154460000Y-77134819D01*
X154460000Y-77134819D02*
X154364762Y-77277676D01*
X154364762Y-77277676D02*
X154269524Y-77372914D01*
X154269524Y-77372914D02*
X154174286Y-77420533D01*
D11*
%TO.C,R1*%
X157042379Y-78730000D02*
X157377621Y-78730000D01*
X157042379Y-79490000D02*
X157377621Y-79490000D01*
%TO.C,R2*%
X164377621Y-78730000D02*
X164042379Y-78730000D01*
X164377621Y-79490000D02*
X164042379Y-79490000D01*
%TO.C,D2*%
X168910000Y-79845000D02*
X171370000Y-79845000D01*
X171370000Y-78375000D02*
X168910000Y-78375000D01*
X171370000Y-79845000D02*
X171370000Y-78375000D01*
D12*
%TO.C,J1*%
X158995000Y-81850000D02*
X158995000Y-81850000D01*
X158995000Y-81850000D02*
X162425000Y-81850000D01*
X158995000Y-88370000D02*
X158995000Y-88370000D01*
X162425000Y-81850000D02*
X162425000Y-81850000D01*
X162425000Y-88370000D02*
X158995000Y-88370000D01*
X162425000Y-88370000D02*
X162425000Y-88370000D01*
X162845000Y-88935000D02*
G75*
G02*
X162645000Y-88935000I-100000J0D01*
G01*
X162645000Y-88935000D02*
G75*
G02*
X162845000Y-88935000I100000J0D01*
G01*
D11*
%TO.C,D1*%
X152300000Y-78375000D02*
X152300000Y-79845000D01*
X152300000Y-79845000D02*
X154760000Y-79845000D01*
X154760000Y-78375000D02*
X152300000Y-78375000D01*
%TD*%
M02*
