%TF.GenerationSoftware,KiCad,Pcbnew,8.0.5*%
%TF.CreationDate,2024-11-27T14:49:01+01:00*%
%TF.ProjectId,PCB_TOF_droit,5043425f-544f-4465-9f64-726f69742e6b,rev?*%
%TF.SameCoordinates,Original*%
%TF.FileFunction,Copper,L2,Bot*%
%TF.FilePolarity,Positive*%
%FSLAX46Y46*%
G04 Gerber Fmt 4.6, Leading zero omitted, Abs format (unit mm)*
G04 Created by KiCad (PCBNEW 8.0.5) date 2024-11-27 14:49:01*
%MOMM*%
%LPD*%
G01*
G04 APERTURE LIST*
%TA.AperFunction,ComponentPad*%
%ADD10R,1.508000X1.508000*%
%TD*%
%TA.AperFunction,ComponentPad*%
%ADD11C,1.508000*%
%TD*%
%TA.AperFunction,ViaPad*%
%ADD12C,1.200000*%
%TD*%
%TA.AperFunction,Conductor*%
%ADD13C,0.500000*%
%TD*%
G04 APERTURE END LIST*
D10*
%TO.P,U1,1,INT_I*%
%TO.N,/TOF_GPIO*%
X155380000Y-103000000D03*
D11*
%TO.P,U1,2,SCL_I*%
%TO.N,/I2C_SCL*%
X155380000Y-100460000D03*
%TO.P,U1,3,XSDN_I*%
%TO.N,/TOF_XSHUT*%
X157920000Y-103000000D03*
%TO.P,U1,4,SDA_I*%
%TO.N,/I2C_SDA*%
X157920000Y-100460000D03*
%TO.P,U1,5,VDD*%
%TO.N,+5V*%
X160460000Y-103000000D03*
%TO.P,U1,6,GND*%
%TO.N,GND*%
X160460000Y-100460000D03*
%TO.P,U1,7,NC*%
%TO.N,unconnected-(U1-NC-Pad7)*%
X163000000Y-103000000D03*
%TO.P,U1,8,NC*%
%TO.N,unconnected-(U1-NC-Pad8)*%
X163000000Y-100460000D03*
%TO.P,U1,9,NC1_I*%
%TO.N,unconnected-(U1-NC1_I-Pad9)*%
X165540000Y-103000000D03*
%TO.P,U1,10,NC0_I*%
%TO.N,unconnected-(U1-NC0_I-Pad10)*%
X165540000Y-100460000D03*
%TD*%
D12*
%TO.N,GND*%
X153460000Y-94360000D03*
X148660000Y-95360000D03*
%TO.N,+5V*%
X166760000Y-94860000D03*
X166760000Y-87360000D03*
%TO.N,/TOF_GPIO*%
X160960000Y-78860000D03*
X170250000Y-83500000D03*
%TD*%
D13*
%TO.N,GND*%
X152460000Y-94360000D02*
X149660000Y-94360000D01*
X153460000Y-94360000D02*
X152460000Y-94360000D01*
X149660000Y-94360000D02*
X148660000Y-95360000D01*
%TO.N,+5V*%
X166760000Y-87360000D02*
X166760000Y-94860000D01*
%TO.N,/TOF_GPIO*%
X160960000Y-78860000D02*
X161710000Y-78110000D01*
X164460000Y-78110000D02*
X169850000Y-83500000D01*
X169850000Y-83500000D02*
X170250000Y-83500000D01*
X161710000Y-78110000D02*
X164460000Y-78110000D01*
%TD*%
%TA.AperFunction,Conductor*%
%TO.N,GND*%
G36*
X159994075Y-100652993D02*
G01*
X160059901Y-100767007D01*
X160152993Y-100860099D01*
X160267007Y-100925925D01*
X160330590Y-100942962D01*
X159767555Y-101505996D01*
X159830601Y-101550142D01*
X159830605Y-101550144D01*
X159974711Y-101617342D01*
X160027150Y-101663514D01*
X160046302Y-101730708D01*
X160026086Y-101797589D01*
X159974711Y-101842106D01*
X159830353Y-101909421D01*
X159830349Y-101909423D01*
X159650547Y-102035322D01*
X159650541Y-102035327D01*
X159495327Y-102190541D01*
X159495322Y-102190547D01*
X159369423Y-102370349D01*
X159369419Y-102370357D01*
X159302382Y-102514120D01*
X159256210Y-102566560D01*
X159189017Y-102585712D01*
X159122135Y-102565496D01*
X159077618Y-102514120D01*
X159050032Y-102454963D01*
X159010579Y-102370354D01*
X159010577Y-102370351D01*
X159010576Y-102370349D01*
X158884677Y-102190547D01*
X158884672Y-102190541D01*
X158729458Y-102035327D01*
X158729452Y-102035322D01*
X158549650Y-101909423D01*
X158549642Y-101909419D01*
X158405879Y-101842382D01*
X158353439Y-101796210D01*
X158334287Y-101729017D01*
X158354502Y-101662136D01*
X158405879Y-101617618D01*
X158406471Y-101617342D01*
X158549646Y-101550579D01*
X158729457Y-101424674D01*
X158884674Y-101269457D01*
X159010579Y-101089646D01*
X159077893Y-100945288D01*
X159124065Y-100892849D01*
X159191258Y-100873697D01*
X159258139Y-100893912D01*
X159302657Y-100945288D01*
X159369854Y-101089392D01*
X159414003Y-101152443D01*
X159977037Y-100589409D01*
X159994075Y-100652993D01*
G37*
%TD.AperFunction*%
%TA.AperFunction,Conductor*%
G36*
X161505995Y-101152442D02*
G01*
X161550146Y-101089390D01*
X161617342Y-100945289D01*
X161663514Y-100892849D01*
X161730707Y-100873697D01*
X161797589Y-100893913D01*
X161842106Y-100945288D01*
X161909421Y-101089646D01*
X161909423Y-101089650D01*
X162035322Y-101269452D01*
X162035327Y-101269458D01*
X162190541Y-101424672D01*
X162190547Y-101424677D01*
X162370349Y-101550576D01*
X162370351Y-101550577D01*
X162370354Y-101550579D01*
X162454963Y-101590032D01*
X162514120Y-101617618D01*
X162566560Y-101663790D01*
X162585712Y-101730983D01*
X162565496Y-101797865D01*
X162514120Y-101842382D01*
X162370357Y-101909419D01*
X162370349Y-101909423D01*
X162190547Y-102035322D01*
X162190541Y-102035327D01*
X162035327Y-102190541D01*
X162035322Y-102190547D01*
X161909423Y-102370349D01*
X161909419Y-102370357D01*
X161842382Y-102514120D01*
X161796210Y-102566560D01*
X161729017Y-102585712D01*
X161662135Y-102565496D01*
X161617618Y-102514120D01*
X161590032Y-102454963D01*
X161550579Y-102370354D01*
X161550577Y-102370351D01*
X161550576Y-102370349D01*
X161424677Y-102190547D01*
X161424672Y-102190541D01*
X161269458Y-102035327D01*
X161269452Y-102035322D01*
X161089650Y-101909423D01*
X161089646Y-101909421D01*
X160945288Y-101842106D01*
X160892849Y-101795934D01*
X160873697Y-101728740D01*
X160893913Y-101661859D01*
X160945289Y-101617342D01*
X161089390Y-101550146D01*
X161152443Y-101505995D01*
X160589410Y-100942962D01*
X160652993Y-100925925D01*
X160767007Y-100860099D01*
X160860099Y-100767007D01*
X160925925Y-100652993D01*
X160942962Y-100589409D01*
X161505995Y-101152442D01*
G37*
%TD.AperFunction*%
%TA.AperFunction,Conductor*%
G36*
X172254043Y-72000765D02*
G01*
X172502895Y-72017075D01*
X172518953Y-72019190D01*
X172726105Y-72060395D01*
X172759535Y-72067045D01*
X172775202Y-72071243D01*
X172944947Y-72128863D01*
X173007481Y-72150091D01*
X173022458Y-72156294D01*
X173231799Y-72259529D01*
X173242460Y-72264787D01*
X173256508Y-72272897D01*
X173460464Y-72409177D01*
X173473328Y-72419048D01*
X173657749Y-72580781D01*
X173669218Y-72592250D01*
X173830951Y-72776671D01*
X173840825Y-72789539D01*
X173977102Y-72993492D01*
X173985212Y-73007539D01*
X174093702Y-73227534D01*
X174099909Y-73242520D01*
X174178756Y-73474797D01*
X174182954Y-73490464D01*
X174230807Y-73731035D01*
X174232925Y-73747116D01*
X174249235Y-73995956D01*
X174249500Y-74004066D01*
X174249500Y-105495933D01*
X174249235Y-105504043D01*
X174232925Y-105752883D01*
X174230807Y-105768964D01*
X174182954Y-106009535D01*
X174178756Y-106025202D01*
X174099909Y-106257479D01*
X174093702Y-106272465D01*
X173985212Y-106492460D01*
X173977102Y-106506507D01*
X173840825Y-106710460D01*
X173830951Y-106723328D01*
X173669218Y-106907749D01*
X173657749Y-106919218D01*
X173473328Y-107080951D01*
X173460460Y-107090825D01*
X173256507Y-107227102D01*
X173242460Y-107235212D01*
X173022465Y-107343702D01*
X173007479Y-107349909D01*
X172775202Y-107428756D01*
X172759535Y-107432954D01*
X172518964Y-107480807D01*
X172502883Y-107482925D01*
X172254043Y-107499235D01*
X172245933Y-107499500D01*
X147254067Y-107499500D01*
X147245957Y-107499235D01*
X146997116Y-107482925D01*
X146981035Y-107480807D01*
X146740464Y-107432954D01*
X146724797Y-107428756D01*
X146492520Y-107349909D01*
X146477534Y-107343702D01*
X146257539Y-107235212D01*
X146243492Y-107227102D01*
X146039539Y-107090825D01*
X146026671Y-107080951D01*
X145842250Y-106919218D01*
X145830781Y-106907749D01*
X145669048Y-106723328D01*
X145659174Y-106710460D01*
X145522897Y-106506507D01*
X145514787Y-106492460D01*
X145408855Y-106277652D01*
X145406294Y-106272458D01*
X145400090Y-106257479D01*
X145321243Y-106025202D01*
X145317045Y-106009535D01*
X145309186Y-105970026D01*
X145269190Y-105768953D01*
X145267075Y-105752895D01*
X145250765Y-105504043D01*
X145250500Y-105495933D01*
X145250500Y-100460000D01*
X154120708Y-100460000D01*
X154139839Y-100678674D01*
X154196653Y-100890703D01*
X154196654Y-100890706D01*
X154196655Y-100890708D01*
X154289419Y-101089642D01*
X154289423Y-101089650D01*
X154415322Y-101269452D01*
X154415326Y-101269457D01*
X154570543Y-101424674D01*
X154686681Y-101505995D01*
X154706576Y-101519925D01*
X154750201Y-101574502D01*
X154757395Y-101644000D01*
X154725872Y-101706355D01*
X154665643Y-101741769D01*
X154635455Y-101745500D01*
X154578130Y-101745500D01*
X154578123Y-101745501D01*
X154518516Y-101751908D01*
X154383671Y-101802202D01*
X154383664Y-101802206D01*
X154268455Y-101888452D01*
X154268452Y-101888455D01*
X154182206Y-102003664D01*
X154182202Y-102003671D01*
X154131908Y-102138517D01*
X154126315Y-102190543D01*
X154125501Y-102198123D01*
X154125500Y-102198135D01*
X154125500Y-103801870D01*
X154125501Y-103801876D01*
X154131908Y-103861483D01*
X154182202Y-103996328D01*
X154182206Y-103996335D01*
X154268452Y-104111544D01*
X154268455Y-104111547D01*
X154383664Y-104197793D01*
X154383671Y-104197797D01*
X154518517Y-104248091D01*
X154518516Y-104248091D01*
X154525444Y-104248835D01*
X154578127Y-104254500D01*
X156181872Y-104254499D01*
X156241483Y-104248091D01*
X156376331Y-104197796D01*
X156491546Y-104111546D01*
X156577796Y-103996331D01*
X156628091Y-103861483D01*
X156634500Y-103801873D01*
X156634499Y-103744545D01*
X156654182Y-103677509D01*
X156706986Y-103631753D01*
X156776144Y-103621809D01*
X156839700Y-103650833D01*
X156860073Y-103673422D01*
X156955326Y-103809457D01*
X156955327Y-103809458D01*
X157110541Y-103964672D01*
X157110547Y-103964677D01*
X157290349Y-104090576D01*
X157290351Y-104090577D01*
X157290354Y-104090579D01*
X157489297Y-104183347D01*
X157701326Y-104240161D01*
X157857521Y-104253826D01*
X157919998Y-104259292D01*
X157920000Y-104259292D01*
X157920002Y-104259292D01*
X157974797Y-104254498D01*
X158138674Y-104240161D01*
X158350703Y-104183347D01*
X158549646Y-104090579D01*
X158729457Y-103964674D01*
X158884674Y-103809457D01*
X159010579Y-103629646D01*
X159077618Y-103485878D01*
X159123790Y-103433439D01*
X159190983Y-103414287D01*
X159257864Y-103434502D01*
X159302382Y-103485879D01*
X159369419Y-103629642D01*
X159369423Y-103629650D01*
X159495322Y-103809452D01*
X159495327Y-103809458D01*
X159650541Y-103964672D01*
X159650547Y-103964677D01*
X159830349Y-104090576D01*
X159830351Y-104090577D01*
X159830354Y-104090579D01*
X160029297Y-104183347D01*
X160241326Y-104240161D01*
X160397521Y-104253826D01*
X160459998Y-104259292D01*
X160460000Y-104259292D01*
X160460002Y-104259292D01*
X160514797Y-104254498D01*
X160678674Y-104240161D01*
X160890703Y-104183347D01*
X161089646Y-104090579D01*
X161269457Y-103964674D01*
X161424674Y-103809457D01*
X161550579Y-103629646D01*
X161617618Y-103485878D01*
X161663790Y-103433439D01*
X161730983Y-103414287D01*
X161797864Y-103434502D01*
X161842382Y-103485879D01*
X161909419Y-103629642D01*
X161909423Y-103629650D01*
X162035322Y-103809452D01*
X162035327Y-103809458D01*
X162190541Y-103964672D01*
X162190547Y-103964677D01*
X162370349Y-104090576D01*
X162370351Y-104090577D01*
X162370354Y-104090579D01*
X162569297Y-104183347D01*
X162781326Y-104240161D01*
X162937521Y-104253826D01*
X162999998Y-104259292D01*
X163000000Y-104259292D01*
X163000002Y-104259292D01*
X163054797Y-104254498D01*
X163218674Y-104240161D01*
X163430703Y-104183347D01*
X163629646Y-104090579D01*
X163809457Y-103964674D01*
X163964674Y-103809457D01*
X164090579Y-103629646D01*
X164157618Y-103485878D01*
X164203790Y-103433439D01*
X164270983Y-103414287D01*
X164337864Y-103434502D01*
X164382382Y-103485879D01*
X164449419Y-103629642D01*
X164449423Y-103629650D01*
X164575322Y-103809452D01*
X164575327Y-103809458D01*
X164730541Y-103964672D01*
X164730547Y-103964677D01*
X164910349Y-104090576D01*
X164910351Y-104090577D01*
X164910354Y-104090579D01*
X165109297Y-104183347D01*
X165321326Y-104240161D01*
X165477521Y-104253826D01*
X165539998Y-104259292D01*
X165540000Y-104259292D01*
X165540002Y-104259292D01*
X165594797Y-104254498D01*
X165758674Y-104240161D01*
X165970703Y-104183347D01*
X166169646Y-104090579D01*
X166349457Y-103964674D01*
X166504674Y-103809457D01*
X166630579Y-103629646D01*
X166723347Y-103430703D01*
X166780161Y-103218674D01*
X166799292Y-103000000D01*
X166780161Y-102781326D01*
X166723347Y-102569297D01*
X166630579Y-102370354D01*
X166630577Y-102370351D01*
X166630576Y-102370349D01*
X166504677Y-102190547D01*
X166504672Y-102190541D01*
X166349458Y-102035327D01*
X166349452Y-102035322D01*
X166169650Y-101909423D01*
X166169642Y-101909419D01*
X166025879Y-101842382D01*
X165973439Y-101796210D01*
X165954287Y-101729017D01*
X165974502Y-101662136D01*
X166025879Y-101617618D01*
X166026471Y-101617342D01*
X166169646Y-101550579D01*
X166349457Y-101424674D01*
X166504674Y-101269457D01*
X166630579Y-101089646D01*
X166723347Y-100890703D01*
X166780161Y-100678674D01*
X166799292Y-100460000D01*
X166780161Y-100241326D01*
X166723347Y-100029297D01*
X166630579Y-99830354D01*
X166630577Y-99830351D01*
X166630576Y-99830349D01*
X166504677Y-99650547D01*
X166504672Y-99650541D01*
X166349458Y-99495327D01*
X166349452Y-99495322D01*
X166169650Y-99369423D01*
X166169642Y-99369419D01*
X165970708Y-99276655D01*
X165970706Y-99276654D01*
X165970703Y-99276653D01*
X165819885Y-99236240D01*
X165758675Y-99219839D01*
X165758668Y-99219838D01*
X165540002Y-99200708D01*
X165539998Y-99200708D01*
X165321331Y-99219838D01*
X165321324Y-99219839D01*
X165198902Y-99252642D01*
X165109297Y-99276653D01*
X165109295Y-99276653D01*
X165109291Y-99276655D01*
X164910357Y-99369419D01*
X164910349Y-99369423D01*
X164730547Y-99495322D01*
X164730541Y-99495327D01*
X164575327Y-99650541D01*
X164575322Y-99650547D01*
X164449423Y-99830349D01*
X164449419Y-99830357D01*
X164382382Y-99974120D01*
X164336210Y-100026560D01*
X164269017Y-100045712D01*
X164202135Y-100025496D01*
X164157618Y-99974120D01*
X164090580Y-99830357D01*
X164090579Y-99830354D01*
X164090577Y-99830351D01*
X164090576Y-99830349D01*
X163964677Y-99650547D01*
X163964672Y-99650541D01*
X163809458Y-99495327D01*
X163809452Y-99495322D01*
X163629650Y-99369423D01*
X163629642Y-99369419D01*
X163430708Y-99276655D01*
X163430706Y-99276654D01*
X163430703Y-99276653D01*
X163279885Y-99236240D01*
X163218675Y-99219839D01*
X163218668Y-99219838D01*
X163000002Y-99200708D01*
X162999998Y-99200708D01*
X162781331Y-99219838D01*
X162781324Y-99219839D01*
X162658902Y-99252642D01*
X162569297Y-99276653D01*
X162569295Y-99276653D01*
X162569291Y-99276655D01*
X162370357Y-99369419D01*
X162370349Y-99369423D01*
X162190547Y-99495322D01*
X162190541Y-99495327D01*
X162035327Y-99650541D01*
X162035322Y-99650547D01*
X161909423Y-99830349D01*
X161909421Y-99830353D01*
X161842106Y-99974711D01*
X161795933Y-100027150D01*
X161728740Y-100046302D01*
X161661859Y-100026086D01*
X161617342Y-99974711D01*
X161550144Y-99830605D01*
X161550142Y-99830601D01*
X161505996Y-99767555D01*
X160942962Y-100330589D01*
X160925925Y-100267007D01*
X160860099Y-100152993D01*
X160767007Y-100059901D01*
X160652993Y-99994075D01*
X160589409Y-99977037D01*
X161152443Y-99414003D01*
X161089392Y-99369854D01*
X160890533Y-99277125D01*
X160890524Y-99277121D01*
X160678592Y-99220335D01*
X160678582Y-99220333D01*
X160460001Y-99201210D01*
X160459999Y-99201210D01*
X160241417Y-99220333D01*
X160241407Y-99220335D01*
X160029475Y-99277121D01*
X160029466Y-99277124D01*
X159830606Y-99369855D01*
X159830604Y-99369856D01*
X159767556Y-99414003D01*
X159767555Y-99414003D01*
X160330590Y-99977037D01*
X160267007Y-99994075D01*
X160152993Y-100059901D01*
X160059901Y-100152993D01*
X159994075Y-100267007D01*
X159977037Y-100330589D01*
X159414003Y-99767555D01*
X159414003Y-99767556D01*
X159369857Y-99830603D01*
X159302657Y-99974712D01*
X159256484Y-100027151D01*
X159189290Y-100046302D01*
X159122409Y-100026086D01*
X159077893Y-99974710D01*
X159010580Y-99830357D01*
X159010579Y-99830354D01*
X159010577Y-99830351D01*
X159010576Y-99830349D01*
X158884677Y-99650547D01*
X158884672Y-99650541D01*
X158729458Y-99495327D01*
X158729452Y-99495322D01*
X158549650Y-99369423D01*
X158549642Y-99369419D01*
X158350708Y-99276655D01*
X158350706Y-99276654D01*
X158350703Y-99276653D01*
X158199885Y-99236240D01*
X158138675Y-99219839D01*
X158138668Y-99219838D01*
X157920002Y-99200708D01*
X157919998Y-99200708D01*
X157701331Y-99219838D01*
X157701324Y-99219839D01*
X157578902Y-99252642D01*
X157489297Y-99276653D01*
X157489295Y-99276653D01*
X157489291Y-99276655D01*
X157290357Y-99369419D01*
X157290349Y-99369423D01*
X157110547Y-99495322D01*
X157110541Y-99495327D01*
X156955327Y-99650541D01*
X156955322Y-99650547D01*
X156829423Y-99830349D01*
X156829419Y-99830357D01*
X156762382Y-99974120D01*
X156716210Y-100026560D01*
X156649017Y-100045712D01*
X156582135Y-100025496D01*
X156537618Y-99974120D01*
X156470580Y-99830357D01*
X156470579Y-99830354D01*
X156470577Y-99830351D01*
X156470576Y-99830349D01*
X156344677Y-99650547D01*
X156344672Y-99650541D01*
X156189458Y-99495327D01*
X156189452Y-99495322D01*
X156009650Y-99369423D01*
X156009642Y-99369419D01*
X155810708Y-99276655D01*
X155810706Y-99276654D01*
X155810703Y-99276653D01*
X155659885Y-99236240D01*
X155598675Y-99219839D01*
X155598668Y-99219838D01*
X155380002Y-99200708D01*
X155379998Y-99200708D01*
X155161331Y-99219838D01*
X155161324Y-99219839D01*
X155038902Y-99252642D01*
X154949297Y-99276653D01*
X154949295Y-99276653D01*
X154949291Y-99276655D01*
X154750357Y-99369419D01*
X154750349Y-99369423D01*
X154570547Y-99495322D01*
X154570541Y-99495327D01*
X154415327Y-99650541D01*
X154415322Y-99650547D01*
X154289423Y-99830349D01*
X154289419Y-99830357D01*
X154196655Y-100029291D01*
X154196653Y-100029295D01*
X154196653Y-100029297D01*
X154188453Y-100059901D01*
X154139839Y-100241324D01*
X154139838Y-100241331D01*
X154137592Y-100267007D01*
X154120708Y-100460000D01*
X145250500Y-100460000D01*
X145250500Y-87359999D01*
X165654785Y-87359999D01*
X165654785Y-87360000D01*
X165673602Y-87563082D01*
X165729417Y-87759247D01*
X165729422Y-87759260D01*
X165820327Y-87941821D01*
X165943237Y-88104580D01*
X165969038Y-88128101D01*
X166005320Y-88187812D01*
X166009500Y-88219738D01*
X166009500Y-94000261D01*
X165989815Y-94067300D01*
X165969040Y-94091897D01*
X165943235Y-94115421D01*
X165820327Y-94278178D01*
X165729422Y-94460739D01*
X165729417Y-94460752D01*
X165673602Y-94656917D01*
X165654785Y-94859999D01*
X165654785Y-94860000D01*
X165673602Y-95063082D01*
X165729417Y-95259247D01*
X165729422Y-95259260D01*
X165820327Y-95441821D01*
X165943237Y-95604581D01*
X166093958Y-95741980D01*
X166093960Y-95741982D01*
X166193141Y-95803392D01*
X166267363Y-95849348D01*
X166457544Y-95923024D01*
X166658024Y-95960500D01*
X166658026Y-95960500D01*
X166861974Y-95960500D01*
X166861976Y-95960500D01*
X167062456Y-95923024D01*
X167252637Y-95849348D01*
X167426041Y-95741981D01*
X167576764Y-95604579D01*
X167699673Y-95441821D01*
X167790582Y-95259250D01*
X167846397Y-95063083D01*
X167865215Y-94860000D01*
X167846397Y-94656917D01*
X167790582Y-94460750D01*
X167699673Y-94278179D01*
X167576764Y-94115421D01*
X167550960Y-94091897D01*
X167514680Y-94032185D01*
X167510500Y-94000261D01*
X167510500Y-88219738D01*
X167530185Y-88152699D01*
X167550962Y-88128101D01*
X167561938Y-88118093D01*
X167576764Y-88104579D01*
X167699673Y-87941821D01*
X167790582Y-87759250D01*
X167846397Y-87563083D01*
X167865215Y-87360000D01*
X167846397Y-87156917D01*
X167790582Y-86960750D01*
X167699673Y-86778179D01*
X167576764Y-86615421D01*
X167576762Y-86615418D01*
X167426041Y-86478019D01*
X167426039Y-86478017D01*
X167252642Y-86370655D01*
X167252635Y-86370651D01*
X167157546Y-86333814D01*
X167062456Y-86296976D01*
X166861976Y-86259500D01*
X166658024Y-86259500D01*
X166457544Y-86296976D01*
X166457541Y-86296976D01*
X166457541Y-86296977D01*
X166267364Y-86370651D01*
X166267357Y-86370655D01*
X166093960Y-86478017D01*
X166093958Y-86478019D01*
X165943237Y-86615418D01*
X165820327Y-86778178D01*
X165729422Y-86960739D01*
X165729417Y-86960752D01*
X165673602Y-87156917D01*
X165654785Y-87359999D01*
X145250500Y-87359999D01*
X145250500Y-78859999D01*
X159854785Y-78859999D01*
X159854785Y-78860000D01*
X159873602Y-79063082D01*
X159929417Y-79259247D01*
X159929422Y-79259260D01*
X160020327Y-79441821D01*
X160143237Y-79604581D01*
X160293958Y-79741980D01*
X160293960Y-79741982D01*
X160393141Y-79803392D01*
X160467363Y-79849348D01*
X160657544Y-79923024D01*
X160858024Y-79960500D01*
X160858026Y-79960500D01*
X161061974Y-79960500D01*
X161061976Y-79960500D01*
X161262456Y-79923024D01*
X161452637Y-79849348D01*
X161626041Y-79741981D01*
X161776764Y-79604579D01*
X161899673Y-79441821D01*
X161990582Y-79259250D01*
X162046397Y-79063083D01*
X162054739Y-78973059D01*
X162080525Y-78908121D01*
X162137326Y-78867434D01*
X162178210Y-78860500D01*
X164097770Y-78860500D01*
X164164809Y-78880185D01*
X164185451Y-78896819D01*
X169236389Y-83947756D01*
X169259708Y-83980165D01*
X169310327Y-84081821D01*
X169433237Y-84244581D01*
X169583958Y-84381980D01*
X169583960Y-84381982D01*
X169683141Y-84443392D01*
X169757363Y-84489348D01*
X169947544Y-84563024D01*
X170148024Y-84600500D01*
X170148026Y-84600500D01*
X170351974Y-84600500D01*
X170351976Y-84600500D01*
X170552456Y-84563024D01*
X170742637Y-84489348D01*
X170916041Y-84381981D01*
X171066764Y-84244579D01*
X171189673Y-84081821D01*
X171280582Y-83899250D01*
X171336397Y-83703083D01*
X171355215Y-83500000D01*
X171336397Y-83296917D01*
X171280582Y-83100750D01*
X171189673Y-82918179D01*
X171066764Y-82755421D01*
X171066762Y-82755418D01*
X170916041Y-82618019D01*
X170916039Y-82618017D01*
X170742642Y-82510655D01*
X170742635Y-82510651D01*
X170623956Y-82464675D01*
X170552456Y-82436976D01*
X170351976Y-82399500D01*
X170148024Y-82399500D01*
X170047784Y-82418238D01*
X169947542Y-82436976D01*
X169942027Y-82438546D01*
X169941399Y-82436340D01*
X169881704Y-82441338D01*
X169819979Y-82408599D01*
X169818909Y-82407542D01*
X164938421Y-77527052D01*
X164938414Y-77527046D01*
X164864729Y-77477812D01*
X164864729Y-77477813D01*
X164815491Y-77444913D01*
X164678917Y-77388343D01*
X164678907Y-77388340D01*
X164533920Y-77359500D01*
X164533918Y-77359500D01*
X161783917Y-77359500D01*
X161636082Y-77359500D01*
X161636080Y-77359500D01*
X161491092Y-77388340D01*
X161491082Y-77388343D01*
X161354511Y-77444912D01*
X161354498Y-77444919D01*
X161231584Y-77527048D01*
X161231580Y-77527051D01*
X161035452Y-77723181D01*
X160974129Y-77756666D01*
X160947771Y-77759500D01*
X160858024Y-77759500D01*
X160657544Y-77796976D01*
X160657541Y-77796976D01*
X160657541Y-77796977D01*
X160467364Y-77870651D01*
X160467357Y-77870655D01*
X160293960Y-77978017D01*
X160293958Y-77978019D01*
X160143237Y-78115418D01*
X160020327Y-78278178D01*
X159929422Y-78460739D01*
X159929417Y-78460752D01*
X159873602Y-78656917D01*
X159854785Y-78859999D01*
X145250500Y-78859999D01*
X145250500Y-74004066D01*
X145250765Y-73995956D01*
X145254819Y-73934108D01*
X145267075Y-73747102D01*
X145269190Y-73731048D01*
X145317045Y-73490462D01*
X145321243Y-73474797D01*
X145344337Y-73406762D01*
X145400093Y-73242512D01*
X145406291Y-73227547D01*
X145514790Y-73007533D01*
X145522893Y-72993498D01*
X145659182Y-72789527D01*
X145669039Y-72776681D01*
X145830786Y-72592244D01*
X145842244Y-72580786D01*
X146026681Y-72419039D01*
X146039527Y-72409182D01*
X146243498Y-72272893D01*
X146257533Y-72264790D01*
X146477547Y-72156291D01*
X146492512Y-72150093D01*
X146656762Y-72094337D01*
X146724797Y-72071243D01*
X146740464Y-72067045D01*
X146981048Y-72019190D01*
X146997102Y-72017075D01*
X147245957Y-72000765D01*
X147254067Y-72000500D01*
X147315892Y-72000500D01*
X172184108Y-72000500D01*
X172245933Y-72000500D01*
X172254043Y-72000765D01*
G37*
%TD.AperFunction*%
%TD*%
M02*
